<svg version="1.0" xmlns="http://www.w3.org/2000/svg" width="842.7" height="960" viewBox="0 0 632 720"><path d="M369 17l-5 8c-5 8-5 12 0 19l3 5-1 14-3 18-1 5-5-11-6-12 4-5c5-6 5-6 5-12s-2-18-4-23l-2-3-4 6c-6 9-10 17-10 20s0 3-1 2c-4-3-3 0 2 7 7 13 15 34 15 43 0 2 0 2-5-1-6-4-11-4-14-1-2 4-1 5 3 2 2-2 2-2 5-1 4 2 9 6 11 9l1 19-1 29-1 12-8-14c-8-13-8-14-8-20 0-8-2-13-9-22-5-6-8-8-8-4s-1 1-4-6c-5-16-5-21 1-26 3-2 4-2 7-2 5 1 4 0 0-2-2 0-3-1-3-2l1-7c0-5 0-6-5-13-2-4-5-7-6-7-2 0-3 4-4 13v7l4 4 5 5-3 4c-4 7-5 12-1 24 0 2-6-5-10-12l-2-3 3 1c2 0 3 0 4-2 1-4-1-12-4-17l-8-8c-5-4-13-8-15-8-1 0 0 8 3 17 1 7 2 8 8 14 5 5 8 9 13 19 9 17 13 26 12 27l-6-3-17-7c-2-1-2-2 1-7l2-9c-1-4-10-24-12-24-1-1-3 1-6 11s-4 16-1 20l-4-3c-8-7-10-11-13-21l-2-8 3-5 4-5v-8l-2-13-1-4-4 5c-5 6-8 12-8 17l2 9 4 8 1 2-2-2-18-10c-3 0-3 2 0 11 3 11 6 14 14 16h8c1-1 2 0 6 6l5 7-3-1c-6-1-2 2 12 7l15 8 3 8c2 8 4 14 6 16 1 2 1 2-5 2l-7 1c-1 1-2-1-1-13l-1-14-17 16c-4 5-4 11-1 20 2 6 2 7 1 12l-3 9-2 3v-5c0-8-2-20-3-21l-7 7-7 7 1-4c0-6-2-10-10-20l-8-8 6-11 5-11-6 7-6 8-6-11c-6-12-7-15-9-14l-7 22 1 9-5-6-9-7v15c-1 16 0 16 10 23 6 3 6 4 2 11l-1 4-2-4-11-17-3 4-1 3-4-3c-6-6-7-10-8-24 0-12-1-15-2-8-2 8-1 22 1 27 1 2 1 2-1 1-3-2-2 1 2 3l7 6c3 3 3 3 2 11l1 12c3 3 11 10 13 10v15l-1 16-1-1c-2 0-2-1-1-6v-8c-1-5-10-15-14-18-3-1-3-2-3-6s-1-6-5-12c-5-8-9-13-11-13v-3c0-3 0-3-3-2l-10 2-6 2-1-3v-23c1-10 1-12-8-22-5-7-9-10-10-8l-1 14v13l2 3 8 6c5 3 6 5 6 12 0 5 0 7-3 12l-4 7-6 11-3-3-7-7c-5-3-5-3-2-3l3 1v-5c0-12-4-17-18-24l-11-5 4 15c2 7 3 10 6 13l3 3h-5c-7 0-6 1 3 3 10 2 13 3 17 7 5 4 7 8 7 16 0 7 0 7 4 11 6 5 18 11 44 21 29 12 30 12 37 25 6 11 15 22 32 40l14 16-15-3c-7-1-15-3-18-5-5-2-21-15-23-19l-4-10c-1-9-5-16-9-22l-4-5-23-11-22-10-1 1 8 6 8 4h-23l-2-4c-3-5-9-10-20-12-9-2-13-3-13-1s12 20 14 22c4 3 14 4 21 2 4-2 6-2 11-1l7 1v1l-17 2-23 1c-7 2-7 2-5 4l8 7 7 5-4 1c-7 2-8 3-2 3l11-2h7l-8 3c-12 6-12 6 0 11l11 4-4 8-4 15c0 6 0 7 3 11l6 7 3 2 2-2 2-3v4c0 5 3 9 10 14l5 5 2-4c1-2 3-6 3-10l2-6 9 10 10 11h-24l10 2c13 1 18 3 20 5 4 4 3 5-6 5h-8l-8 7-9 5-1-4c0-4-2-10-5-13l-14-12-1 9-1 7-8-7c-11-11-11-12-12-32a228 228 0 011-28l-3-4c-3-6-13-19-14-19s-4 17-4 24c0 6 0 7 3 10 5 5 10 8 12 8 2-1 2-1 2 1l-1 10c0 8 0 8-2 5-2-6-4-9-10-13l-9-7c-3-4-3-5-3-11 1-6 1-7-2-12l-13-19c-1 0-5 19-5 25l2 7c3 4 12 10 14 10h3l-3 1-3 1 7 19c3 5 4 6 11 9 3 1 6 5 12 13l19 21c9 9 11 11 9 11a638 638 0 01-78-16c-2-3-1-4 2-2 5 3 11 6 14 6l16-7c2-2 2-2 0-5-4-4-10-8-15-9l-2-1 10-4c0-2-7-11-10-13l-6-2c-3-1-3-1 1-1h4v-5c0-10-6-17-20-23-8-3-11-4-11-2l8 22c3 4 8 7 13 7l-8 1-11 1c-1 2 12 17 18 19l3 2-6 2c-6 2-7 2-10 0l-22-6-2 1 4 10 5 8-4-1H20c-14 2-15 2-8 8 12 12 18 14 29 9l7-3-1-4-1-2h11l17 2 2 1-18-1 2 5 3 3-3 3c-4 5-7 14-4 18 1 1 1 1 1-2 0-4 2-9 5-12l2-3 5 5c5 6 9 7 19 6 8-1 9-2 6-9l-3-6 24 3c17 3 17 3 9 5-16 5-26 12-32 22-4 6-3 10 0 4 8-11 18-17 32-21 7-2 34-2 41-1l4 1-4 3c-6 4-18 16-18 17s4 2 14 2h14l3-4 5-8c3-5 3-5 12-3l24 2c51 3 64 4 77 7 8 2 8 1 7 25s0 50 3 75c2 20 2 35 0 69-2 45-2 43-14 57l-7 8-4-5-5-6-3 6c-2 8-3 8-14 8h-15c-4-1-6-1-14 2-12 3-13 3-11 6 2 2 2 2 0 3h-3l-6-10-5-8-2 2c-3 3-5 11-6 20l-1 8-6-2c-6-2-9-2-9-1l2 8 3 6-7 7c-8 10-9 12-9 18 1 5 5 15 7 15l7-6c7-6 8-10 7-19l-1-6 5 3 11 2h7l-1-6v-7l4-1 6-1c1-1 3 1 7 4 6 7 13 12 16 12l18-4c1-1-2-6-6-10l-3-4h10v8c1 9 2 12 9 16 8 5 9 5 11 1 1-5 2-13 0-17l-3-6-3-3 20-9-3 5-3 10c0 4 0 5 2 7 4 4 5 4 5 0-1-4 2-6 9-9l6-2 1 3c0 4 3 9 8 14l5 4 3-5c5-8 6-12 2-21-1-3-1-4 2-7l2-3 4 3c5 3 13 5 29 6 11 1 30 5 36 8l8 4c5 5 7 5 9 1 2-2 2-2 11-2l8 1-7-8c-7-6-12-13-11-15l15 3 14 2-3 6-1 6 5 2 4 2h-3c-5 0-8 3-13 10l-4 5 5 3c7 2 14 3 17 1 5-2 20-14 20-15 0-2-3-3-13-4-8 0-8 0-4-1 3 0 7-2 10-4 4-3 5-3 8-2s4 3 2 3l-3 1c-3 2 7 15 14 17l26 2-3-5-2-4 7 2 8 2c2-1 4 0 7 4l6 4c1 0 6-9 7-14l-1-8c-2-6-11-20-13-20-1 0-4 9-6 19l-1 6-3-6c-6-11-10-13-22-13h-6v5c1 5 1 5-2 6s-8-1-11-4l-3-2 3-4 3-4-8-1c-5-1-10-2-15-5l-21-11-14-7-1-6c-2-8-5-12-9-13l-14-5-1 9v8h-5c-10-2-19-4-20-6l-7-39V401l5-4c8-8 18-12 32-12h8l5 6c4 4 6 5 10 6 6 1 23 0 25-2 1-1 1-1-2-4l-2-3h2l39 6c5 0 0-2-17-7l-17-5 7-1 22-4c14-2 14-2 20-1 9 3 15 6 12 6l-3 1c-1 4 5 14 11 17 3 2 18 5 23 5l3-1c0-2-8-13-12-18l-9-6c-2 0-7-2-9-4l-4-3 6-1 6-1-4-4-3-4 11-7c15-8 22-10 34-11l12-1c3-1-1-1-10-2l-11-1 17-9c20-13 22-15 8-9-18 7-18 7-16 5l9-13c9-14 10-14 20-21l7-6-20-6 2-2c5-2 8-5 14-14 7-9 7-9-2-9l-14 2c-7 2-11 6-14 14-1 3-2 7-4 8-2 3-11 5-23 8l-40 5 2-4 3-3c12 4 15 3 26-4l10-5 1 4c0 3 1 3 3 3 5 0 13-5 16-9 3-6 9-26 7-26l-9 4c-10 5-16 10-17 15l-2 4-9-2c-12-3-17-3-21 0l-4 3 1-3c0-1 0-2-2-2l-19 10c-4 3-6 9-6 14s-1 6-4 7c-2 1-2 0-1-5 0-7 0-7-8-4l-5 3 2-7 9-17c5-11 5-11 7-10 3 3 12 2 16 0 3-1 7-4 9-8l7-7c1-2 1-2-10-2s-12 0-10-1c2-3 15-11 21-13 8-3 20-4 28-2l8 1c0-1-8-4-18-5l-8-2 7-4 7-5-16 7-16 7 13-12 16-14c8-5 11-8 15-17l4-12c1-2 1-2-3-2-6 1-21 9-24 12-1 2-2 5-2 11v9l-9 7a653 653 0 00-27 21l3-10c5-14 5-15 4-15l-7 14c-7 16-8 18-21 34l-9 12-8-1c-8 0-13 1-17 7s-5 9-4 10 0 3-3 5c-4 4-4 4-6 3-5-5-11-6-22-3l-8 1c0-1 10-10 15-13 3-2 4-2 8-1 7 1 13 0 17-3 5-4 15-13 15-15l-6-2h-5l5-6 6-6 2 3 3 3 3-3c5-4 8-11 8-15 0-3 0-3 2 2 3 8 3 8 9 3 9-6 9-7 9-23l-1-14-7 5c-4 5-5 5-5 3 2-6 6-13 10-16 16-13 16-14 16-28l-2-12c-1-2-5 2-11 9-4 6-5 5-2-1 5-6 6-13 5-18s-7-16-10-20l-2-2-2 6-5 11c-1 6-2 7-12 13-6 4-8 7-9 15 0 7 0 11 3 11 2 0 2 0 0 4l-3 2-4-7c-5-8-5-13-2-22 3-6 11-20 20-31l7-8 5 3c6 3 9 3 18-1 8-2 10-4 10-5s-9-6-15-7l-5-2 4-3c4-3 4-3 8-2 5 2 17 2 20 0 5-3 17-14 17-15 0-2-8-3-20-3-8 0-8 0-12 3l-3 3 1-11c0-11 0-11-2-11-3 0-19 15-20 20-2 4-2 5-11 8l-12 6c-3 3-13 24-17 35l-4 15c0 7-1 8-3 5-2-2-12-7-17-8-4 0-4 0-4-3l4-33c0-8 0-9 2-9 2-1 8-9 9-14l-1-10c-2-8-7-19-8-19s-7 10-10 19c-2 6-2 9 2 16 2 3 2 4 2 11l-2 12c-1 3-1 2-1-5 0-10-1-11-9-21-5-5-6-7-5-8l3-1 1-1c0-1-2-1-7 1l5-7c10-10 10-11 10-23-1-12-2-17-3-17l-16 19c-3 5-3 8 0 16 4 9 4 9-1 0-3-8-10-19-11-19l-2 3c-1 3-1 3-1 1l3-6c2-4 2-5 2-12-1-8-3-15-4-15l-3 2zm17 79c-1 13-2 23-4 23l-4-7-4-7 2-6 2-8 9-10-1 15zm68 19l9-2 3-2-4 5a146 146 0 00-24 31c-1 0 4-22 8-32 3-7 4-7 4-4 0 4 0 4 4 4zm-58 29l-1 2-21 23-2 2v-13l1-13 2 1c3 4 6 2 9-3l2-6 4 4 6 3zm-64 7c2 5 2 7-1 7l-9 6-13 7c-6 3-10 5-12 9l-1 2-1-2a288 288 0 00-7-17l6 3c3 2 8 3 10 3 4 0 10-3 15-7l4-3-4-3-4-4h9v-11l3 4 5 6zm-100 5v10l4 4 7 6c3 1 4 3 5 5 1 6 3 13 5 16s2 4-1 4l-27 13-6 4-1-3c-1-4 1-23 3-34 2-10 10-35 11-35v10zm247-1c3 3 3 8 1 20-3 11-5 20-10 30l-4 9-2-5-3-5-10 14c-2 5-5 9-6 9l-1-1c7-16 9-24 9-36 0-8 0-9 3-13l8-9c5-3 7-4 9-9l3-6 3 2zm-61 8l10 1h8l4 9c5 10 6 16 5 24l-1 3-5-8-6-8c-1 0-5 11-7 20-1 6 0 10 5 16l3 5c-2 4-4 2-8-6-2-5-7-12-11-17-6-7-7-9-8-13l-1-6c-1 0-17 15-18 18l-1 6c0 4 2 13 4 15s2 2 7-1c6-5 8-8 9-16l2-7 4 7c5 6 10 16 11 21 1 3 1 4-1 7-2 2-4 6-4 9-1 4-3 6-9 12s-9 8-15 10c-9 4-13 7-16 12l-5 7-14 7 3-13c5-16 8-29 9-39 0-8 0-8 3-7 2 1 4 0 8-5 3-4 3-5 3-11 0-9-4-25-6-25l-2 2c-2 2-2 2 0-1l10-14a496 496 0 0015-21l2-2 5 4c3 3 6 5 8 5zm-138 3c-4 10-5 17-5 21l5 7c3 4 4 5 3 6-3 2-4 2-12 0l-6-1 2-3c4-6 7-15 9-24 2-7 4-12 6-12l-2 6zm57-2a88 88 0 018 29c0 6 0 8 3 11 2 4 2 5 2 17 0 14-1 24-5 34l-2 6-3-8-3-8 4-5 5-8c1-4 0-21-1-22-2-2-14 10-16 17l-2 2 2-7c4-9 4-14-3-27l-6-10c-1 0-5 9-7 18l-2 4-5-3-4-3 2-2c10-7 12-8 13-11l1-11v-7l5-3c9-6 11-6 14-3zm-189 35c3 8 4 11 7 13l2 2-4-2c-13-4-20-10-19-17 1-5 3-6 7-6h4l3 10zm36 22c1 2 0 2-7-1-12-3-13-4-9-4h4v-13l3 2c4 3 6 2 7-2l1 7 1 11zm89-18l2 1c0 2 6 9 11 12 3 2 4 2 11 2l8-1-4 2-4 2 7-1c6 0 6 0 10 3 5 5 17 24 16 26l-7-2c-6-2-6-3-9-7-3-6-5-7-9-4-3 2-3 2-5 0l-3-6c-3-4-24-22-28-24s-5-4-1-4l5 1zm-33 15c0 9-5 32-7 31l-5-8c-5-8-5-10 0-17 2-4 10-11 11-11l1 5zm34 11c2 7 5 13 9 15l4 3-4 3c-4 5-6 7-2 5 4-3 9-6 12-6 3-1 3-1 3 6l4 20c2 0 14-15 16-21 2-4 2-4 5-3l7 4c5 2 6 3 7 9 2 10 1 14-3 25a236 236 0 00-11 50c-1-2-3-8-3-13 0-3-1-4-6-9-6-7-15-14-16-14l-1 3c0 2-1 1-14-10l-22-20-8-8 1-4c2-5 2-9 1-15-2-5-2-5 0-4l4 1c2 0 4-5 4-13 0-7 0-7 8-7 5 0 5 0 6 3zm-90 43l-3 4c-2 0-11-5-12-7-1-3-1-3 6-7l5-3 2 5 2 8zm254 20c-4 12-4 16 1 22l5 6-6 4c-10 6-11 6-12 5-1-2-4-3-4-1l-3 4-3 3 3-4c4-6 7-14 7-19 0-6 2-14 4-16l2-3c0-2 7-10 8-10l-2 9zm-285-1c5 9 6 9 10 4l3-3v12h-6l-8-1h-2c-2 0-3-1-6-8l-4-9 4-1 5-1 4 7zm249 4l9 6-4 2-7 5-10 21c-1 3-1 3 3 3 5-1 21-9 23-12l3-10 1-9c2-3 0 14-2 18-3 7-16 19-25 23-7 4-37 15-40 15s-4-7-4-19 2-22 6-28c5-7 28-20 37-21l10 6zm167 3l4 3-7 3c-5 1-8 3-10 6l-4 3-4-2-21-10 9-2 13-2c9-1 15-1 20 1zm-37 11l17 7c2 1 2 2 3 6v6l6-1h7l-6 5c-3 3-8 6-17 10-18 8-17 8-18 1v-6l11-10 10-11-6-1c-7-1-19 0-23 2-2 0-4 3-6 5-2 3-3 4-4 3-3-2-3-1-1 1 1 2 2 3 1 6v3l6 1c8 2 8 2 9 8 0 6-2 9-10 11l-7 2 2-6c5-9 4-9-10-5l-9 2 3-8c3-7 4-10 2-10-1 0-1-1 1-5l2-8c0-7 1-8 8-11l10-2 19 5zm-362 4c3 3 7 7 10 8l4 2 1-3 2-6c0-3 2-3 7-3 5 1 5 1 5 6 1 6 4 10 11 14 5 4 6 4 6 8 1 6 6 16 8 16l7-7 7-6 9 2 8 3-8 5c-10 7-12 9-13 14l-2 4c-3 0-18-8-24-13-4-3-6-7-11-16-6-12-8-13-4-1l3 7-5-3c-6-5-31-30-33-34l-2-3h4c3 0 4 1 10 6zm305 12l2 8c1 1 1 2-2 3l-6 3-3 2v-5l-1-8c0-4 0-4 4-6l4-3 2 6zm-22 9c-8 10-9 12-6 24v3h-8l-10 1 1-3 1-7v-6l14-9 14-9-5 6zm-166 10c8 4 14 11 17 17 3 5 6 22 5 24l-9-2-22-3-26-3c-2 0-2 0 0-3 2-4 5-11 6-20 1-6 1-7 5-8l6-5c3-3 3-3 7-1 3 0 7 2 11 4z"/><path d="M411 220l-16 15v17c2 6 4 6 11 1 8-5 9-9 9-24v-12l-4 3zM372 299l-5 8-3 5 3 1 9 1c5 0 8-2 17-10 3-3 4-4 3-5l-11-2c-9 0-10 0-13 2zM445 52l-2 8-8 11c-10 9-11 12-8 21 2 9 2 10 7 8 6-3 10-8 12-14l2-5 4 3 5 3 2-2c5-5 5-14 1-22l-13-18-2 7zM258 119c-5 7-8 17-8 21 0 3 1 5 4 10l6 7c3 1 10-10 10-17s-7-25-9-25l-3 4zM532 127l-12 5c-3 2-6 9-7 16v7l3-1 6-1c4 0 4-1-4 9-6 6-7 10-5 19 3 11 5 11 13 4l6-6v-14l1-15 6-11 6-14c0-2-2-1-13 2zM73 190l8 18 3 6-3-3c-1-2-5-3-7-4H48c-1 1 11 13 16 17 3 2 5 3 8 3 4 0 13-2 15-4s2-2 1-4c-2-3-1-3 3-2l10 1h5l-1-4c-2-13-5-16-23-23-10-3-9-3-9-1zM74 234l-10 5 9 5c10 4 19 5 24 3l10-10-4-5c-4-2-6-3-12-3-7 0-8 0-17 5zM542 233l-6 6-3 3 3 2 3 3h-4c-5 0-9 2-13 7s-5 8-4 9c3 2 9 4 14 4 6 0 7 0 15-6 10-7 13-10 10-11l10-6 11-6-4-2c-16-7-25-8-32-3zM602 325l-9 6-5 6 5 4c6 3 7 3 13 3 5 0 8 0 14-3 13-6 13-8-1-13-9-3-13-4-17-3zM454 624c-2 0-2 1 0 6 6 12 8 13 24 17 10 1 11 1 11-1s-9-16-13-19c-3-3-4-3-11-4l-11 1zM543 630c-3 0-15 8-15 10s7 7 12 9h10c10-2 20-6 20-8-1-2-18-11-23-11h-4zM122 642l-17 5c0 3 20 15 25 15 2 0 2 0 2 9s0 10 3 13c5 4 11 8 13 8s5-9 5-14c0-4-3-10-8-16l-3-5 2-2 3-3c0-2-9-9-13-10h-12zM493 648l-6 6c-1 2-1 3 2 5l8 4h9c6-1 24-10 23-11-2-3-17-7-24-8-7 0-7 0-12 4zM161 661c-4 8-4 10-4 16 0 5 0 6 4 12l6 6c1 0 8-11 9-15 0-4 0-7-2-12-3-10-6-17-7-17l-6 10zM570 663l-8 4c-4 3-8 11-8 15 0 2 0 2 10 2h9l7-7c7-7 12-12 11-14h-21zM92 676l-18 11 23 7c5 0 7 0 10-2 5-3 9-8 9-11l-6-4c-7-4-11-4-18-1zM366 676c-6 3-11 7-11 9 0 4 9 9 16 9 6 0 26-7 26-10 0-2-21-10-26-10l-5 2zM342 690l-4 1-17 18c0 2 21 3 27 0 5-1 13-16 10-18-1-1-11-2-16-1zM132 692l-18 10-2 2c0 2 19 8 24 8 4 0 6-1 12-6 6-6 6-8-2-12-6-3-10-3-14-2z"/></svg>