<svg version="1.0" xmlns="http://www.w3.org/2000/svg" width="821.3" height="904" viewBox="0 0 616 678"><path d="M351 5c-4 4-4 10-1 14 2 2 2 3 1 15-3 22-3 22-7 18-1-2-2-2-2 0-1 1-1 1-3-2-7-12-18-26-19-25l3 7c9 13 12 22 18 45 0 3 0 3-2 2l-7-5c-6-3-6-3-9-10l-4-8c-1 0-6 11-6 15s1 5 4 9c2 2 3 3 4 2l2-4c2-3 3-3 5-3 4 1 9 6 8 7l-4 16 6 7 4 4-1 7-1 16a276 276 0 00-2 12l-1-8c-1-7-1-7-5-12-2-3-4-4-6-4l-4-5c-2-3-3-6-2-7 0-2-4-12-7-15-2-2-3-2-4-1-2 1-2 0-4-4l-4-15c-3-7-3-9-2-13 1-2 2-5 4-6 3-2 8-3 11-1l4 1c2-1-3-3-8-4-4-1-4-1-4-10-1-4-1-7-3-10-3-5-5-5-6 1s0 10 4 12 4 4-1 11l-4 8-4 5c-2 1-2 1-6-5l-5-6h3c3 0 3 0 3-4l-1-7c-2-3-10-9-13-9-2 0-2 1-1 4 1 6 3 11 7 19 6 9 9 16 10 21 0 3 1 6 4 8 4 4 12 18 12 19l-8-4-15-7c-22-8-30-16-35-30-3-10-4-16-1-21 3-6 3-17-1-17l-4 6c-2 4-3 5-2 8l4 19c1 8 6 17 11 23l4 4h-3c-7-2-9-2-12-1l-3 2 4 5c4 3 5 3 9 3l5-3c2-2 2-2 10 2l14 6c5 3 5 3 6 10 1 10 5 13 12 13h3v-5l-1-5 4 4c5 4 12 15 12 17l-2 2c-7 2-15 8-25 18-5 4-7 7-8 12-3 6-3 6-4 4-3-3-4-2-4 3l-4 7c-3 3-4 2-2-1l7-20c0-3-6-14-7-14-2 0-5 8-5 13l-3 9c-2 4-2 6-1 8l1 3h-5c-7-2-7-2-4-7 4-6 8-18 9-25 0-8-1-6-3 3-4 14-13 26-22 29-6 2-19 8-26 13l-7 4v-17l3 1c5 0 6-8 2-18-2-6-2-7-1-12 2-8 9-27 17-41l7-13-1-9-1-9-10 9-1 6c0 3 2 9 4 9l-6 12c-9 12-15 25-20 39l-4 9-1-4c-3-7-8-14-10-14-2 1-6-3-8-11-2-7-3-9-5-7h-2l-1-12c0-10 0-12-1-11l-2 20v20l3 4 4 4 2-3 2-3 3 2c2 2 2 3 2 8 0 6 0 7 3 10 4 4 6 5 6 3l1-1v21l-1 20-6-2-23-9c-30-9-36-12-39-19-1-3 0-7 4-14 2-4 2-4 7-3 4 0 5 0 8-2l8-14c0-1-8 0-12 2l-2 1v-8c0-8-3-20-4-20l-1 3c4 15 3 22-7 37l-4 5-2-3c-2-3-10-8-15-10l-13-1-10-1 10 2c20 4 26 9 27 23v7l-4-2c-4-2-4-2-11-1l-8 2c-1 1 11 10 15 10l6-2 5-3 5 4c5 4 16 9 40 19 30 11 30 12 35 21 6 10 14 21 25 34 11 12 12 13 10 13l-12 4 3 3 3 2-3-1-6-1-2-1 2-4c2-2 2-4 2-8-1-6-4-14-5-14-2 0-7 12-7 15l2 6 2 3-5-3-12-11c-8-7-8-8-8-13-1-8-4-16-10-23-4-5-5-6-15-11-7-4-11-6-12-9l-4-4-20-4 3 5 4 6-9 1-9 1-2-4-5-6c-3-2-14-5-15-4s2 7 6 12l2 4-1 1 15 1c21 1 36 5 45 11 4 3 11 15 12 21v5l-8-4-12-7c-3-3-4-4-5-2h-8c-5-2-6-3-12-9-5-5-7-6-11-7-5 0-15 2-15 4l6 5c6 4 6 4 3 5-8 1-10 2-10 3l3 1c7-2 16-2 16-1 1 2 0 4-4 5l-3 3c1 2 11 6 15 6l7-3 4-3-2-3c-4-4-4-4 2-2 3 1 4 2 3 3-1 4-1 9 1 13l4 4c1 0 5-5 5-9 2-5 2-5 7-3 9 6 11 8 16 18l6 10h-4l-6-3-12-13-1 3-1 7v4l-11 1h-12c-2 1-3-1-5-6l-4-7c-1 0-5 11-5 15 0 3 1 5 3 8 3 4 3 4 5 2l3-5c2-4 4-4 16-4 9 0 10 0 15 3s8 3 8 1 1-2 5-1c11 1 13 2 15 6s8 10 11 10l2-2c0-2 2-2 7 0l3 1-3 4c-2 3-2 4-2 8 1 7 3 9 6 7 4-2 6-6 6-12 0-4 0-5 2-5l8 3 6 1-3 3-3 4c1 1 9 3 14 3 2 0 5-1 7-3l3-2 7 2c9 3 21 10 25 13 2 3 2 3 1 6-2 5-1 9 1 13l5 4c2 1 3 1 3 5v5l-9-2-18-3h-8v-4c0-5-8-17-11-17-2 0-3 14 0 18 1 3 1 3-1 3l-9-2-8-3 3-3c2-1 4-5 4-8 2-5 3-11 1-11-1 0-12 7-13 9l-1 6-1 5-23-10c-8-4-10-5-12-10l-2-4 3 2 4 3c1 0 4-6 4-9s-7-16-8-16l-5 12-1 3-3-7c-4-10-5-7-1 4l2 8c-2 0-10-10-13-16-3-8-7-13-8-13l-1 4-2 3-4-4c-6-4-6-3-1 2l5 9c1 8 7 14 11 10h2c1 2 0 2-11 2h-11l9 2 14 2c8 3 12 8 12 15 0 5 2 8 6 11s6 3 7 0l1-3 5 3 5 3-10 1c-11 0-27-1-35-3l-13-5-8-4v-5c0-4 0-5-4-9-6-7-7-6-7 1v6l-3-2c-7-5-20-19-21-23a163 163 0 01-1-43c-2 2-4 14-5 27 0 15-1 15-6 5l-7-10-9-12c-5-6-5-7-5-12s0-6-4-12l-5-6c-1-1-3 2-3 10-1 6-1 6 1 9l6 4c5 4 9 12 8 17 0 5 3 12 8 16 4 3 14 16 13 17l-5-2-5-1c-1 0 5 15 7 17l6 1 6-1 12 9c13 13 13 12-3 10l-20-3-43-9c-8-2-8-2-10-6l-4-6c-2-3-9-5-13-5-3 0-3 0-2 2l4 8c2 4 4 5 7 6l32 8 4 2h-5l-9 1c-3 0-4 1-9 5-5 5-5 5-10 4-4 0-6 0-10 2l-7 5c-2 2 5 4 13 4 6 1 7 1 8 3 0 3 2 2 2-4 1-5 5-11 8-12 2-1 3 0 6 3 4 3 4 4 8 4 9 0 10-2 6-8l-2-3 10 1c8 0 10 1 13 3 8 5 9 5 14 4l9-2c3 0 3 0-1 1-7 2-19 7-25 11s-6 4-10 3-6-1-11 1c-7 2-7 4-1 7 7 4 8 5 8 8l5-4 6-8c1-2 9-7 17-10 5-2 8-3 26-3 19 0 20 0 28 2 16 6 28 7 77 10 27 1 50 5 53 7 2 1 2 4 1 22-1 24 0 49 3 74 3 22 3 39 0 80l-2 32-4 6-10 13c-7 7-8 7-13 7l-26 4c-18 2-20 2-27 6-13 6-20 15-25 31l-1 8 5-5 9-7c5-2 18-4 41-5 21-1 26-2 38-7l7-3-2 5c-4 6-4 10-3 15 1 3 4 5 5 5l1-3c0-5 2-6 14-10 11-4 17-7 22-13 3-3 3-3 5-2 4 4 13 7 29 8l26 4a487 487 0 0047 7l-15-13-14-11a568 568 0 0176 19c2 0-5-7-15-15-21-16-47-27-79-33l-15-3a365 365 0 01-7-83l1-85v-57l2-3c2-3 11-9 16-11 4-1 4-1 9 3l8 7 3 1v-4l-2-8v-3h8c7 1 8 1 12 6l5 4h8l9-1-1-3c-2-2-2-2 0-2l33 6c9 2 11 2 17-4 9-6 8-7-3-7-8 0-8 0-11 3l-3 3-13-3-12-4 9-1 23-4 14-2 8 2c9 3 18 8 16 9l-2 2c-1 2-1 3-4 2l-9 2-8 4-3 1 3 5c3 5 6 7 15 8 5 0 6 0 4-4-3-3-2-4 2-5 3-2 6-2 13-1 9 0 9 0 8-2s-1-2 1-2l-1-3c-4-4-20-16-27-19-6-3-7-4-4-4l6-1c3 0 3-1 3-2-1-2 0-3 7-7 8-5 11-7 22-9l7-4c2-1 5-2 13-2l11-1-19-2h-4l8-4 14-7c7-3 16-11 15-13l-14-1c-3 1-4 2-7 6-2 4-5 7-7 7a372 372 0 0128-40c0-1-10-4-14-4-3 0-5 1-8 3l-3 5c0 2 5 4 9 4h5l-11 14-16 18-5 4-5-1c-7-3-11-3-15 2l-4 3 4 2 3 3-7 3-8 4v-6l-3-9-2-3h3l8-6 6-6c0-1-8-2-13-1-4 1-5 2-8 5-3 4-4 4-6 2-6-3-5 0 1 4 7 5 10 9 10 15 0 4 0 5-3 7-2 2-16 7-18 7l1-4 2-5c0-2-4-1-10 1s-9 6-9 10l-17 1c-13-1-23-1-38 1l-21 1c-1-1 2-4 6-6l3-2 2 3 2 3 2-3c2-1 4-4 5-7l5-6c3-3 3-3 4-1 1 5 11-1 13-8 1-3 2-5 5-7l23-13 1 5c2 6 4 6 8 2 3-2 4-4 4-8v-5l10-4c8-2 11-3 14-2a561 561 0 0138 10l-13-7-13-7 4-1c3-1 4 0 7 1 4 3 8 3 15-1l10-4c4 0 6-2 2-3-7-1-7-1 0-4l11-8 8-4c7 0 9-1 14-7 6-8 6-8-3-8-8 1-10 3-13 8-2 5-9 11-16 14s-30 8-45 9a263 263 0 00-21 2c3-2 7-7 8-13s0-7-5-4c-8 4-10 7-10 12 0 4 0 5 2 6l1 1-11 3-8 3v-4c0-3 0-3-2-3l-4 2-2-1c0-5 11-28 19-40 7-12 14-18 27-26l5-2-2 2c-3 5-3 7 3 8 6 0 10-2 15-8 3-2 3-3 2-4l12 1h5l-5-2-12-3-8-1 6-4 7-4 4 3c5 3 8 3 16-1 7-3 6-5-2-8-8-2-9-2-17 3l-19 9-12 6 12-12 18-17c6-5 6-4 12-21 1-2-3-1-10 2s-8 6-8 12c0 3 1 4 3 4s1 1-6 5c-9 6-12 8-18 9h-4l1-3c0-5 0-5-7-2-6 2-10 6-10 9 0 7-11 30-15 30-3 0-10 8-11 14l-5 8-2 4h-6c-6-1-6-1-9 3l-4 5c0 2 4 4 9 4 4 0 4 0 3 5l-2 13c-2 11-6 18-11 23-7 5-26 15-26 13l3-5c4-5 6-10 6-19 1-9 4-16 11-24l5-6c0-3-13 9-17 16-2 2-3 6-3 9-2 13-3 16-13 25-5 5-10 10-13 11-5 4-6 3-6-5l-1-6-6 6c-5 5-6 6-6 10 0 3 0 3-3 5-6 2-8 2-9-1l-8-12c-2 0-2 4-2 12l-1 8-3-3c-2-3-2-18-1-28 0-7 0-7 1-4 3 9 15-2 15-15 0-4-1-4-6-1-3 2-3 2 1-2l14-10 28-16c18-11 18-11 23-10l7-1c3-1 13-10 13-11l-5-1h-5l4-4c4-3 6-4 7-3 4 2 10 1 15-2 9-6 9-7 1-8l-6-1 3-3c2-1 3-4 4-6a213 213 0 0013-28c3-8 6-12 11-15l4-3c0-1-4 0-7 2l-4 2 1-9c2-14 2-23 0-15-1 4-3 6-7 10l-6 5v6c1 5 1 6 4 6s3 0 3 2l-13 25-2-3-1-3-3 4c-3 5-5 8-5 13-1 4-4 8-15 17-13 10-12 9 1-6 5-4 6-6 5-7s0-2 1-4a422 422 0 0011-24l3-5c2-4 2-5 1-9l-2-8c-2-3-2-4 1-8 4-6 2-7-2-1l-4 6-4-6c-4-6-4-6-2-9 1-2 2-5 2-12v-9l6-9c10-14 28-33 46-49 6-6 3-6-4 0a267 267 0 00-57 59c0-4 2-13 4-14 2-3 3-5 4-12l5-15 4-10c-1 0-1-1-6 9l-6 9-1-2-2-3c-2-1-2 0-4 3-3 8-3 11-1 16 2 3 2 4 0 9l-2 12-1 8-6-4-5-5 3-6c3-6 4-13 2-13-3 0-12 7-14 11-2 2-2 3-3 2 0-3 2-9 5-12l4-6V86c0-3-1-3-3-3-2 1-2 1-2-7s0-9 3-12l4-6c1-5-3-17-5-17-1 0-3 2-5 6s-2 6-2 9c3 14 3 14-2 16l-4 2-3-4-5-5c-3-4-6 4-4 12 0 3 1 5 5 8 6 5 10 13 9 18-1 7-9 22-15 29-8 9-14 14-16 14s-2-1-2-10l-1-16v-5l3 2 3 3c2 0 5-7 5-10 0-5-5-16-7-16-3 1-2-3 0-12 3-14 8-20 18-26l4-4-6 2c-2 0-2 0 0-4l7-11c3-7 3-8 3-14-1-9-1-10-5-7-3 3-8 11-8 13l3 7 2 5-3 4-8 10-8 11-3 6V62c0-11 0-11 2-9l4 3c3 2 3 2 5 0 2-4 2-11-2-17-1-3-3-5-4-5l-3 5-2 5V32a82 82 0 012-22V5c-1-5-3-5-6 0zm49 137c-2 4-2 5-1 8 4 8 6 8 10 3l2-8c0-4 0-5 2-6h4c2 1 10 20 12 26 1 3 1 5-1 11l-1 8-3-4c-3-6-5-8-6-8l-4 11c-1 5 0 9 5 12l3 2-3 5-4 7-2 2v-3c0-4-3-12-7-18l-3-6h2c2 0 4-1 5-3 4-3 8-12 7-13-1-2-10 1-14 3l-3 5-2 3-4-4c-6-5-8-5-10-4-4 3-9 11-9 14 0 4 3 10 4 10l5-5c4-4 4-4 4-10v-7l5 6c10 11 15 21 15 32 0 6 0 7-3 11a166 166 0 01-38 34c-6 4-22 14-23 13l3-9 3-10h3l6-1c2-1 6-9 6-10l-7-1h-5v-4c2-8 3-22 3-28v-6l2 2 3 2 3-4c3-4 3-5 3-10l-4-12-4 4c-4 6-4 3 0-7 6-11 11-17 16-19 4-1 6-3 8-5 2-3 5-6 9-8l8-5v4zm-77 5c4 9 9 27 11 38 2 13 1 15-2 9-3-5-5-6-6-3l-5 8-5 9c0 3 0 3-2 2l-3-2c-2 0-7-7-6-9l2-1c3 0 5-6 5-12l-7-14-2 2-6 12c-5 9-6 9-11 12-6 3-6 4 1 2l4-1 4 4 4 3c3-1 10 9 10 14l2 5 2 3a147 147 0 01-37-19l-11-10c-6-5-13-14-13-16s6-1 9 0l9 6c7 5 11 6 15 4l4-1c3 0 4-3 1-5s-7-8-7-10l5-3c7-4 9-7 9-14 0-5 0-5 3-8 4-4 14-10 17-10s3 1 6 5zm-88 46v4l-2-2-4-1-1 8v8l3 3c4 4 9 5 10 2v-7c0-3 0-5 2-6l1-2 2 2 2 1c0-2 1-2 6-2l7 1 1 11-1 10 3 3 3 3-2 2c-3 4-3 4 5 0 3-2 8-4 11-4h4v7c0 12 1 13 6 8 4-4 6-8 6-11l1-3 19 8 1 4c0 1 0 2-2 2-3 0-15 8-15 10 0 3 11 3 18 1 2 0 2 0 1 4l-7 20-4 2c-2 0-5 2-8 5l-6 6 8 1c6 1 7 1 7 3l-3 19-1 5-8-13c-1-4-10-14-13-14-2 0-5-2-43-37-13-11-13-11-11-13 3-3 4-8 2-13l-7-11c-1 0-4 10-4 14 0 3-1 3-5-3l-3-4 2-4c3-5 3-8 0-15l-2-5 4-4c5-4 9-6 13-6s4 0 4 3zm98 21v3c0 5-5 22-5 23-1 0-6-15-6-19l2-7c2-3 2-3 5-2l4 2z"/><path d="M387 210c-4 5-5 6-5 9 0 4 3 10 4 10l5-4c4-5 7-19 3-20l-7 5zM367 209c-3 5-4 10-4 13 1 3 6 9 7 9l3-4c3-5 2-13 0-18-3-4-4-4-6 0zM316 148c-3 3-3 4-4 11l1 7c1 0 10-10 10-12 0-3-3-9-4-9l-4 3zM243 232l-1 10c0 7 0 7 3 9 4 3 8 4 8 1 3-5 0-13-6-19-3-4-4-4-4-1zM264 246l-1 9c0 6 0 6 4 9l6 4c2-1 4-8 3-11s-9-13-10-13l-2 2zM290 253c0 3 5 13 8 15l6 1c4-1 4-1 5-3 0-6-7-12-16-14l-3 1zM333 14c-5 6-6 10-3 15 1 3 3 5 4 5l3-3c3-3 3-4 3-9s-2-13-3-13l-4 5zM308 32l6 13 6 2 6 2c2 0 2 0 1-4l-2-6c-2-5-17-10-17-7zM432 35c-2 5-2 14-1 17l5 4c3 2 3 2 5 1l2-6c0-3 0-5-2-9l-6-7-2-2-1 2zM253 50l-3 7c-1 4 2 12 4 12 3 0 7-6 8-9 0-5-2-14-4-15l-5 5zM472 51c-6 6-6 6-6 11l2 6h5c4-3 6-8 6-16l-1-7-7 6zM420 53c-6 7-7 8-6 14 2 6 4 6 9 2 4-4 4-4 4-12l-1-9-6 5zM226 55c3 12 5 15 11 15 4 0 4-2 3-7-1-3-3-4-7-7-6-4-8-4-7-1zM493 59c-2 1-6 6-6 8 0 3 3 4 7 4 3 0 5-1 10-4 9-7 8-9-3-9l-8 1zM268 66c-4 11-4 14 0 19 4 4 6 4 8-1 2-4 1-9-2-15s-4-7-6-3zM449 72c-6 3-9 5-9 10-1 5 0 6 3 6 4 0 9-4 11-9 5-10 4-12-5-7zM152 80l-2 9v6l4 3 6 3c1 0 3-5 3-9s-7-15-10-15l-1 3zM175 90c-3 4-5 9-5 13 0 3 4 9 6 9 2-1 6-7 6-11 0-5-2-13-3-14l-4 3zM372 95c-3 8-2 11 1 16 4 4 6 4 8 1 2-5 1-11-2-16-4-7-6-7-7-1zM117 103v9l5 4 5 4c1 0 2-4 2-9 0-4-1-6-5-11l-6-6-1 9zM204 96c-2 2-4 13-3 15 0 3 6 9 8 9 1 0 4-7 4-10s-6-15-8-15l-1 1zM241 108l-3 9c0 3 5 11 7 11s4-5 5-10c0-4-3-15-5-17l-4 7zM461 111c-3 8-2 11 3 16 3 3 3 3 4 1 4-4 4-9 3-13-2-6-6-11-7-11l-3 7zM139 108c1 7 3 14 5 15 1 2 8 4 10 4s0-10-1-13c-2-2-12-9-14-9v3zM514 111c-3 1-6 3-7 5-3 2-3 3-3 7v5l4-1c5 0 8-3 11-9 3-5 4-9 2-9l-7 2zM265 116l-6 5v6l2 6c1 2 3 1 7-2 3-4 4-4 4-12l-1-9-6 6zM186 117v8c1 4 1 6 4 8 3 3 7 4 8 1v-10c-2-4-8-11-10-11l-2 4zM487 120c-6 3-9 6-9 11l-4 8c-3 5-4 11-1 14 2 2 2 2 4 1 3-2 5-7 5-12 0-2 1-3 3-5 4-3 7-9 8-15 0-5 0-5-6-2zM452 126c-9 4-11 6-11 13 0 4 0 5 2 5 3 0 8-3 10-5l5-15c0-1-1-1-6 2zM112 126l-1 8c0 7 0 7 3 11 7 5 9 4 9-4 0-4-1-6-4-10-4-6-6-7-7-5zM84 128l4 13c1 3 6 6 10 6 3 0 3 0 3-4 0-6-3-10-11-14-5-3-6-3-6-1zM221 127v17c2 3 6 5 9 5 2 0 2-1 3-5 0-6 0-7-6-14-4-4-5-5-6-3zM279 133c-9 3-9 4-1 8 7 4 12 4 16 0 3-3 3-3 2-5-2-2-7-4-10-4l-7 1zM505 143c-5 6-6 8-4 15 3 5 6 4 10-3 3-5 3-18 0-18l-6 6zM242 149c-5 7-6 10-5 14 2 7 6 7 10 1 3-5 3-20 0-20l-5 5zM486 147c-3 3-6 10-6 13s2 8 4 9c3 2 8-4 8-10 0-4-3-14-4-14l-2 2zM217 156l-2 9c0 4 0 5 4 8l4 4 2-2c3-3 3-10-1-17l-4-6-3 4zM153 157l-1 9c0 4 1 5 4 8l4 4 2-2c3-4 2-10-1-17-5-7-6-8-8-2zM84 158c0 1 9 11 12 12 5 2 10 0 11-3 0-4-3-8-8-9H84zM135 170v5c2 9 6 13 13 13 4 1 4 1 3-3 0-5-2-9-9-13-6-3-6-3-7-2zM64 176c0 2 5 12 7 13l7 2c4 1 5 0 5-2 0-5-3-9-9-12-7-3-10-4-10-1zM171 186c-1 8 1 12 6 15h4c3-4-1-13-7-19l-3-2v6zM462 188c-5 5-6 8-6 13 1 5 3 7 7 5 3-1 5-5 6-10l-2-13-5 5zM41 192c1 3 11 10 14 10s11-3 11-4l-4-4c-4-4-4-4-13-4-7 0-8 0-8 2zM62 215l-6 2 6 3 8 3c3 1 8-1 11-4l2-2-2-3c-4-3-12-3-19 1zM530 216l-3 4c0 2 5 5 9 5 3 0 17-6 17-7l-14-5c-5 0-6 0-9 2zM481 228c-2 1-5 7-5 8l6 1c6 0 6 0 10-5l5-5-7-1c-6 0-8 0-9 2zM134 229c-3 1-3 1-1 3l6 5c5 3 9 4 14 1 4-2 4-4 0-7s-13-4-19-2zM513 234l-3 5 5 3c5 1 10-1 16-5 4-4 4-6-2-6-12-2-13-1-16 3zM192 238c-6 7-8 12-4 18 2 4 5 4 8-2 3-3 3-19 0-19l-4 3zM546 240c-6 4-8 7-8 12 1 4 1 4 3 5 4 0 9-5 11-12l2-7c0-2-3-1-8 2zM504 256c-3 2-4 4-3 5 1 3 6 4 11 3 4-1 13-7 13-8l-12-4c-5 0-5 0-9 4zM88 260l-1 9c0 4 0 5 4 8l5 4c1 0 3-5 3-9l-1-6-8-10-2 4zM389 267l-4 2c0 2 11 8 14 8s8-3 8-5l-3-4c-3-2-9-3-15-1zM425 273c-3 8-3 11 2 16l4 4c2 0 4-9 4-12-1-5-5-13-7-14l-3 5zM38 283c1 5 5 13 7 14 3 1 9 2 11 1 1-1 0-6-2-10l-15-8-1 3zM559 285l-7 2c-7 1-10 5-10 11 0 3 0 3 4 3 6 0 8-1 12-8 5-8 5-10 1-8zM389 288c-3 2-4 3-6 7l-4 9c0 2 0 2 2 1 7-2 14-5 15-8v-10c-2-1-2-1-7 1zM490 288c-8 2-12 6-12 12 0 5 8 6 11 2l9-14h-8zM136 291c-4 11-4 14 2 20 4 4 4 4 6 3 2-4 2-9 0-14-4-9-7-12-8-9zM110 301l-2 8v7l4 4c5 5 8 5 9 1 1-6-1-10-5-16-4-5-5-6-6-4zM585 311l-3 5c0 1 7 4 11 4l15-6c0-1-13-6-16-6s-4 1-7 3zM42 310c-2 0-1 2 2 5 6 7 11 8 17 6 4-1 4-4 0-8-4-3-5-4-11-4l-8 1zM440 316c-7 7-7 9-7 12l3 6c2 2 2 2 4 0l5-4v-17c0-2-1-2-5 3zM464 317l-7 4c-3 2-3 4-3 8 0 5 0 5 3 5 4 0 8-3 11-9 3-7 4-10 2-10l-6 2zM55 332c-9 2-9 4 2 9 5 2 6 2 9 1l6-3c1-2 1-2-1-4-4-5-8-6-16-4zM260 335v15c2 3 8 6 11 6l1-7c0-5 0-5-5-11-6-5-7-6-7-3zM159 344c-8 5-7 7 4 7 5 0 6 0 10-4l3-4c-2-2-7-3-9-3l-8 4zM521 341c-2 0-1 3 2 7 3 3 4 4 8 4l8 1 5-1-5-6c-5-6-6-6-11-6l-7 1zM5 345c-6 1-6 3 1 8 4 3 5 3 9 3s6 0 7-2c3-3 2-5-4-8-5-2-6-2-13-1zM535 367l3 5c1 4 3 5 7 7 8 3 10 3 10 1l-7-13c-3-3-13-3-13 0zM97 377c-4 1-4 4 3 8 6 4 9 4 14 1s5-5 1-8c-4-2-12-3-18-1zM145 382c-9 7-8 9 3 8 7 0 9-1 11-5 4-5 4-7 1-7-7-2-10-1-15 4zM81 399l-7 5c-1 1 5 4 12 5 5 0 6 0 9-3 4-4 4-6 0-7-5-3-6-3-14 0z"/></svg>