<svg version="1.0" xmlns="http://www.w3.org/2000/svg" width="874.7" height="946.7" viewBox="0 0 656 710"><path d="M361 24c-8 11-9 14-4 23l3 9-2 18-5-3c-4-4-6-4-6-1l-1-1c-1-2-1-3 3-7 6-8 6-12 3-25-3-14-3-14-10-5-5 8-8 14-8 18 0 3 0 3-3 1-3-3-3-2-1 2l2 3-2-1c-15-6-19-7-21-9l-3-3c-1 0-3 11-3 17s0 6 5 10l4 4-4 6-4 5-1-4-1-7-5-8c-4-4-17-13-20-13-2 0 0 17 4 25l6 6c6 5 8 9 7 18 0 6 0 7 2 11 3 5 9 10 13 10 1 0 2 1 2 3l1 3-13-5c-9-4-12-6-11-7 4-11 4-15-1-26-6-11-7-12-10-9-2 2-2 2-2-3-1-9-4-19-5-19-2 0-12 14-14 20-2 3-2 3-2 1l4-8 3-9-4-18c-1-1-9 10-11 15-1 4 0 10 4 16 3 6 3 8 0 5l-9-6c-7-4-11-5-11-3l6 21c2 2 2 3-4 9l-8 11c-1 3-1 9 1 14l-4-6c-6-10-8-12-9-10l-6 24 1 5-4-3c-6-7-6-7-9-22l-3-13c-1-1-4 2-9 10l-5 6-2-6c-1-4-12-20-14-20s-4 9-4 20v10l5 5 7 5 3 2c0 3-1 16-3 23-2 11-2 14 5 22l4 5 3-2 2-2v3l1 6c2 5 11 12 13 12a207 207 0 011 32l-3-1c-1-1-2-1-1-6v-10c-2-6-13-17-15-17-1 1-1 0-1-4 0-5-2-10-10-21l-6-9c0-3-2-2-12 0l-8 3v-23c2-7 1-14-2-18l-8-10c-9-10-9-10-10 7 0 16 0 15 14 26 2 1 2 2 3 8l-1 8c-1 2-1 2-1-1l-3-8c-4-7-13-16-15-16-2 1-3 7-3 17 0 6 0 6-1 3l-5-6c-5-3-21-12-22-11s3 16 6 23l5 6 3 2-7 1c-6 0-8 1-8 2l6 8c5 7 11 12 14 12s-2 2-8 3c-4 0-6 0-13-3-10-4-18-7-19-6l5 15 3 6-3-2c-3-2-5-2-15-2-18 0-18 0-7 10 9 10 14 12 20 11l13-6-1-3-2-3 3 1 10 1c6 0 7 0 7-2l-1-5-1-3 6 4c8 5 13 6 21 3l5-2 12 6 11 6c-4-2-25-2-25-1l5 7 5 6h-9l-4-4c-3-6-7-8-18-11-8-2-14-3-14-1s10 18 13 20l5 4 20-1h10l8 1-7 2h-12c-8-1-30 2-30 5 0 1 3 4 8 7l7 6-3 1c-7 1-5 2 3 1 10 0 10 0 1 6l-6 3 9 5 10 4-3 10c-5 12-5 17-2 22l7 8 3 4 2-3 3-3v5c1 4 1 6 4 8l11 8c2-1 5-9 5-15 0-4 0-4 1-2l2 9v10c-1 0-2 0-1 1l2 1 7 4c5 3 7 4 7 2l2-2c1-2 1-2 4 0 3 1 5 5 4 6h-5c-6 0-9 1-19 8l-8 5-1-3c0-8-4-15-13-22-5-3-5-4-6-2l-1-4c0-5 0-7-3-11-6-8-14-17-15-16l-1 10c-1 8-2 9-2 6v-25c1-7 1-9-1-13-1-5-10-18-13-20s-3 0-5 10c-3 12-2 15 0 19 2 3 10 9 13 10 1 1 2 4 2 11 0 10 0 10-1 6-2-7-6-11-12-14-4-2-6-4-8-7-3-4-3-5-3-13v-9l-5-7c-6-9-9-12-11-12-1 0-4 15-4 23 0 4 1 6 3 8l9 9c1 0 2 1 1 2l3 11c4 10 9 17 13 18l7 3 2 3-6-2c-4-1-7-2-8-1l7 18c5 9 8 10 19 10h8l8 7 7 7-7-1-12-4-5-3-19-1c-25-1-37-4-38-9v-2l7 4c5 3 7 3 11 3 5-1 16-6 16-9 0-2-5-7-10-9l-9-2h-4l6-2 7-2c2-2 0-6-5-11s-8-6-23-6c-13 0-13 1-3 10 8 8 11 11 15 11l-5 2-8 2-9-3c-11-4-19-5-19-3l4 9 5 9h-3c-3-2-11-2-21-1l-8 2c0 2 9 10 15 14s13 4 20 0c6-3 7-3 4-7-1-2-1-2 2-2l13 1 15 2c2 1 2 2 1 2l-19-3 2 5 2 5-9 1c-9 0-11 1-22 8l-5 4c1 2 21 8 27 8 3 0 4-1 9-7 6-6 6-6 4-8l4 3 6 5h7c8 0 12-1 12-4l-2-7-3-5 11 3 7 6 4 4-5 2c-5 2-7 3-13 2-7 0-19 2-25 5l-2 2 3 2c8 6 17 11 22 11h5l-8 4c-10 5-10 7 1 10 11 4 17 5 21 3 3-2 11-10 11-13 0-2-10-6-15-6h-6l2-2 6-5 7 3c8 3 12 3 19-1 5-3 7-5 6-7 0-3-9-9-11-9l-1-1c0-2 35-2 38 0 1 1 0 2-3 4l-11 10c-7 7-8 7-6 8h27c3-2 8-8 10-13 1-3 2-3 4-3 4 2 30 4 50 5 40 2 63 5 65 9v7c-2 13-1 55 3 87 2 23 2 32 1 62-3 54-3 49-7 56-3 4-7 10-11 13l-6 7-21 2c-27 4-31 4-39 8-11 6-19 15-24 29-3 10-2 11 3 6 8-9 13-10 44-12a122 122 0 0051-10l-2 5c-4 7-4 14 0 17 3 4 4 4 4 0-1-3-1-4 2-6l11-5c8-2 18-7 22-12l3-3 5 2c7 4 14 6 26 6l24 4 46 8 6 1-5-4a303 303 0 00-28-22l19 3a249 249 0 0160 17l-7-7c-20-19-51-34-84-41-20-3-19-3-21-14-6-33-8-57-5-102V405c1-2 7-8 13-11l4-3 5 4c7 6 18 13 20 13v-20l8 6c8 8 10 8 23 7 15-2 15-2 10-7-3-3-3-3 9-1 10 2 11 2 11 4 0 4 10 7 17 5 4-1 4-1 6 3s7 8 11 9l21 5c2 0 1-3-1-6-3-6-2-6 9-6l13 2c4 0 4 0 4-2-1-2 0-2 8 1l11 3c2 0 2 0 2-3l-6-11c-5-11-7-13-19-14h-8l1 4v4l-3-2c-1-2-6-5-11-7-10-5-10-5-2-6 4-1 5 0 6 1 2 2 11 4 22 5l10-1c0-2-11-15-16-19-3-2-3-3-1-3l11-3c8-3 9-4 9-5-1-2 0-2 7-3 8 0 9-2 1-2l-9-1-5-1 5-2 11-4 9-2c4-2 18-16 18-19l-12-1-12-1 4-5c3-4 7-8 13-12l8-6-18-6h-3l3-2c4-2 9-8 15-16l5-7h-6c-6 0-16 1-20 3s-7 6-9 12c-4 10-9 13-24 14-10 0-12 1-16 3l-16 4h-12l2-3c1-4 1-4 5-2 8 2 15 1 26-7l8-4v2c0 3 2 6 4 6l7-2c5-3 9-7 11-13 2-5 5-19 4-20s-17 8-21 12l-5 7c0 3-1 4-11 1-9-2-16-2-20 1l-4 3 1-4v-3l-9 4-13 9c-4 4-4 4-5 10 0 6-1 8-3 9l-3 2v-6l1-7-7 2-6 3 1-2c1-6 7-18 11-24l5-6 5 1 9-1c4-1 18-14 18-17l-11-1-11-1 6-3c5-5 6-5 5-2 0 3 5 5 13 5 6 0 10-2 20-11 6-5 6-5 10-4l4 1-4 1c-4 1-10 4-14 8-3 4-3 6 0 8 2 1 2 1-2 1s-7 2-11 7c-5 5-6 8-5 9 2 3 11 5 16 5 7-1 26-15 23-17-1-1 1-2 9-6l10-6-16-7-4-3c0-1-7-4-17-6l-8-2 2-1c3-2 3-2 8 0 4 3 6 3 11 3 6-1 19-6 23-9l2-2-4-2c-7-4-17-7-22-7-4 0-10 4-16 10-2 3-15 10-16 9l4-5c5-7 16-17 20-18 5-2 9-8 13-17s5-13 3-13c-3 0-21 8-24 10-3 4-6 13-5 19v4h-1c0-1-7-1-10 1-2 0-2 0-1-3 2-6 1-6-11-2-12 5-16 9-17 16l-1 11c1 3 0 5-1 9-3 6-4 6-4 2-1-3-3-3-5 0l-3 1 3-3c8-6 8-8 9-21 0-12 0-16-2-16l-7 5-5 5 3-7c4-8 4-9 9-13l4-3 4 7c4 9 6 10 11 6 4-4 6-8 6-15 0-3 0-5 1-4 1 6 4 13 5 13 3 0 10-6 12-10 3-4 3-6 3-18v-12l3-6c4-7 9-16 9-19 0-2-2-1-12 2-15 5-18 8-19 21 0 7 0 7 2 7l9-2-6 7c-3 4-6 8-6 10l-1 4-2-8c-2-7-2-7 0-13l5-20c0-2-5-1-14 4l-9 6-1-5c-1-6-9-22-10-22s-6 9-8 17c-2 7-2 7-9 10l-9 7-3 4v-18l8-10 11-13 3-3 4 2c2 2 6 3 7 3l18-6 5-2-4-2-11-5-7-3 4-3 4-3 4 2 10 2c6 0 7 0 13-4 12-9 15-14 11-15l-13-1c-12 0-13 0-16 2l-3 3-1-11-1-11-10 9c-6 6-9 9-10 12 0 4-1 4-12 9l-10 3-4 8-5 7-4-5-3-5 3-3 4-8c1-5 0-5 9 1 2 1 2 1 4-1s3-9 3-14l-3-9c-3-6-12-16-13-16l-2 7c-2 9-2 9-10 17l-9 12 3 15c1 3 1 3 4 3 3-1 3-1 2 2-2 10-7 20-10 20l-1-8c0-17-2-22-6-17-1 2-2 2-2 1l4-7 5-10c1-4 1-5-1-12-2-9-6-16-8-16-1 0-9 15-10 20v8c1 4 1 4-1 6-1 2-2 2-7-4l-6-6 3-2 3-2h-5c-4 2-4 2-3 0l6-6 7-7c2-4 2-5 2-17l-1-14c-2-2-10 6-15 14-5 7-5 12-2 19 4 8 2 6-3-3l-7-12-3-4-1 5-2 4c-2 0 0-5 3-11 3-5 3-6 3-11-1-9-3-15-5-15l-4 4zm-39 53c3 0 2 1-1 9l-3 11c0 6 7 17 11 17 2 0 6-5 8-10 1-3 4-4 5-2l-2 9c-4 13-3 17 5 25 5 4 5 5 5 11s-1 8-3 5c0-2-4-6-7-10l-7-9c0-4-5-13-10-20l-6-7-1 2c-1 1-1 1-1-2l-4-10c-4-10-3-13 1-17 2-3 7-4 10-2zm23 5l1 5 2 9 2 7-2-2c-2-2-3-3-4-2-2 0-6-3-6-5l-2-9-3-7h6c5 0 5 0 6 4zm35 18c-1 14-2 22-4 22l-5-7c-3-7-3-10 0-18 3-5 8-13 9-11v14zm93-2c1 2 0 3-19 23-9 10-11 11-10 8 1-2 1-5-1-9v-8c1-1 1-1 1 3 0 5 1 5 9 2 7-2 12-7 16-16l3-6 1 3zm-223 20l2 3-4 8c-6 13-6 17 0 25 5 7 7 7 12 1 4-7 5-11 2-19l-2-9c-1-1 0-2 3-2l9-3 4-2 6 3c8 3 10 5 10 7 0 4 3 14 5 18l2 4-7 1-7 2 1-14-1-14-17 15c-3 4-3 4-3 11l2 11c2 6 1 12-3 20l-2 5v-10c0-12-1-18-3-18l-7 7-6 6-1-7v-7l-8-9c-9-10-9-9-1-19 6-6 8-11 8-16 0-2 0-2 2-1l4 3zm-69 24l3 3 5-3 3-3v9c0 10 1 12 10 18l6 4-2 6-2 6-4-7c-7-12-10-16-11-13l-5-10-5-11-2 3-2 2v-15l2 4 4 7zm203 2l5 3v2l-17 18-2-3c0-2-1-3-2-3-1 1-2 0-2-6l-1-7 4 3c4 3 5 2 8-5l3-5 4 3zm-58 12c3 6 3 6 0 6l-10 5-14 8c-6 3-9 5-10 8l-2 3-1-3-5-10-3-6 7 3 10 3 16-8 3-2-4-4-4-3h4l5 1-1-7v-6l3 4 6 8zm148 4l1 4c0 2-1 4-7 8-8 6-11 10-11 17 0 6 2 12 3 13l4-1c3-1 3-1 2 1 0 3-6 14-6 14-2 0-3-6-3-16l-3-17-3-8 3-1c8-3 11-7 14-16 1-2 1-2 3-1l3 3zm-153 11c-2 2-2 4-2 13l1 11c1 2 8-4 12-10l3-4 2 3 1 12c1 7 1 9 3 13l3 5-4-3c-3-5-5-6-6-3-1 5-7 16-9 18l-3 2 2-5c2-4 2-7 2-10-1-5-10-23-12-24l-6 10-5 10-4-2-2-3 3-2c11-8 10-8 11-18 0-7 1-9 3-11s8-6 9-5l-2 3zm106 5c2 4 2 4 5 4 5 1 7 4 5 14v9l-3-5c-2-4-2-5-1-8l1-4c-1-1-13 2-20 5-4 2-7 3-9 6l-2 3-1-2-1-6-1-5c0-2-1-2-7 5-8 8-12 13-13 16 0 3-1 1-3-6-2-8-2-10-1-12s1-3 2-2c2 4 16-5 19-12l3-3c3 0 3 1 6 6l5 9 3 2 3-3c4-3 7-9 7-14 0-4 1-4 3 3zm-286 24c3 9 5 14 8 16l1 1-16-7c-5-3-8-12-4-15l5-2h4l2 7zm37 26l-9-2c-13-5-13-5-7-4h5v-6l-1-7 4 2c3 1 3 1 5-1l1-3 1 9 1 12zm224-16l-1 5h11l3 6c3 7 3 11 0 18l-3 9c0 2-8 11-14 15l-11 6c-9 3-12 5-14 11l-7 7-12 7 1-8 3-7h6c9-1 10-2 20-19l4-8 2 4c0 2 1 4 3 4s7-3 11-7c4-3 5-10 5-24 0-11 0-11-12 1l-9 8-7-20 2 4c3 5 4 5 10 1 4-3 8-10 8-14l1-3v4zm-127 7l19 10 3-1c1-1 1-1 2 1l4 8 2 3c-2-1-3-1-6 1l-4 2-5-6-10-11c-6-6-8-8-6-8l1 1zm-81 27c7 3 10 6 10 9l-6 9-5 7-2-4-6-8-4-6-7-4c-6-3-7-4-9-7l-5-8-4-4 15 6 23 10zm68-10l2-2c2-4 3-2 3 8 1 9 1 11 3 14l2 4 2 1 6 3c6 2 5 3 8-5l1-4v3l2 13 3 10 5 9c4 7 9 11 13 11l3 1-8 7-7 7-5-4-5-3-1 2c-1 5-2-5-1-12 2-13 2-16-3-23-7-9-13-15-14-13l-3 25c1 3 6 9 11 12l4 2h-4c-3 0-5-1-14-9-3-3-4-4-2-4 2 1 4-6 4-13s-1-11-10-21c-4-5-4-6-3-9l1-9v-5l3 2 4 2zm203 16l-4 5-1 7v5h-10c-9 1-10 1-13 3-5 5-8 11-8 13 1 2 0 3-3 6l-3 4-4-3c-4-3-5-3-10-3l-13 2-7 2 3-4 10-8 6-4 7 1h10l14-10a176 176 0 0124-16c3-4 4-4 2 0zm-142 9c3 2 4 4 1 4l-10 6c-7 5-9 5-11 4l-2-1 4-6 5-9 2-3 4 2 7 3zm-147 10c2 4 2 10-1 11-1 0-8-3-11-6-4-3-2-5 3-8l6-2 3 5zm41 4l3 4-3 8a90 90 0 00-7 15l-5-4-4-4 4-4c5-5 7-10 7-17 0-5 0-5 5 2zm-70 22l5 6 4-2 4-3-1 6v5l-5 1-8-1c-3-2-3-2-3 0l-9-17 3-1 5-1c0-1 1-1 5 7zm284 2c-4 12-3 15 2 21l4 6-9 6c-6 3-8 4-9 3-1-3-2-2-6 2l-3 4 2-4c5-6 7-13 8-22s3-15 9-21l5-5-3 10zm-39-1l9 6 5 3-4 2c-5 1-8 3-12 10l-13 17c-9 9-10 11-11 19-1 3-3 2-5-2l-6-10-5-6 3-1c5-4 7-7 8-12l2-4h4c4 0 6 0 9-2 6-4 14-13 14-14h-22l-3 1 2-3c3-3 19-8 21-7l4 3zm172 6l4 3-7 2c-6 2-8 3-11 6l-4 4-7-3c-6-3-6-3 1-4l10-5 8-5 6 2zm-149 5v7c-1 5-4 10-9 16s-17 16-18 16l1-6v-5l8-3c5-2 10-5 11-7 3-3 5-10 5-17 0-3 0-4 2-4l1 3zm113 6c18 6 17 6 17 13v5h12l-2 2-2 2-8-3c-10-3-13-3-21 4l-6 5 2 3c4 3 3 9-1 8v-2l-1-5-1-4 11-11c13-13 14-13-6-11-11 0-11 0-15 3l-3 3 3-4 5-8 2-4 14 4zm-337 3c2 1 2 2 2 7s-3 17-4 17l-2-4c-3-6-3-3-1 5 3 9 2 10-1 7-2-2-3-4-3-7l-4-10c-3-6-3-6-1-6s2-1 3-5l1-6 4 1 6 1zm277 10l2 6v7l-5 3-4 2-2-8-1-8 4-3c6-3 6-3 6 0zm34 3l-2 5c0 5 2 6 8 6l5 2c2 2 2 10 0 12-1 2-14 6-15 6l3-7 3-6c0-1-6 0-15 3l-9 2 2-3 3-9c2-6 3-7 7-7 2 0 5-1 7-3 4-3 5-4 3-1zm-292 12c0 4 3 12 5 15l3 2 7-6 6-6 8 2 9 2-7 6c-10 6-14 11-14 15 0 3 0 3-2 3l-11-5-9-4 2-5c3-8 3-12-2-22 0-2 0-2 2-1l3 4zm70 7l11 7-1 8c-2 4-2 8-2 10 1 4 10 14 13 14l2 1c0 1-2 1-11-2l-6-2v-7c0-6-1-8-3-10-3-5-17-18-17-18l-2 7-1 7-5-4-5-4c-2 1-1-2 1-4l14-8 12 5z"/><path d="M143 125l6 24c1 4 9 8 16 8h4v-7l-1-10c-2-3-11-10-20-15l-5-3v3zM77 233c-9 3-18 8-18 9 0 2 17 9 23 10 6 0 9-1 15-7 4-5 4-6-4-10-7-4-9-4-16-2zM41 300c0 2 5 16 8 21s7 7 16 7h7l-1-5c0-9-3-13-15-19-10-5-15-6-15-4zM594 330l-8 5c-5 5-5 6 3 10 5 3 6 3 12 3l15-4 9-5c1-2-2-3-12-7-11-4-15-5-19-2z"/></svg>