<?xml version="1.0" standalone="no"?>
<!DOCTYPE svg PUBLIC "-//W3C//DTD SVG 20010904//EN"
 "http://www.w3.org/TR/2001/REC-SVG-20010904/DTD/svg10.dtd">
<svg version="1.0" xmlns="http://www.w3.org/2000/svg"
 width="1178.000000pt" height="1280.000000pt" viewBox="0 0 1178.000000 1280.000000"
 preserveAspectRatio="xMidYMid meet">
<metadata>
Created by potrace 1.15, written by Peter Selinger 2001-2017
</metadata>
<g transform="translate(0.000000,1280.000000) scale(0.100000,-0.100000)"
fill="#000000" stroke="none">
<path d="M9336 12745 c-31 -49 -30 -81 3 -114 17 -17 17 -23 -1 -176 -10 -88
-21 -161 -23 -164 -3 -2 -16 6 -29 18 l-24 23 -4 -24 c-3 -20 -6 -18 -27 22
-33 63 -92 147 -141 200 -49 53 -47 48 13 -42 25 -37 59 -103 76 -147 32 -84
71 -229 71 -268 l0 -22 -27 25 c-14 13 -48 32 -74 41 -40 14 -50 23 -55 47 -4
17 -15 51 -26 76 l-20 45 -28 -55 c-38 -73 -38 -106 2 -154 l31 -38 15 28 c24
48 39 55 81 38 43 -18 78 -49 98 -87 20 -40 9 -46 -13 -8 -10 17 -21 31 -25
31 -6 0 -39 -117 -39 -139 0 -16 61 -81 76 -81 9 0 14 -12 14 -37 0 -43 -18
-252 -26 -303 l-6 -35 -18 34 c-13 26 -15 43 -9 65 12 40 4 62 -38 114 -37 45
-53 53 -53 25 0 -10 -16 8 -35 40 -24 39 -33 65 -29 80 7 29 -6 61 -46 116
-30 41 -34 43 -46 27 -12 -17 -13 -16 -23 3 -15 28 -68 191 -76 234 -9 48 1
88 31 120 29 31 78 36 124 12 17 -9 30 -13 30 -11 0 12 -61 36 -90 36 -28 0
-30 3 -32 38 -1 20 -1 51 1 69 2 31 -41 113 -59 113 -8 0 -20 -50 -20 -87 0
-25 46 -76 61 -67 5 3 9 -10 9 -29 0 -24 -8 -41 -30 -62 -34 -32 -55 -94 -46
-134 6 -25 6 -25 -9 -7 -14 19 -16 19 -28 2 -12 -16 -17 -13 -58 40 -67 88
-66 86 -25 78 l36 -6 0 40 c0 25 -8 49 -21 66 -22 28 -107 82 -115 73 -13 -12
20 -123 50 -171 76 -119 106 -183 106 -223 0 -35 6 -46 40 -77 32 -29 120
-176 120 -201 0 -3 -19 7 -42 23 -59 40 -129 75 -218 106 -180 65 -266 155
-305 318 -20 85 -19 114 7 148 12 16 21 43 20 60 -1 44 -12 90 -21 90 -14 0
-61 -79 -61 -103 0 -12 6 -31 14 -42 7 -11 16 -54 19 -95 10 -124 46 -208 121
-287 41 -44 42 -52 3 -31 -31 16 -96 27 -103 17 -3 -5 -15 -9 -27 -9 -19 0
-18 -3 13 -35 19 -20 45 -38 58 -42 28 -7 82 15 82 33 0 15 18 10 95 -25 22
-10 73 -33 113 -52 40 -18 68 -35 63 -38 -6 -4 -5 -31 5 -74 17 -73 33 -91 92
-103 39 -8 48 8 33 64 -9 32 -21 47 -61 72 -28 18 -50 34 -50 37 0 5 25 -10
75 -44 52 -35 148 -142 170 -189 30 -64 30 -64 5 -64 -29 0 -87 -32 -144 -79
-26 -23 -52 -41 -58 -41 -5 0 -7 -4 -4 -9 6 -10 -49 -61 -65 -61 -13 0 -45
-74 -54 -122 -4 -21 -3 -38 1 -38 20 0 114 62 125 82 7 12 9 41 6 69 -6 48 -5
49 39 86 60 51 122 83 159 83 30 0 32 -3 68 -100 53 -143 88 -283 93 -375 l5
-80 -29 48 c-41 68 -48 73 -56 41 -4 -15 -28 -50 -53 -78 -40 -44 -44 -54 -39
-85 l5 -34 -29 28 c-17 16 -30 25 -30 19 0 -5 -16 8 -35 29 -29 31 -33 42 -25
57 6 11 17 17 24 14 9 -4 21 6 31 27 22 42 15 95 -20 155 l-27 46 -19 -41
c-10 -22 -32 -61 -48 -85 -17 -25 -35 -55 -40 -68 -6 -16 -25 -29 -60 -42 -64
-23 -62 -30 2 -11 l47 14 27 -40 c18 -28 29 -37 37 -29 17 17 22 12 60 -44 23
-35 36 -66 36 -87 0 -22 9 -43 28 -62 22 -25 23 -29 7 -23 -11 5 -44 16 -73
27 -104 36 -260 118 -267 139 -4 11 -30 38 -58 59 -69 52 -134 121 -158 168
-10 20 -19 39 -19 40 0 2 15 3 34 3 50 0 97 -19 136 -56 42 -39 122 -74 128
-56 2 7 21 15 43 18 47 8 49 16 9 44 -16 12 -37 35 -45 53 -9 18 -28 48 -44
66 l-29 35 -12 -56 c-9 -40 -19 -59 -34 -66 -39 -17 -48 -3 -21 32 14 18 25
42 25 52 0 11 9 37 20 59 11 22 20 47 20 57 0 27 -59 140 -70 133 -15 -9 -41
-101 -38 -137 1 -22 -6 -44 -21 -65 -23 -30 -24 -48 -6 -95 5 -12 -3 -13 -47
-5 -29 5 -58 11 -65 13 -8 2 0 22 22 54 40 60 75 162 81 240 4 51 3 50 -16
-28 -36 -156 -109 -254 -214 -288 -69 -23 -238 -109 -276 -140 l-30 -26 0 96
0 96 24 -16 c24 -15 25 -14 40 15 23 43 19 89 -10 141 -20 35 -24 53 -20 82
14 84 80 258 150 391 l74 142 -4 74 c-2 41 -7 77 -10 80 -3 3 -26 -16 -50 -42
-49 -55 -57 -94 -28 -148 15 -30 16 -30 35 -13 34 31 20 5 -57 -104 -85 -120
-149 -243 -198 -381 l-33 -95 -22 50 c-38 85 -72 138 -81 124 -6 -10 -13 -9
-32 6 -13 10 -25 21 -26 24 -1 3 -9 30 -18 60 -9 30 -21 64 -26 74 -10 19 -11
19 -24 1 -8 -10 -17 -15 -21 -11 -5 4 -8 59 -7 122 0 62 -1 112 -3 110 -12
-12 -20 -157 -11 -218 5 -39 6 -74 1 -77 -4 -3 -7 -15 -7 -26 1 -11 2 -28 3
-37 1 -9 13 -31 28 -48 l27 -33 21 27 21 27 27 -21 c25 -20 27 -25 21 -75 -6
-50 -5 -54 30 -91 29 -32 37 -36 45 -24 16 24 26 2 24 -53 -1 -29 -3 -116 -5
-193 l-3 -142 -35 18 c-45 22 -144 56 -346 119 -208 65 -268 107 -268 185 0
40 77 177 82 145 4 -22 46 -26 86 -8 20 10 86 111 86 133 0 10 -79 -1 -93 -12
-39 -30 -43 -23 -39 63 3 61 0 96 -13 134 -22 67 -27 62 -9 -9 19 -72 17 -124
-5 -188 -17 -50 -99 -181 -113 -182 -4 0 -9 9 -13 19 -11 34 -82 89 -137 106
-29 8 -87 18 -128 20 l-75 5 80 -14 c112 -18 152 -33 196 -73 45 -41 64 -96
54 -159 -5 -37 -2 -46 23 -76 47 -53 168 -115 385 -198 111 -42 229 -91 262
-108 56 -28 63 -36 98 -104 49 -97 149 -230 253 -338 46 -48 84 -89 84 -92 0
-3 -16 -9 -35 -12 -19 -4 -49 -13 -67 -20 l-32 -14 37 -22 c21 -12 36 -24 34
-26 -2 -3 -33 2 -67 10 -74 17 -140 60 -245 158 -71 66 -72 69 -78 125 -7 81
-39 160 -89 220 -24 29 -47 52 -51 52 -5 1 -21 9 -35 19 -15 11 -53 29 -85 42
-45 19 -63 33 -79 62 -26 45 -32 48 -135 63 l-83 12 45 -46 c25 -25 45 -49 45
-53 0 -4 -24 -8 -54 -8 -29 0 -73 -3 -98 -6 -44 -6 -44 -6 -63 36 -10 22 -28
46 -39 52 -24 13 -128 39 -134 33 -8 -7 52 -107 76 -125 l23 -19 -28 -4 c-15
-2 29 -5 98 -6 206 -2 369 -40 456 -107 43 -33 103 -153 103 -206 0 -21 -2
-38 -4 -38 -2 0 -47 21 -100 46 -73 34 -100 52 -107 71 -9 24 -10 25 -23 8
-12 -17 -16 -17 -78 0 -58 15 -70 23 -100 64 -19 25 -51 55 -71 66 -33 17 -43
18 -103 8 -36 -6 -68 -14 -71 -17 -9 -8 36 -42 90 -70 l49 -25 -39 -6 c-61
-11 -115 -26 -110 -31 2 -3 24 0 48 5 24 6 65 11 92 11 43 0 47 -2 47 -25 0
-19 -8 -28 -35 -39 -19 -8 -35 -19 -35 -24 0 -13 97 -52 129 -52 15 0 42 13
61 30 l35 30 -22 19 c-24 20 -30 41 -13 41 5 0 28 -7 50 -16 40 -16 49 -27 31
-39 -23 -13 -22 -65 0 -105 13 -22 26 -40 30 -40 18 0 59 69 59 98 0 18 3 32
7 32 4 0 40 -19 80 -42 69 -39 74 -45 109 -117 21 -42 46 -88 56 -103 19 -27
19 -28 1 -28 -54 0 -92 13 -97 34 -6 23 -93 122 -101 115 -2 -3 -5 -32 -7 -66
l-3 -61 -95 -5 c-52 -3 -107 -9 -122 -12 -19 -5 -28 -3 -28 4 0 7 -12 38 -27
69 l-27 57 -22 -50 c-33 -72 -31 -117 6 -157 l30 -33 20 25 c11 14 20 33 20
43 0 26 41 37 143 37 85 0 95 -2 136 -30 48 -33 71 -38 71 -16 0 24 12 25 95
9 89 -16 95 -19 109 -65 10 -29 65 -78 88 -78 6 0 12 9 15 21 6 21 19 21 78
-1 31 -12 31 -15 -1 -53 -22 -26 -25 -38 -21 -75 3 -24 12 -51 21 -60 15 -15
19 -14 49 16 28 29 32 39 32 87 0 30 2 55 5 55 11 -1 154 -40 157 -44 2 -2
-12 -14 -32 -26 -20 -12 -33 -26 -28 -31 14 -14 123 -38 141 -32 9 3 29 17 44
31 l27 25 78 -28 c102 -36 159 -65 207 -107 38 -33 39 -36 28 -68 -20 -57 -15
-95 18 -130 23 -25 33 -30 44 -21 11 9 14 1 20 -45 4 -31 4 -59 2 -61 -3 -3
-26 2 -53 10 -68 23 -157 37 -225 37 l-58 0 0 44 c0 38 -7 53 -47 102 -45 56
-48 57 -54 33 -4 -13 -7 -48 -8 -78 -1 -43 4 -60 21 -78 l22 -23 -35 5 c-75
13 -179 38 -179 44 1 3 15 15 32 26 33 21 50 58 62 133 l6 44 -39 -22 c-83
-47 -96 -63 -95 -119 0 -28 -1 -51 -3 -51 -11 0 -190 78 -246 108 -65 34 -70
39 -106 111 -21 42 -48 102 -61 133 -37 90 -34 61 4 -46 l34 -96 -26 19 c-51
37 -106 101 -110 128 -3 28 -62 133 -73 133 -4 0 -11 -16 -16 -36 l-8 -35 -45
37 -45 38 42 -45 c34 -36 41 -50 40 -81 -1 -29 6 -45 28 -68 32 -33 50 -38 63
-15 7 13 11 12 30 -8 l22 -24 -112 3 -113 3 80 -9 c132 -15 172 -28 210 -69
30 -31 35 -43 35 -86 0 -57 17 -88 60 -110 39 -20 47 -19 54 9 l6 25 56 -34
c31 -19 59 -37 63 -41 3 -3 -70 -4 -164 -1 -194 5 -280 21 -396 74 l-76 35 4
43 c5 40 2 46 -37 89 -23 25 -46 46 -51 46 -5 0 -9 -27 -9 -61 l0 -61 -42 34
c-91 70 -176 162 -188 203 -21 68 -24 260 -6 339 20 85 15 98 -8 18 -24 -85
-37 -207 -30 -282 l5 -65 -34 39 c-20 22 -38 52 -41 68 -5 27 -29 57 -58 74
-8 5 -43 49 -77 98 -58 85 -61 92 -55 135 5 42 2 51 -37 110 -40 60 -43 62
-51 41 -5 -13 -11 -50 -15 -82 -6 -57 -5 -59 31 -93 20 -19 42 -32 49 -29 8 3
26 -23 49 -71 28 -58 33 -75 21 -75 -18 0 -12 -30 17 -97 13 -29 26 -44 44
-49 18 -4 44 -32 85 -94 l58 -87 -49 19 c-26 10 -53 18 -58 18 -10 0 19 -83
42 -120 14 -22 38 -31 90 -34 30 -1 33 2 30 24 -3 21 7 14 56 -40 33 -36 87
-87 121 -114 33 -27 59 -51 56 -54 -6 -7 -228 19 -240 28 -5 4 -41 10 -80 13
-100 8 -398 70 -469 97 -15 5 -27 20 -31 39 -10 45 -48 77 -115 94 -33 8 -60
11 -60 6 0 -21 51 -109 72 -123 12 -9 36 -16 53 -16 25 0 239 -62 310 -89 13
-5 -7 -10 -62 -15 -46 -4 -87 -5 -93 -1 -5 3 -10 0 -10 -7 0 -7 -22 -32 -50
-56 -41 -36 -53 -41 -69 -32 -11 5 -29 10 -41 10 -27 0 -142 -58 -136 -69 3
-4 33 -16 66 -26 49 -15 68 -16 91 -8 27 11 29 10 38 -20 9 -31 9 -31 11 13 1
60 27 110 69 134 l33 19 35 -41 c32 -39 38 -42 84 -42 33 0 51 5 55 14 6 17
-20 72 -38 80 -7 3 35 4 95 2 107 -4 107 -4 147 -40 44 -40 63 -43 117 -21 41
17 81 19 103 5 12 -8 9 -10 -12 -10 -65 0 -251 -83 -295 -132 -14 -15 -18 -15
-48 -1 -30 14 -38 14 -99 -2 -37 -10 -65 -23 -63 -29 2 -6 31 -24 65 -41 55
-27 61 -33 57 -55 l-5 -25 15 26 c8 15 31 36 50 48 26 15 35 26 31 39 -8 24
77 78 173 111 70 23 91 25 251 25 157 0 181 -2 231 -22 130 -52 310 -76 639
-87 242 -8 486 -37 563 -67 24 -9 28 -15 22 -37 -3 -14 -9 -123 -12 -242 -6
-231 4 -401 39 -679 22 -179 22 -179 -8 -690 l-17 -275 -35 -55 c-19 -30 -64
-85 -100 -122 -55 -58 -70 -68 -99 -68 -68 0 -389 -40 -439 -55 -71 -21 -165
-85 -212 -144 -26 -33 -50 -82 -71 -142 -17 -51 -29 -94 -28 -96 2 -1 25 22
51 52 38 44 57 58 99 70 59 17 274 35 417 35 111 0 195 18 286 61 36 16 70 29
75 27 5 -2 -5 -23 -21 -48 -37 -56 -42 -128 -10 -160 28 -28 37 -25 32 13 -5
42 15 56 119 87 96 28 162 64 205 112 l35 39 30 -22 c52 -36 146 -60 259 -66
67 -3 147 -15 220 -33 105 -26 278 -58 404 -75 46 -6 49 -6 36 10 -12 14 -185
147 -270 208 l-25 17 30 -4 c295 -47 526 -103 641 -156 37 -16 69 -28 71 -26
8 8 -135 130 -212 181 -204 135 -485 237 -742 271 -35 4 -54 12 -58 23 -12 39
-55 317 -66 431 -11 122 -10 233 10 690 4 91 3 339 -2 552 l-9 388 22 27 c35
46 98 91 150 108 l49 16 33 -34 c18 -19 51 -45 72 -57 l39 -23 -7 39 c-4 21
-9 51 -12 67 l-6 27 86 0 c67 0 86 -3 86 -14 0 -8 16 -28 35 -45 37 -32 57
-36 139 -25 l47 7 -22 23 c-18 19 -19 24 -7 24 41 0 305 -42 321 -50 9 -6 37
-13 60 -16 40 -6 48 -3 97 38 30 24 54 48 54 53 1 6 -33 11 -74 13 -74 3 -75
3 -102 -29 l-27 -32 -63 17 c-35 9 -94 25 -133 35 l-70 19 60 6 c126 14 203
27 298 48 l97 21 79 -26 c44 -14 101 -39 127 -56 l48 -30 -27 -6 c-21 -6 -26
-12 -22 -25 5 -16 1 -18 -35 -13 -32 5 -48 1 -70 -15 -16 -12 -47 -24 -69 -28
-23 -4 -41 -8 -41 -11 0 -22 46 -86 68 -94 35 -14 124 -30 130 -25 2 3 -5 18
-17 35 l-22 30 48 21 c44 20 54 21 121 10 41 -6 76 -9 79 -7 2 3 -3 18 -13 33
-18 27 -18 27 4 15 42 -23 21 -2 -80 80 -57 45 -134 97 -173 115 l-69 32 67 7
c65 7 67 8 52 25 -16 17 -11 22 81 76 54 31 105 57 113 57 26 -1 150 40 145
48 -8 14 39 21 134 20 52 0 92 2 89 6 -4 3 -57 9 -118 12 l-111 6 99 58 c55
31 112 57 127 57 18 0 43 15 76 46 28 26 50 51 50 55 0 10 -120 12 -145 3 -9
-4 -25 -25 -37 -48 -11 -22 -21 -42 -22 -43 -1 -1 -19 -10 -41 -19 -38 -16
-38 -15 -24 4 73 101 152 217 179 262 18 30 47 67 64 81 l30 27 -54 16 c-79
24 -103 21 -139 -16 -17 -17 -31 -35 -31 -40 0 -4 14 -15 31 -24 31 -16 64
-15 104 2 24 10 -123 -173 -226 -280 l-76 -80 -56 23 c-66 27 -91 23 -131 -18
l-29 -30 31 -18 c18 -10 32 -21 32 -24 0 -5 -133 -69 -144 -69 -2 0 -6 24 -8
53 -3 34 -13 66 -27 85 l-22 32 27 0 c20 0 42 15 83 58 l56 57 -47 3 c-77 5
-126 -13 -145 -53 -18 -39 -26 -41 -63 -20 -58 33 -40 12 21 -25 50 -30 70
-48 84 -79 21 -48 15 -108 -14 -132 -21 -17 -181 -73 -188 -65 -2 2 5 22 16
45 12 22 21 43 21 46 0 16 -114 -17 -142 -42 -9 -8 -20 -29 -24 -46 l-6 -30
-162 6 c-88 3 -206 2 -261 -3 -253 -23 -285 -24 -285 -7 0 9 21 28 46 43 l46
27 19 -24 18 -24 25 24 c14 13 29 39 32 58 5 24 17 41 43 58 43 30 51 31 51 5
0 -26 19 -25 61 3 25 16 37 34 44 65 12 47 25 58 178 147 l92 53 11 -45 c17
-67 27 -72 69 -30 30 30 35 42 35 80 l0 45 97 33 c93 31 100 32 156 20 33 -7
116 -32 185 -56 70 -24 128 -43 129 -41 3 3 -187 95 -242 117 l-30 12 59 12
c53 12 60 11 77 -6 30 -30 88 -25 137 11 29 21 54 30 79 30 21 0 45 5 53 10
11 7 6 10 -20 10 -32 0 -71 15 -60 22 3 2 31 16 63 31 31 15 77 45 101 67 37
34 50 40 87 40 25 0 54 7 67 15 21 16 82 97 82 110 0 9 -104 -3 -135 -15 -13
-5 -31 -29 -43 -58 -25 -57 -93 -110 -182 -141 -67 -23 -322 -71 -380 -71 -82
0 -256 -32 -330 -61 -41 -16 -78 -29 -82 -29 -4 0 -4 16 -1 35 6 40 4 41 -38
19 -17 -8 -34 -13 -37 -9 -12 11 57 186 109 280 94 169 151 240 242 299 45 30
92 57 105 61 l22 6 -21 -36 c-12 -20 -19 -39 -15 -42 3 -3 27 -8 54 -11 45 -4
50 -2 100 43 29 26 51 50 48 52 -3 3 -20 9 -38 13 -32 8 -31 8 13 9 43 1 116
-10 164 -23 11 -4 0 3 -25 15 -31 15 -71 23 -133 27 l-89 5 76 43 75 44 37
-25 c20 -14 46 -25 57 -25 23 0 137 50 137 60 0 12 -100 50 -130 50 -15 0 -38
-9 -51 -19 -31 -24 -339 -175 -345 -169 -6 7 198 202 284 272 40 32 71 61 68
63 -2 2 9 34 24 71 16 37 27 68 25 71 -9 9 -127 -43 -140 -63 -8 -11 -15 -40
-15 -63 0 -49 11 -53 61 -27 51 26 44 9 -8 -21 -26 -15 -75 -47 -109 -70 -33
-23 -78 -45 -100 -48 -21 -4 -51 -9 -66 -13 l-28 -6 15 36 c18 42 14 43 -57
16 -63 -25 -88 -51 -88 -94 0 -71 -120 -298 -140 -266 -11 18 -100 -90 -100
-121 0 -10 -14 -41 -30 -68 l-31 -49 -57 5 c-57 5 -59 5 -90 -31 -18 -20 -32
-41 -32 -47 0 -16 53 -31 93 -26 42 6 42 5 23 -50 -8 -22 -19 -79 -25 -126
-12 -103 -35 -151 -96 -205 -43 -38 -190 -121 -243 -137 -21 -6 -21 -3 12 43
52 71 68 118 70 197 2 88 28 144 105 228 38 41 46 54 26 40 -42 -29 -122 -116
-137 -148 -6 -14 -15 -25 -19 -25 -4 0 -10 -35 -14 -77 -5 -53 -14 -91 -30
-118 -29 -50 -145 -162 -210 -204 l-50 -32 -5 72 -5 72 -52 -50 c-47 -43 -53
-54 -53 -89 0 -39 -2 -41 -47 -57 -63 -22 -73 -22 -73 6 0 12 -17 45 -37 72
-36 49 -37 49 -44 25 -11 -40 -10 -109 2 -132 9 -16 8 -23 -2 -29 -44 -28 -71
36 -72 171 -1 93 23 243 30 190 9 -67 11 -70 41 -59 46 18 71 49 82 105 18 85
13 90 -47 50 -29 -19 -53 -31 -53 -27 0 17 81 91 122 112 69 35 275 157 388
230 105 68 106 68 148 57 54 -14 85 -1 143 58 l43 44 -47 0 c-26 0 -47 4 -47
9 0 5 19 24 43 44 42 34 44 35 77 20 19 -8 48 -12 64 -9 36 8 130 76 119 87
-5 5 -37 12 -71 15 -34 4 -59 11 -56 16 3 5 12 7 20 4 18 -7 64 54 64 83 0 13
9 35 19 49 29 41 80 145 101 207 26 75 52 109 102 134 24 11 37 21 30 21 -18
0 -53 -19 -79 -43 -13 -11 -23 -18 -23 -15 0 2 7 49 15 104 8 54 14 117 14
139 l-1 40 -9 -49 c-5 -30 -15 -53 -25 -59 -9 -5 -34 -25 -56 -45 -37 -33 -39
-38 -36 -86 3 -54 14 -61 61 -41 16 7 15 1 -6 -57 -27 -70 -65 -147 -96 -192
l-20 -29 -13 33 -14 33 -34 -53 c-23 -35 -34 -65 -34 -91 -1 -28 -9 -46 -31
-69 -31 -33 -131 -115 -200 -166 l-40 -29 39 50 c22 28 66 77 99 109 46 47 55
61 44 68 -13 7 -11 16 13 60 15 29 38 85 51 125 12 39 27 71 32 70 16 -3 57
64 57 93 0 31 -29 122 -42 131 -4 3 5 26 22 52 42 66 28 59 -17 -8 l-36 -56
-13 31 c-7 16 -25 46 -40 65 l-26 34 22 28 c18 24 21 38 19 110 l-3 83 56 82
c76 112 213 264 339 378 181 162 154 151 -41 -17 -199 -173 -360 -356 -412
-471 -11 -24 -21 -42 -23 -40 -5 4 13 145 21 170 3 10 9 18 14 18 18 0 40 59
40 105 0 34 12 70 50 148 58 116 42 105 -20 -14 -23 -44 -45 -79 -49 -79 -5 0
-14 14 -21 30 -7 17 -16 30 -20 30 -8 0 -34 -66 -46 -113 -5 -21 -1 -36 15
-58 21 -28 21 -31 6 -84 -9 -30 -19 -90 -23 -134 l-7 -79 -57 52 -57 52 24 50
c27 54 42 124 28 124 -5 0 -33 -15 -63 -32 -41 -25 -57 -41 -65 -65 -9 -31
-35 -47 -35 -20 2 39 29 109 48 123 38 26 53 68 47 127 -10 79 -12 83 -35 62
-20 -18 -20 -17 -20 84 0 56 4 100 9 97 11 -7 37 22 51 58 12 31 -6 113 -33
149 -12 17 -15 14 -40 -37 -27 -56 -35 -110 -17 -121 6 -3 10 -31 10 -60 0
-44 -3 -53 -15 -49 -8 3 -25 -5 -38 -19 l-25 -24 -41 54 c-23 29 -46 53 -50
53 -21 0 -29 -117 -11 -151 6 -11 28 -30 50 -44 29 -18 43 -37 59 -80 12 -31
21 -63 21 -73 0 -25 -63 -173 -91 -214 -41 -59 -191 -214 -196 -201 -2 7 -11
9 -19 6 -12 -4 -14 15 -14 120 0 68 -3 140 -6 158 l-7 34 36 -34 35 -33 16 24
c31 47 30 81 -3 146 -17 34 -33 62 -36 62 -3 0 -12 -15 -20 -32 l-14 -33 5 50
c25 213 74 316 179 372 64 35 68 43 8 18 -20 -8 -38 -14 -39 -12 -2 2 7 19 21
39 13 20 36 61 51 92 15 31 30 59 35 62 10 6 10 107 0 143 -6 24 -7 24 -39
-13 -56 -64 -65 -83 -58 -122 4 -19 16 -44 27 -55 16 -16 18 -23 8 -42 -20
-37 -60 -90 -107 -138 -24 -26 -57 -73 -72 -105 l-29 -59 -1 266 c0 223 3 271
16 298 15 29 14 55 -2 114 -8 26 -16 21 -48 -28z m386 -787 l-9 -33 -13 27
c-12 25 -11 31 6 49 23 26 30 9 16 -43z m-26 -395 c-10 -10 -19 5 -10 18 6 11
8 11 12 0 2 -7 1 -15 -2 -18z m99 -74 c-19 -41 -19 -41 4 -85 13 -24 27 -44
32 -44 4 0 19 14 34 32 23 27 26 39 23 79 l-5 47 40 4 c33 3 41 0 45 -16 3
-11 27 -62 54 -114 54 -106 58 -136 32 -243 l-16 -67 -36 69 c-19 38 -39 66
-42 62 -12 -13 -40 -105 -40 -131 0 -30 64 -97 82 -86 16 10 -48 -105 -73
-131 -19 -19 -19 -19 -19 13 0 42 -30 118 -68 175 -38 54 -38 57 -11 57 35 0
58 19 89 73 39 69 39 80 -2 72 -69 -15 -117 -42 -124 -72 -11 -45 -13 -45 -62
-2 -73 64 -71 64 -125 -3 -51 -65 -54 -85 -22 -147 l12 -24 39 36 c38 35 39
37 38 101 -1 36 1 66 5 66 24 0 134 -142 168 -217 28 -60 37 -147 20 -206 -11
-42 -224 -249 -284 -277 -26 -12 -61 -38 -78 -56 -25 -29 -234 -159 -241 -151
-2 2 11 46 28 100 l31 97 34 0 c48 0 70 14 93 61 24 47 17 53 -55 47 -25 -2
-45 -3 -45 -3 0 0 7 36 15 80 8 44 15 130 15 190 l1 110 22 -28 23 -27 21 22
c41 46 45 62 27 138 -8 38 -19 70 -22 70 -4 0 -20 -21 -37 -47 -33 -53 -45
-41 -24 25 30 93 127 233 157 226 25 -7 81 32 88 61 5 19 23 34 66 56 32 16
66 38 76 49 27 32 38 7 17 -41z m-1466 -396 c-13 -16 -25 -29 -25 -31 -1 -1
-14 3 -30 9 l-29 11 40 18 c59 27 73 25 44 -7z m-55 -39 c12 -5 13 -10 5 -25
-5 -11 -7 -30 -3 -42 l6 -22 -24 23 c-13 12 -27 22 -30 22 -11 0 -18 -118 -9
-142 11 -28 75 -73 90 -63 16 9 25 74 14 98 -8 18 -5 26 18 45 l27 22 11 -27
c6 -16 10 -19 8 -7 -4 19 0 20 57 16 94 -5 89 1 81 -107 l-7 -95 30 -28 31
-29 -22 -23 -22 -23 32 22 c18 12 37 19 43 16 5 -3 10 -2 10 4 0 12 63 31 103
31 25 0 27 -2 16 -21 -11 -21 -5 -124 10 -147 4 -7 22 8 49 41 30 38 42 61 42
85 0 39 1 39 115 -10 83 -36 81 -34 89 -74 7 -29 5 -30 -21 -27 -22 4 -43 -6
-93 -43 -62 -46 -64 -48 -40 -55 39 -11 148 -10 155 1 3 6 11 10 17 10 17 0
-1 -89 -28 -140 -13 -25 -27 -60 -30 -77 -6 -30 -10 -33 -41 -33 -28 0 -43 -9
-86 -52 l-52 -53 73 -3 c63 -3 72 -5 68 -20 -13 -43 -26 -141 -26 -189 0 -29
-4 -53 -9 -53 -16 0 -81 110 -81 137 0 35 -108 143 -121 121 -6 -10 -22 0 -61
38 -29 28 -107 97 -173 154 -180 156 -316 282 -310 288 3 3 14 -3 24 -12 19
-17 20 -17 35 13 9 16 16 42 16 57 0 30 -59 146 -70 139 -4 -3 -15 -33 -25
-68 -14 -53 -15 -68 -4 -88 11 -22 11 -23 -4 -10 -10 7 -33 35 -53 62 l-35 48
22 31 c28 37 28 81 0 144 l-21 47 38 35 c61 56 119 76 166 58z m2331 -86 c-6
-20 -96 -110 -102 -104 -2 2 4 24 13 50 13 37 24 51 48 62 43 18 48 17 41 -8z
m-1424 -117 c16 21 16 19 7 -37 -5 -32 -20 -101 -35 -152 l-26 -93 -28 71
c-38 99 -41 157 -9 196 l25 31 25 -19 c24 -19 24 -19 41 3z m-406 -98 c0 -5
-23 -11 -50 -14 -28 -4 -60 -9 -72 -13 -19 -6 -21 -4 -19 21 2 16 9 28 17 28
8 0 15 10 17 22 l3 23 52 -30 c29 -16 52 -33 52 -37z m-1565 -163 c0 -5 -8
-10 -17 -10 -15 0 -16 2 -3 10 19 12 20 12 20 0z m1160 -445 c26 -27 21 -29
-44 -18 l-39 6 24 18 c31 24 31 24 59 -6z"/>
<path d="M9479 10846 c-27 -59 -30 -70 -19 -95 6 -16 22 -39 35 -51 l23 -21
21 34 c11 19 21 48 21 65 0 31 -25 108 -41 126 -5 5 -22 -20 -40 -58z"/>
<path d="M9680 10862 c-34 -33 -50 -56 -50 -74 0 -32 19 -88 31 -88 22 0 71
58 79 95 13 53 12 115 0 115 -6 0 -33 -22 -60 -48z"/>
<path d="M8346 10643 c-7 -48 -8 -107 0 -127 9 -23 74 -60 85 -49 5 5 12 26
16 46 6 40 -24 102 -70 145 l-24 23 -7 -38z"/>
<path d="M8547 10552 c-11 -19 -17 -121 -8 -144 8 -22 66 -68 84 -68 14 0 28
76 19 101 -12 32 -89 122 -95 111z"/>
<path d="M8785 10459 c15 -48 54 -117 70 -123 9 -3 34 -6 56 -6 33 0 39 3 39
20 0 57 -54 103 -147 126 -23 6 -25 5 -18 -17z"/>
<path d="M9177 12673 c-49 -72 -52 -86 -27 -137 12 -25 25 -46 30 -46 21 0 60
63 60 96 0 43 -20 124 -30 124 -4 0 -19 -17 -33 -37z"/>
<path d="M3306 12545 c-10 -88 -24 -198 -30 -244 l-11 -85 -34 82 c-41 101
-111 213 -175 283 -54 59 -54 57 15 -48 65 -100 139 -313 139 -400 l0 -26 -22
20 c-30 27 -82 53 -107 53 -20 0 -61 -43 -61 -64 0 -6 9 4 20 22 24 39 40 40
96 7 91 -53 103 -125 77 -437 -10 -115 -20 -208 -23 -208 -3 0 -13 17 -22 38
-34 72 -141 258 -211 365 -51 79 -79 135 -102 206 -47 142 -49 163 -26 216 27
61 58 75 120 53 37 -14 42 -14 26 -2 -11 8 -37 17 -58 21 -27 4 -37 10 -33 20
3 8 1 11 -4 8 -6 -3 -10 -11 -10 -17 0 -6 -16 -28 -35 -49 -31 -34 -35 -46
-35 -92 0 -29 6 -77 14 -107 8 -30 13 -56 12 -58 -2 -1 -16 17 -31 40 -42 64
-175 238 -182 238 -3 0 1 -10 9 -22 37 -56 152 -265 212 -386 l67 -134 -43 30
c-59 40 -129 74 -218 106 -41 15 -96 39 -123 53 -105 58 -177 174 -202 329
l-15 89 6 -78 c9 -133 63 -262 133 -319 l26 -21 -30 6 c-16 4 -41 9 -55 12
-14 3 13 -9 60 -28 264 -103 358 -155 450 -246 49 -48 85 -94 99 -125 11 -27
21 -50 21 -52 0 -2 -17 -8 -37 -13 -21 -6 -60 -29 -88 -51 -27 -22 -63 -49
-80 -60 -16 -11 -26 -20 -22 -20 5 0 -6 -19 -24 -42 -18 -24 -37 -50 -43 -58
-6 -8 27 24 74 71 90 91 180 147 219 134 23 -7 63 -103 106 -253 41 -143 52
-232 44 -348 -7 -87 -49 -289 -66 -317 -3 -5 -18 23 -33 62 -42 106 -106 208
-175 277 -73 74 -102 83 -171 55 -52 -21 -40 -29 15 -10 47 17 86 -4 137 -73
39 -54 104 -176 104 -197 0 -21 -280 101 -367 160 -35 24 -43 27 -28 10 10
-12 56 -45 102 -72 46 -28 83 -51 83 -52 0 -1 -27 -3 -61 -5 -70 -3 -147 -32
-181 -70 l-23 -25 35 25 c50 36 93 48 174 48 83 0 148 -16 231 -56 54 -26 60
-33 72 -74 7 -25 16 -74 19 -110 5 -57 3 -71 -20 -115 -33 -63 -96 -324 -103
-427 -3 -43 -9 -78 -12 -78 -4 0 -22 26 -41 58 -42 72 -211 241 -400 402 -196
167 -355 329 -419 425 -44 68 -52 85 -48 116 11 86 132 199 212 199 55 0 102
-32 132 -89 13 -24 23 -39 23 -32 0 19 -36 84 -57 103 -10 9 -33 23 -52 31
l-33 14 54 21 c29 11 69 23 89 26 48 8 134 -9 194 -39 28 -14 41 -18 30 -9
-39 31 -94 54 -152 63 -32 5 -61 7 -65 4 -15 -8 -8 8 16 40 57 76 90 177 100
302 l6 70 -15 -80 c-20 -103 -31 -137 -68 -208 -39 -75 -78 -108 -168 -142
-86 -33 -252 -119 -269 -140 -24 -30 -30 -13 -30 88 0 238 61 459 195 710 36
66 64 121 62 123 -1 1 -40 -50 -86 -115 -97 -133 -173 -274 -222 -413 l-34
-97 -29 55 c-19 36 -59 82 -112 130 -105 96 -119 128 -118 269 1 80 -1 93 -9
65 -14 -53 -4 -209 16 -247 20 -37 17 -39 -21 -17 -31 19 -30 18 81 -68 75
-58 116 -112 148 -197 25 -66 25 -68 10 -196 -8 -66 -9 -119 -3 -157 5 -32 7
-58 4 -58 -2 0 -43 15 -91 34 -47 19 -162 58 -256 86 -93 29 -186 60 -206 71
-55 28 -99 83 -99 125 0 59 59 154 148 235 59 55 55 57 -11 6 l-37 -29 11 29
c18 46 16 162 -5 221 -22 66 -31 64 -11 -3 33 -108 11 -210 -69 -323 l-44 -63
-20 35 c-41 70 -156 117 -277 115 l-60 -2 75 -8 c186 -20 259 -84 260 -228 0
-59 2 -66 33 -95 46 -43 213 -124 382 -186 77 -28 178 -69 225 -91 l85 -40 40
-77 c60 -117 173 -259 332 -418 78 -79 140 -144 137 -144 -20 0 -292 53 -312
61 -45 17 -145 95 -209 162 -53 55 -63 71 -63 100 0 58 -38 159 -81 217 -46
61 -41 58 -222 141 -70 32 -155 72 -188 89 -97 49 -79 28 26 -29 52 -29 95
-54 95 -55 0 0 -51 1 -112 2 -103 3 -248 -9 -314 -27 -13 -3 35 -7 108 -7 203
-1 339 -30 441 -96 41 -26 56 -44 83 -102 22 -46 34 -85 34 -113 l0 -43 -80
40 c-108 54 -242 98 -335 110 -88 11 -132 31 -138 62 -4 23 -4 23 -6 1 0 -12
10 -30 24 -41 l25 -19 -50 -7 c-28 -4 -60 -11 -73 -16 -16 -8 -11 -9 23 -4 91
13 198 6 267 -16 85 -28 233 -98 297 -142 42 -28 51 -41 66 -90 9 -31 27 -70
40 -88 12 -17 21 -32 19 -34 -2 -2 -38 1 -79 5 -177 18 -367 7 -386 -22 -3 -6
4 -5 17 2 37 20 204 14 364 -14 123 -21 147 -29 194 -60 71 -47 183 -87 411
-147 222 -58 268 -73 342 -112 126 -67 174 -147 194 -327 7 -60 6 -64 -12 -57
-74 29 -185 48 -334 55 -185 10 -243 24 -431 106 -171 75 -184 85 -228 173
-21 42 -48 103 -61 134 -37 91 -34 60 5 -48 19 -55 35 -101 35 -103 0 -2 -51
43 -112 100 -62 57 -133 121 -157 143 -50 46 71 -94 133 -153 20 -19 36 -37
36 -40 0 -4 -51 -5 -112 -5 l-113 2 90 -8 c151 -12 160 -17 268 -133 70 -75
113 -113 159 -138 l63 -34 -85 -3 c-104 -4 -285 13 -365 33 -131 34 -281 121
-430 251 -59 51 -74 71 -89 116 -26 77 -32 225 -12 327 8 47 14 86 12 89 -2 2
-14 -39 -26 -90 -17 -72 -21 -117 -18 -202 l3 -108 -40 44 c-22 25 -85 110
-140 191 -55 80 -101 144 -103 143 -9 -10 187 -373 246 -455 76 -108 199 -241
272 -297 27 -21 48 -39 46 -41 -6 -6 -186 16 -346 43 -189 31 -426 85 -499
113 -30 11 -56 19 -58 17 -9 -9 238 -97 317 -113 32 -6 29 -8 -47 -24 -94 -20
-127 -36 -167 -78 -26 -27 -30 -40 -32 -93 l-3 -63 7 52 c13 94 64 135 191
153 87 12 223 1 406 -34 97 -19 114 -25 90 -30 -140 -33 -250 -89 -311 -159
-34 -40 -74 -108 -74 -124 1 -4 10 9 21 31 50 94 165 171 305 201 110 25 355
17 439 -14 131 -49 384 -81 636 -81 122 0 397 -30 512 -56 l69 -16 -6 -42 c-3
-22 -8 -131 -12 -241 -6 -207 6 -399 43 -704 15 -127 16 -167 5 -389 -7 -136
-18 -314 -23 -397 l-11 -150 -43 -65 c-24 -36 -68 -88 -97 -117 l-53 -52 -220
-25 c-243 -27 -294 -40 -375 -94 -83 -56 -132 -124 -169 -233 -17 -51 -29 -94
-28 -95 2 -2 26 23 55 55 49 56 56 60 123 76 44 10 156 19 297 25 239 9 288
18 385 67 69 34 84 28 51 -21 -46 -67 -43 -150 6 -176 17 -9 18 -7 13 24 -7
43 13 58 127 92 101 30 156 61 198 108 l31 35 58 -29 c75 -37 136 -51 253 -55
55 -2 137 -14 195 -29 181 -45 455 -91 455 -77 0 9 -149 126 -233 183 -44 30
-63 48 -50 48 25 0 269 -44 358 -64 108 -25 234 -65 303 -97 l63 -28 -22 27
c-80 102 -294 239 -506 323 -94 37 -314 95 -399 104 -34 4 -67 11 -73 15 -14
8 -53 211 -72 370 -17 141 -17 411 0 717 12 210 12 313 2 619 l-12 366 27 35
c62 81 182 129 344 136 89 5 153 -1 415 -39 171 -24 324 -46 340 -49 60 -10
-9 12 -170 55 -88 24 -164 47 -170 52 -5 4 10 8 34 8 61 0 255 30 329 50 48
14 73 16 100 8 75 -19 150 -53 247 -113 111 -68 145 -88 145 -82 0 2 -48 42
-107 89 -109 86 -148 110 -210 132 l-35 12 179 101 c214 121 260 137 405 138
132 0 99 15 -39 18 -51 1 -93 3 -93 3 0 1 74 46 165 99 91 54 164 99 162 101
-2 2 -60 -21 -130 -50 -125 -53 -148 -58 -106 -20 18 16 190 269 214 314 13
25 -7 2 -110 -125 -118 -146 -218 -249 -266 -276 -20 -12 -87 -42 -150 -69
l-114 -48 -3 36 c-6 85 -35 128 -113 167 -69 35 -74 31 -9 -8 69 -42 100 -86
100 -143 0 -55 -18 -74 -96 -104 -122 -46 -186 -54 -404 -52 -118 1 -276 -5
-374 -14 -119 -11 -172 -12 -179 -5 -7 7 -7 14 -2 20 6 5 133 90 283 190 291
193 420 263 583 316 100 32 102 32 163 19 33 -8 111 -32 171 -53 61 -21 119
-41 130 -45 30 -10 -162 86 -220 110 l-50 21 55 11 c73 15 280 42 333 43 52 1
40 5 -38 14 l-60 7 56 23 c97 39 177 101 205 160 14 27 14 28 0 10 -53 -69
-121 -113 -217 -141 -67 -20 -249 -51 -344 -59 -141 -11 -266 -35 -339 -64
-129 -51 -156 -49 -156 11 0 43 72 221 129 315 110 185 162 242 285 309 97 53
240 70 341 39 60 -18 70 -13 16 8 -54 22 -166 40 -197 33 -42 -11 -20 9 61 55
41 24 73 44 71 46 -2 3 -72 -30 -156 -72 -84 -42 -154 -74 -156 -72 -6 5 199
203 276 266 85 70 93 79 45 51 -98 -57 -279 -187 -377 -269 -60 -50 -108 -89
-108 -86 0 2 20 57 45 121 25 64 44 119 42 121 -2 2 -34 -65 -71 -149 -53
-119 -78 -164 -115 -203 -67 -72 -123 -149 -169 -234 l-40 -74 -22 39 c-11 22
-18 30 -15 19 24 -71 25 -86 11 -137 -9 -29 -19 -87 -24 -129 -17 -138 -73
-203 -249 -289 -56 -28 -105 -50 -108 -50 -4 0 9 21 28 48 59 81 70 111 72
194 3 95 26 146 104 230 31 34 47 56 35 50 -29 -15 -141 -137 -149 -161 -3
-12 -11 -21 -16 -21 -5 0 -9 -28 -9 -62 -1 -82 -24 -133 -96 -208 -103 -108
-146 -135 -315 -194 -85 -30 -169 -59 -187 -66 -18 -7 -38 -10 -46 -7 -33 13
-48 208 -25 319 27 127 63 163 289 294 102 59 226 134 275 167 314 209 516
428 595 644 37 103 60 137 108 163 20 10 30 19 22 20 -9 0 -32 -12 -53 -26
l-38 -25 6 23 c12 56 25 157 24 198 -1 35 -4 24 -15 -45 -45 -292 -152 -484
-376 -672 -152 -127 -185 -146 -112 -63 35 41 119 170 152 237 48 95 72 194
72 298 0 86 2 94 34 148 40 67 31 68 -11 2 -28 -45 -43 -56 -43 -32 0 7 -15
35 -34 63 -47 69 -52 104 -27 185 39 126 181 311 399 521 140 134 137 135 -14
5 -195 -167 -369 -366 -418 -478 l-14 -34 -1 45 c-1 90 45 239 126 405 59 121
26 77 -42 -56 -97 -189 -136 -346 -116 -462 6 -36 30 -101 56 -152 55 -110 58
-156 17 -296 -26 -87 -105 -249 -123 -249 -3 0 -9 22 -11 49 -3 27 -17 75 -32
105 -28 56 -161 208 -200 227 -12 6 -2 -6 21 -28 62 -56 138 -163 162 -228 23
-60 27 -120 12 -173 -20 -68 -195 -237 -372 -358 -97 -67 -229 -140 -229 -127
0 4 16 60 35 123 63 205 77 294 80 508 l3 193 31 62 c16 34 62 103 102 152 39
50 90 117 112 150 60 91 106 135 139 135 34 0 90 -35 112 -70 22 -36 20 -6 -4
39 -27 54 -74 91 -116 91 -19 0 -34 1 -34 3 0 1 9 45 20 97 15 74 20 135 20
273 0 111 -4 177 -10 177 -6 0 -10 -28 -10 -65 0 -69 -18 -212 -30 -234 -5 -9
-13 -4 -28 20 -11 19 -37 50 -57 69 l-36 35 45 -67 c60 -90 66 -132 31 -223
-37 -99 -69 -150 -145 -230 -36 -38 -82 -88 -101 -111 l-36 -40 -10 205 c-9
167 -8 224 3 301 35 233 77 325 171 375 61 32 65 43 8 19 l-38 -16 19 29 c38
56 74 136 73 162 -1 25 -1 25 -8 -4 -16 -62 -59 -128 -153 -233 -26 -30 -48
-57 -48 -62 0 -4 -8 -25 -17 -46 -18 -39 -18 -36 -23 241 l-5 280 -19 -160z"/>
<path d="M8950 12507 c0 -20 46 -111 62 -124 8 -7 37 -16 63 -20 l48 -6 -6 38
c-3 21 -16 48 -28 61 -26 28 -139 69 -139 51z"/>
<path d="M9410 12475 c-6 -17 -16 -51 -23 -78 -9 -42 -8 -51 9 -74 11 -14 29
-32 41 -40 20 -14 23 -12 37 16 22 42 20 74 -9 129 -41 79 -42 80 -55 47z"/>
<path d="M10080 12421 c-8 -50 -9 -75 -1 -90 14 -26 68 -64 81 -56 16 10 27
68 19 97 -7 27 -69 117 -81 118 -3 0 -11 -31 -18 -69z"/>
<path d="M2871 12464 c0 -11 3 -14 6 -6 3 7 2 16 -1 19 -3 4 -6 -2 -5 -13z"/>
<path d="M8457 12358 c-60 -81 -62 -117 -11 -186 7 -10 44 22 58 51 13 29 14
44 5 93 -6 33 -14 63 -19 67 -4 5 -19 -6 -33 -25z"/>
<path d="M10463 12336 c-61 -57 -68 -71 -53 -126 12 -45 26 -49 63 -19 33 25
49 79 45 144 l-3 50 -52 -49z"/>
<path d="M9971 12296 c-28 -30 -51 -61 -51 -68 0 -20 20 -88 26 -88 22 0 68
38 80 65 15 37 19 145 5 145 -4 0 -31 -24 -60 -54z"/>
<path d="M8190 12302 c0 -24 32 -111 45 -122 8 -6 30 -16 50 -20 34 -8 35 -7
35 24 0 42 -20 69 -76 100 -51 29 -54 30 -54 18z"/>
<path d="M10633 12238 c-11 -13 -26 -33 -32 -46 -11 -20 -9 -23 14 -32 39 -15
66 -12 100 9 45 29 95 77 88 85 -3 3 -39 6 -78 6 -61 0 -74 -3 -92 -22z"/>
<path d="M8571 12156 c-12 -37 -21 -73 -21 -80 0 -15 58 -86 70 -86 15 0 40
56 40 87 0 29 -27 94 -53 128 -14 18 -16 15 -36 -49z"/>
<path d="M10300 12162 c-8 -2 -38 -15 -67 -29 -54 -25 -73 -55 -73 -115 0 -28
2 -29 33 -23 51 10 80 37 105 100 25 62 25 75 2 67z"/>
<path d="M7516 12082 c-4 -7 -10 -43 -13 -80 l-6 -68 37 -32 c21 -18 41 -30
46 -27 5 3 15 23 21 44 9 32 8 44 -5 73 -25 52 -71 104 -80 90z"/>
<path d="M10394 12026 l-28 -23 28 -18 c15 -10 39 -18 54 -17 32 1 102 29 102
41 0 11 -79 41 -107 41 -12 0 -34 -11 -49 -24z"/>
<path d="M7715 11947 c-44 -67 -48 -101 -16 -146 23 -31 24 -32 43 -14 35 31
46 69 36 125 -18 98 -20 99 -63 35z"/>
<path d="M9537 11927 c-26 -81 -23 -108 18 -147 34 -33 35 -33 50 -14 28 37
28 78 2 130 -47 91 -51 93 -70 31z"/>
<path d="M1591 11914 c0 -11 3 -14 6 -6 3 7 2 16 -1 19 -3 4 -6 -2 -5 -13z"/>
<path d="M7192 11851 l3 -83 42 -35 42 -35 12 40 c16 56 6 87 -52 146 l-49 51
2 -84z"/>
<path d="M7977 11875 c-26 -74 -22 -108 14 -145 17 -17 36 -29 43 -27 6 2 17
22 25 44 13 37 13 45 -3 80 -10 22 -28 52 -40 68 l-23 29 -16 -49z"/>
<path d="M8331 11799 c-35 -74 -35 -96 5 -144 l25 -30 20 24 c37 45 37 96 0
176 l-19 40 -31 -66z"/>
<path d="M10375 11829 c-44 -123 -44 -135 -1 -185 l33 -39 22 35 c27 46 27 71
-5 134 -31 62 -42 74 -49 55z"/>
<path d="M7394 11794 c21 -113 37 -137 104 -150 l32 -6 0 45 c0 51 -21 77 -99
124 l-44 26 7 -39z"/>
<path d="M10880 11784 c-105 -35 -130 -58 -130 -124 0 -34 14 -38 69 -19 31
11 67 59 90 122 11 28 6 32 -29 21z"/>
<path d="M8551 11732 l-54 -51 6 -52 c4 -28 9 -54 12 -58 9 -9 56 21 77 50 15
20 18 39 16 93 l-3 69 -54 -51z"/>
<path d="M7836 11753 c-3 -3 -6 -39 -6 -79 0 -66 2 -74 26 -93 58 -46 84 -37
84 31 0 27 -10 48 -40 86 -43 55 -54 65 -64 55z"/>
<path d="M10590 11689 c-61 -37 -80 -60 -80 -98 -1 -25 -10 -47 -30 -71 -32
-36 -39 -84 -20 -121 14 -25 26 -24 55 6 20 19 25 34 25 75 0 27 4 50 9 50 26
0 69 53 80 97 7 27 14 56 17 66 7 23 -13 22 -56 -4z"/>
<path d="M10246 11628 c-61 -34 -76 -56 -76 -114 0 -29 4 -34 23 -34 12 0 36
9 54 20 25 15 36 32 52 86 12 36 21 68 21 70 0 9 -18 2 -74 -28z"/>
<path d="M7134 11593 c-4 -31 -3 -68 2 -82 8 -23 66 -71 85 -71 15 0 28 70 18
97 -11 29 -78 113 -89 113 -5 0 -12 -25 -16 -57z"/>
<path d="M8140 11562 c0 -75 2 -82 26 -101 29 -22 63 -36 71 -27 3 3 8 25 10
49 5 40 2 48 -38 97 -64 78 -69 76 -69 -18z"/>
<path d="M6894 11595 c14 -75 37 -117 72 -131 55 -23 74 -19 74 16 0 52 -25
84 -91 120 l-62 33 7 -38z"/>
<path d="M8656 11561 c-55 -19 -53 -22 32 -65 57 -29 76 -28 125 6 35 25 34
34 -5 58 -40 24 -86 24 -152 1z"/>
<path d="M10774 11498 c-57 -59 -65 -78 -54 -119 17 -58 24 -64 54 -44 49 33
69 108 48 183 -7 22 -8 21 -48 -20z"/>
<path d="M8342 11425 c-58 -66 -66 -109 -29 -159 13 -18 15 -18 39 -2 44 29
58 93 39 180 l-6 30 -43 -49z"/>
<path d="M9017 11432 c-24 -25 -27 -36 -27 -92 l0 -64 40 39 c22 21 43 47 46
57 6 20 -13 88 -25 88 -4 0 -19 -13 -34 -28z"/>
<path d="M10560 11408 c-35 -62 -37 -91 -10 -136 24 -39 37 -38 68 9 18 26 22
42 17 69 -10 58 -28 110 -36 110 -5 0 -22 -24 -39 -52z"/>
<path d="M8124 11389 c-8 -13 -34 -109 -34 -126 0 -17 59 -83 74 -83 17 0 36
44 36 82 0 25 -53 138 -65 138 -2 0 -7 -5 -11 -11z"/>
<path d="M7522 11339 c-19 -79 -15 -98 22 -135 19 -19 39 -34 45 -34 14 0 31
43 31 79 0 26 -66 141 -80 141 -4 0 -12 -23 -18 -51z"/>
<path d="M6922 11308 c54 -65 79 -81 120 -73 56 11 62 18 44 54 -23 43 -63 61
-137 61 l-62 0 35 -42z"/>
<path d="M7355 11208 c22 -99 51 -134 115 -140 34 -3 35 -2 32 32 -1 19 -9 45
-18 57 -13 21 -108 83 -127 83 -5 0 -5 -14 -2 -32z"/>
<path d="M6705 11178 c13 -40 46 -107 59 -117 7 -6 34 -14 60 -17 45 -7 46 -6
46 20 0 61 -42 99 -148 131 -22 6 -23 5 -17 -17z"/>
<path d="M7001 11139 c-25 -5 -49 -10 -55 -12 -18 -6 100 -87 127 -87 15 0 42
7 61 17 30 14 33 19 25 35 -13 25 -69 58 -94 57 -11 -1 -40 -5 -64 -10z"/>
<path d="M7685 11078 c-8 -66 5 -97 54 -123 26 -13 30 -13 35 1 16 43 6 80
-38 129 l-44 50 -7 -57z"/>
<path d="M10356 11060 c-48 -52 -54 -73 -35 -129 14 -39 32 -39 70 -2 27 27
29 35 29 105 0 42 -4 76 -9 76 -4 0 -29 -22 -55 -50z"/>
<path d="M6490 11041 c0 -15 91 -91 116 -97 12 -3 41 3 64 13 l43 18 -35 38
c-35 36 -37 37 -112 37 -42 0 -76 -4 -76 -9z"/>
<path d="M6690 10823 l-55 -25 55 -26 c74 -35 112 -34 150 3 l31 30 -26 22
c-35 30 -85 29 -155 -4z"/>
<path d="M11005 10823 c-48 -43 -49 -51 -13 -73 44 -27 62 -25 138 11 l65 32
-45 20 c-63 28 -120 32 -145 10z"/>
<path d="M10547 10709 c-16 -9 -47 -65 -47 -84 0 -9 81 -5 100 5 10 5 32 28
50 50 l32 40 -59 0 c-32 0 -66 -5 -76 -11z"/>
<path d="M7362 10690 c-18 -4 -35 -9 -37 -11 -2 -3 22 -23 53 -47 62 -46 97
-50 148 -17 20 13 22 18 12 34 -28 45 -94 61 -176 41z"/>
<path d="M10837 10648 c-15 -19 -27 -40 -27 -46 0 -6 18 -17 40 -23 34 -10 46
-10 73 3 49 24 109 75 97 83 -6 4 -44 9 -84 12 l-73 6 -26 -35z"/>
<path d="M7879 10598 c-63 -76 -67 -94 -37 -155 15 -31 31 -29 62 8 22 26 26
40 25 92 0 34 -4 70 -8 80 -6 17 -12 13 -42 -25z"/>
<path d="M11155 10598 c-77 -39 -100 -75 -89 -133 6 -32 7 -33 37 -24 42 11
74 49 87 102 6 23 13 50 16 60 7 22 -2 21 -51 -5z"/>
<path d="M10756 10450 c-40 -36 -45 -54 -17 -70 37 -19 85 -11 144 26 31 19
57 37 57 39 0 5 -60 21 -111 30 -31 6 -41 2 -73 -25z"/>
<path d="M10578 10424 c-60 -30 -80 -61 -76 -111 3 -35 5 -38 32 -36 16 1 40
12 53 24 31 30 68 150 46 149 -5 -1 -29 -12 -55 -26z"/>
<path d="M6921 10390 c-19 -89 -15 -103 43 -148 l30 -23 13 23 c23 42 16 89
-22 146 -20 28 -40 52 -44 52 -5 0 -14 -23 -20 -50z"/>
<path d="M8036 10361 c-14 -32 -26 -67 -26 -77 0 -19 45 -94 56 -94 12 0 43
46 49 73 7 28 -31 157 -45 157 -4 0 -19 -26 -34 -59z"/>
<path d="M9695 10336 l-39 -11 29 -21 c17 -12 45 -29 63 -38 30 -16 35 -16 67
0 49 23 52 34 21 61 -30 26 -76 29 -141 9z"/>
<path d="M10022 10275 c-25 -74 -21 -94 26 -139 l30 -28 16 30 c9 17 16 46 16
64 0 32 -46 138 -60 138 -4 0 -17 -29 -28 -65z"/>
<path d="M9444 10220 c-24 -9 -54 -47 -54 -66 0 -7 14 -15 30 -19 33 -7 77 15
119 59 24 25 24 26 4 26 -11 0 -33 2 -49 5 -16 2 -39 0 -50 -5z"/>
<path d="M6466 10193 c13 -53 43 -112 61 -121 27 -15 92 -21 99 -10 3 5 -1 29
-11 54 -15 39 -24 47 -80 74 -34 16 -66 30 -69 30 -4 0 -3 -12 0 -27z"/>
<path d="M11210 10166 c-67 -19 -87 -32 -99 -67 -19 -54 -15 -69 19 -69 49 0
79 21 115 81 19 31 35 59 35 63 0 8 -17 6 -70 -8z"/>
<path d="M9690 10142 c-28 -13 -40 -30 -62 -82 -14 -36 -25 -66 -24 -68 7 -7
120 42 137 59 13 13 19 33 19 64 0 52 -12 57 -70 27z"/>
<path d="M10627 10149 c-66 -16 -93 -35 -105 -77 -17 -57 -16 -60 32 -63 24
-2 42 -1 40 3 -3 4 4 12 15 17 17 10 81 108 81 125 0 8 -14 6 -63 -5z"/>
<path d="M7352 10079 c-19 -80 -16 -98 24 -135 19 -19 39 -34 43 -34 12 0 31
48 31 78 0 27 -64 142 -79 142 -4 0 -13 -23 -19 -51z"/>
<path d="M7116 9993 c-12 -93 -9 -109 31 -142 45 -37 59 -39 67 -8 14 53 6 85
-34 135 -21 28 -43 53 -48 56 -5 3 -12 -15 -16 -41z"/>
<path d="M11540 9963 c-19 -7 -70 -54 -70 -65 0 -14 58 -38 92 -38 18 0 58 12
88 26 l55 26 -55 23 c-70 29 -92 34 -110 28z"/>
<path d="M7817 9909 c-25 -76 -22 -100 16 -137 18 -18 36 -32 40 -32 11 0 37
57 37 81 0 23 -58 139 -70 139 -4 0 -14 -23 -23 -51z"/>
<path d="M6490 9941 c0 -5 21 -30 46 -55 48 -49 82 -58 138 -36 34 13 33 25
-8 66 -32 32 -38 34 -105 34 -39 0 -71 -4 -71 -9z"/>
<path d="M10153 9877 c-56 -59 -62 -77 -38 -133 16 -39 30 -37 73 9 20 22 23
32 20 102 l-3 77 -52 -55z"/>
<path d="M10386 9880 c-72 -28 -96 -55 -96 -107 0 -37 3 -43 20 -43 55 0 93
40 125 131 16 45 16 44 -49 19z"/>
<path d="M6608 9743 c-32 -8 -55 -19 -52 -24 11 -18 110 -69 134 -69 14 0 40
9 58 20 27 17 31 23 23 39 -11 20 -70 52 -93 50 -7 -1 -39 -8 -70 -16z"/>
<path d="M8500 9660 c0 -62 3 -74 24 -95 25 -25 72 -42 83 -31 4 3 6 26 6 51
0 41 -4 51 -48 95 -27 28 -53 50 -57 50 -4 0 -8 -32 -8 -70z"/>
<path d="M7584 9637 c-26 -18 -49 -38 -51 -44 -2 -5 13 -13 34 -17 74 -12 89
-8 124 31 l32 37 -29 13 c-44 18 -58 16 -110 -20z"/>
<path d="M10918 9663 c-25 -6 -22 -24 11 -63 27 -33 32 -35 107 -38 l79 -4
-20 23 c-67 81 -78 89 -119 88 -23 -1 -49 -3 -58 -6z"/>
<path d="M6165 9623 c-53 -7 -59 -11 -44 -30 28 -34 93 -73 121 -73 16 0 42 7
59 15 25 14 28 19 19 36 -6 11 -26 29 -43 39 -31 19 -49 21 -112 13z"/>
<path d="M11040 9430 c0 -24 30 -79 51 -94 27 -18 118 -50 125 -43 9 9 -48
118 -70 132 -23 17 -106 20 -106 5z"/>
<path d="M7020 9328 c-19 -5 -38 -13 -42 -17 -4 -4 18 -24 50 -44 63 -42 91
-43 143 -6 25 17 28 24 18 36 -34 40 -97 52 -169 31z"/>
<path d="M7446 9280 c-31 -29 -56 -57 -56 -61 0 -12 113 -11 144 1 23 8 74 86
63 96 -2 2 -24 7 -50 10 -44 6 -47 5 -101 -46z"/>
<path d="M6895 9136 c-53 -21 -105 -49 -105 -57 0 -13 128 -49 148 -42 24 8
72 54 72 69 0 9 -72 47 -83 43 -1 0 -15 -6 -32 -13z"/>
<path d="M9331 6415 c-28 -42 -51 -88 -51 -101 0 -27 31 -93 54 -117 13 -12
12 -37 -7 -201 -12 -102 -25 -186 -29 -186 -5 0 -8 6 -8 13 0 8 -24 61 -53
119 l-53 105 43 47 c24 27 45 62 49 81 6 36 -18 176 -40 229 l-13 31 -55 -85
c-62 -95 -79 -138 -71 -172 l6 -23 -28 25 c-24 21 -21 15 15 -39 72 -108 135
-272 154 -404 l7 -48 -41 30 c-24 17 -58 34 -78 37 -29 6 -39 3 -54 -16 -27
-33 -22 -46 6 -14 22 26 25 27 56 14 43 -18 87 -56 105 -91 20 -37 19 -214 0
-409 -8 -80 -15 -149 -15 -155 0 -5 -32 49 -71 120 -39 72 -74 134 -79 138 -4
5 -6 35 -3 66 6 68 -4 95 -77 194 -53 71 -70 82 -70 44 0 -51 -15 -33 -43 50
-38 117 -44 171 -23 211 23 44 58 65 98 58 l33 -5 -35 11 c-19 6 -36 12 -37
13 -1 0 4 21 11 46 8 25 12 56 9 70 -5 27 -82 140 -99 146 -6 2 -15 -24 -22
-60 -20 -108 -18 -120 34 -166 l46 -40 -26 -31 c-45 -54 -52 -98 -30 -190 11
-44 17 -77 13 -73 -24 26 -130 176 -126 179 2 3 16 0 30 -5 33 -13 37 -7 37
53 -1 72 -28 126 -86 168 -63 45 -144 92 -150 86 -8 -9 27 -183 44 -218 10
-20 33 -43 53 -54 40 -21 38 -19 155 -238 46 -86 84 -169 84 -183 0 -14 -2
-25 -4 -25 -2 0 -29 16 -61 34 -31 19 -85 45 -120 57 l-62 23 23 50 c13 28 24
65 24 81 0 30 -96 235 -110 235 -9 0 -54 -124 -71 -192 -10 -43 -9 -51 10 -84
12 -20 20 -38 18 -41 -3 -2 -29 18 -59 46 -64 58 -100 121 -123 213 l-17 68
31 35 c17 19 34 47 37 61 8 29 -1 111 -17 169 l-11 39 -29 -34 c-15 -19 -40
-57 -55 -83 -31 -57 -29 -94 9 -154 13 -21 28 -54 32 -73 l8 -34 -37 32 c-40
35 -155 97 -164 88 -8 -8 17 -114 38 -163 20 -47 42 -61 117 -79 56 -13 63
-11 63 20 1 15 7 8 21 -21 12 -23 40 -64 62 -89 38 -43 40 -47 17 -41 -65 18
-69 15 -10 -8 36 -14 94 -39 130 -55 36 -16 77 -33 91 -39 22 -8 27 -18 38
-83 16 -90 37 -144 62 -162 17 -12 13 -14 -43 -19 -35 -3 -73 -9 -85 -12 -21
-7 -21 -5 -12 29 5 19 8 78 7 131 l-3 96 -70 -62 c-124 -110 -135 -141 -94
-261 18 -54 19 -67 8 -112 -18 -76 -47 -145 -80 -190 -31 -43 -102 -96 -128
-96 -25 0 -239 -109 -275 -140 l-33 -30 -6 61 c-11 122 20 326 73 487 27 84
58 162 63 162 1 0 0 -47 -1 -104 l-4 -103 32 -36 c17 -20 50 -45 74 -57 39
-19 44 -25 48 -63 5 -46 47 -147 61 -147 5 0 32 24 61 53 37 36 55 64 60 88 5
31 -10 228 -19 237 -1 2 -34 -32 -73 -74 l-70 -76 10 39 c17 67 -3 111 -87
201 l-74 78 54 102 c30 56 53 102 50 102 -2 0 -30 -37 -62 -82 l-58 -83 -5 36
c-6 33 -53 125 -98 192 l-19 28 -16 -43 c-29 -79 -47 -151 -47 -190 0 -33 8
-47 51 -94 l52 -54 -18 -41 c-24 -52 -32 -56 -27 -14 7 57 -16 101 -96 187
l-77 81 -7 -44 c-3 -24 -7 -81 -7 -126 -1 -77 1 -84 29 -116 16 -19 50 -45 75
-58 25 -13 45 -29 45 -36 0 -6 -10 -37 -22 -68 l-21 -56 -41 78 c-74 140 -88
153 -101 93 -4 -17 -11 -30 -17 -30 -6 0 -28 18 -49 40 -55 57 -73 127 -67
250 4 68 3 86 -4 65 -17 -54 -14 -216 5 -259 22 -50 22 -51 -10 -32 -27 17
-27 17 -7 -1 12 -10 45 -36 73 -58 44 -34 51 -44 47 -65 -4 -14 -9 -47 -12
-75 -7 -58 13 -96 79 -149 38 -30 39 -31 53 -11 13 18 14 14 7 -40 -4 -33 -8
-108 -8 -167 0 -60 -1 -108 -2 -108 -1 0 -13 5 -27 11 -21 10 -23 15 -15 36
15 39 10 106 -9 138 -30 48 -119 141 -128 132 -5 -4 -10 -51 -12 -103 -4 -86
-2 -99 17 -124 l21 -29 -28 9 c-15 5 -101 32 -191 60 -183 57 -244 91 -268
148 -12 29 -13 43 -4 74 12 37 13 38 59 38 l47 0 23 -81 c30 -108 50 -135 115
-153 29 -8 66 -16 82 -18 28 -3 30 -1 30 32 0 19 -4 50 -8 69 l-7 33 36 -27
c42 -32 45 -30 70 53 10 32 13 67 10 88 -7 35 -89 166 -125 198 -20 18 -20 18
-26 -5 -19 -82 -35 -175 -35 -200 l0 -29 -37 19 c-70 37 -69 36 -36 70 33 33
121 196 112 206 -6 5 -127 -23 -170 -40 -24 -9 -33 149 -13 227 19 73 9 111
-45 181 -52 68 -109 122 -118 114 -4 -4 -9 -60 -11 -125 -4 -109 -3 -119 18
-145 12 -16 46 -42 75 -58 49 -27 53 -33 60 -75 9 -66 -3 -124 -35 -161 -16
-17 -31 -46 -35 -65 -4 -18 -18 -50 -33 -71 l-25 -38 -21 38 c-16 27 -39 47
-86 72 l-65 34 43 -6 42 -5 0 51 c0 63 -29 125 -72 154 -32 21 -172 93 -181
93 -7 0 22 -117 44 -176 23 -61 43 -83 92 -101 28 -10 21 -11 -53 -8 -47 1
-69 1 -50 -1 62 -7 144 -26 175 -41 82 -41 122 -114 110 -198 -6 -39 -4 -46
27 -78 48 -52 177 -116 401 -201 278 -106 291 -113 341 -209 63 -119 157 -238
320 -404 82 -84 146 -153 143 -153 -33 0 -291 55 -322 69 -42 19 -169 117
-218 169 -23 24 -32 47 -43 112 -16 92 -39 144 -89 199 -19 21 -35 44 -35 51
0 8 -3 10 -7 7 -3 -4 -20 2 -37 12 -17 10 -80 40 -141 66 -60 26 -141 63 -180
82 -91 44 -56 16 46 -37 44 -23 79 -42 79 -43 0 -1 -56 -1 -124 1 l-124 3 -12
30 c-18 44 -72 85 -132 102 -76 22 -160 38 -166 33 -4 -4 19 -46 97 -178 9
-15 30 -33 46 -40 35 -15 168 -14 173 2 5 13 59 13 140 -1 75 -13 68 -21 -31
-38 -53 -9 -76 -9 -103 1 -36 13 -141 2 -229 -23 l-39 -11 34 -29 c19 -16 57
-43 84 -61 l49 -32 -47 -12 c-26 -7 -51 -16 -54 -20 -4 -4 2 -4 13 1 11 4 63
9 115 12 l95 4 -55 -24 c-30 -13 -72 -32 -93 -43 l-39 -20 69 -32 c37 -17 80
-35 95 -41 l26 -10 -39 -93 c-57 -138 -52 -183 31 -263 34 -33 43 -37 50 -25
5 8 15 24 24 35 14 19 14 17 9 -21 -7 -54 15 -93 85 -145 l53 -40 21 48 c12
26 22 69 22 95 l1 48 73 -73 c41 -39 86 -88 102 -107 l28 -35 -112 2 -111 1
97 -8 c59 -5 116 -17 143 -29 39 -17 45 -24 45 -49 l0 -30 -59 5 c-67 6 -89
-4 -183 -82 -28 -23 -58 -41 -65 -38 -8 3 -13 23 -13 55 0 27 -7 62 -15 77
-13 27 -134 141 -149 141 -3 0 -6 -34 -6 -75 0 -73 -1 -75 -20 -65 -11 6 -51
41 -89 78 -48 46 -73 79 -82 107 -20 68 -23 270 -5 349 9 38 14 71 11 74 -3 3
-5 -3 -6 -14 0 -11 -6 -4 -14 18 -13 37 -71 125 -118 183 l-25 29 -18 -79
c-10 -44 -18 -106 -18 -137 -1 -50 3 -61 29 -88 17 -18 47 -43 68 -57 36 -23
40 -23 51 -7 11 14 12 6 4 -47 -5 -35 -7 -98 -4 -139 l5 -75 -13 56 c-19 84
-43 118 -110 155 -40 22 -68 46 -88 77 -26 41 -28 48 -19 89 16 70 -2 115 -94
233 l-44 57 -10 -39 c-6 -21 -16 -75 -23 -121 -11 -75 -10 -86 6 -117 11 -19
43 -51 73 -72 45 -31 56 -35 64 -23 8 13 10 13 19 0 17 -25 11 -32 -20 -25
-30 7 -31 6 -24 -22 14 -58 66 -179 87 -201 12 -12 41 -28 64 -34 38 -9 50
-20 97 -87 66 -93 152 -190 231 -261 100 -88 98 -82 30 -75 -169 17 -427 61
-596 101 -102 24 -106 26 -117 58 -7 18 -12 35 -12 39 0 4 27 -11 60 -33 90
-58 109 -59 196 -15 41 21 74 41 74 45 0 16 -89 88 -123 99 -38 13 -94 6 -200
-25 -45 -12 -52 -12 -87 6 -42 22 -199 65 -207 57 -7 -8 73 -158 106 -197 l29
-35 103 -1 c75 -1 128 -8 188 -25 102 -28 92 -36 -19 -15 -45 9 -98 16 -116
16 l-34 0 26 -40 27 -40 -26 -20 c-39 -31 -62 -100 -49 -147 10 -35 11 -35 10
-8 -2 69 3 86 37 123 l35 37 27 -35 c56 -71 71 -80 133 -80 77 0 120 10 120
27 0 7 -11 36 -25 63 l-25 50 47 0 c45 0 129 -12 298 -44 62 -11 67 -14 40
-20 -193 -48 -285 -104 -357 -215 -40 -64 -35 -76 6 -15 61 90 139 140 274
175 87 22 306 27 393 8 l51 -11 -42 -19 c-42 -19 -180 -149 -180 -169 0 -6 47
-10 122 -10 l121 0 38 39 c20 22 42 56 49 75 13 41 9 41 140 21 55 -8 214 -19
353 -24 245 -9 505 -38 587 -65 29 -9 34 -16 32 -36 -2 -14 -5 -129 -9 -256
-6 -242 2 -384 38 -679 23 -184 24 -129 -17 -845 -5 -84 -11 -113 -29 -145
-32 -56 -81 -116 -89 -108 -3 3 -6 0 -6 -8 0 -8 -15 -30 -34 -48 l-34 -33 -36
56 c-20 31 -38 56 -40 56 -2 0 -14 -29 -26 -65 -24 -71 -16 -66 -137 -80 -36
-4 -64 -1 -90 10 -45 19 -92 14 -207 -22 -78 -25 -79 -25 -58 -42 l22 -16 -28
-17 -29 -18 -50 87 c-27 48 -53 88 -59 90 -24 8 -80 -211 -64 -251 5 -14 7
-26 3 -26 -3 0 -37 11 -76 25 -38 14 -72 23 -75 21 -2 -3 7 -35 22 -73 l26
-67 -44 -46 c-66 -68 -106 -129 -106 -162 0 -32 50 -158 63 -158 5 0 32 24 61
53 60 60 68 85 59 184 l-6 68 25 -22 c13 -13 30 -23 36 -23 7 0 12 -3 12 -7 0
-5 32 -8 71 -8 l71 0 -6 40 c-13 85 -16 79 49 92 l59 12 77 -74 c45 -43 89
-76 106 -79 24 -6 150 24 172 40 6 5 -37 70 -65 98 l-27 26 57 0 56 0 0 -74
c0 -88 17 -115 100 -160 60 -33 63 -31 81 50 14 62 3 104 -42 161 l-30 38 28
8 c15 5 55 22 89 38 88 43 99 40 63 -17 -44 -72 -44 -150 1 -174 28 -15 30
-13 19 16 -13 36 7 57 78 84 60 22 88 26 78 9 -13 -20 25 -95 69 -138 l43 -43
22 31 c53 74 62 131 32 196 l-18 41 27 32 27 33 37 -22 c20 -11 36 -26 36 -31
0 -6 6 -8 14 -5 8 3 36 -1 63 -9 26 -8 95 -17 153 -19 76 -3 140 -13 230 -36
113 -29 130 -36 178 -78 43 -36 56 -42 62 -31 31 53 32 54 111 43 41 -6 75 -9
77 -8 2 2 -27 28 -64 59 -45 37 -75 72 -90 103 -13 26 -21 49 -18 52 4 4 274
-46 281 -53 2 -2 -8 -24 -23 -49 -14 -26 -23 -51 -19 -56 8 -14 72 -31 115
-31 34 0 73 17 123 53 23 17 26 17 68 -1 l43 -19 -32 -11 -33 -11 20 -38 c28
-55 82 -103 127 -114 22 -4 79 -9 127 -9 l89 0 -31 42 c-17 23 -30 43 -28 44
1 1 35 -9 76 -22 88 -29 95 -29 89 -6 -3 10 19 -6 48 -35 29 -29 57 -53 62
-53 16 0 62 101 62 136 0 18 -5 45 -10 61 -14 36 -102 183 -110 183 -13 0 -60
-175 -60 -220 l0 -45 -42 85 c-52 103 -78 120 -182 120 l-68 0 6 -36 c4 -19 9
-41 12 -48 3 -8 -12 -12 -53 -13 -52 -2 -61 1 -91 30 l-32 31 31 32 32 33 -34
5 c-19 3 -56 8 -84 11 -34 5 -75 23 -133 57 -46 28 -127 70 -180 94 -53 24
-99 49 -103 56 -3 7 -10 31 -14 53 -11 62 -35 104 -69 122 -29 15 -119 43
-140 43 -9 0 -3 -124 8 -151 6 -13 -9 -12 -115 7 -67 12 -125 26 -129 31 -12
12 -58 288 -71 428 -8 83 -9 189 -3 345 9 238 12 943 5 1169 l-4 135 56 52
c73 68 174 104 292 104 l81 0 37 -45 c59 -70 84 -79 202 -72 139 8 145 11 103
54 l-33 34 40 -6 c22 -3 114 -17 204 -30 90 -14 166 -24 167 -22 2 2 -76 25
-174 52 -97 26 -181 52 -186 57 -6 4 9 8 33 8 59 0 234 27 320 49 70 17 72 17
143 -4 40 -12 86 -28 102 -37 l30 -16 -32 -7 c-28 -6 -32 -10 -26 -28 24 -80
69 -129 132 -147 53 -14 192 -33 198 -27 8 7 -71 124 -114 169 -22 23 -49 40
-70 44 -18 4 -59 23 -90 43 -54 35 -55 36 -26 39 16 1 44 5 63 8 l34 5 -37 38
-37 38 106 61 c143 83 221 107 352 107 128 0 98 16 -35 19 -109 1 -116 -8 90
114 81 47 146 88 144 89 -2 2 -60 -21 -130 -50 -69 -30 -126 -52 -126 -50 0 2
20 30 44 61 24 31 68 96 99 143 51 77 64 90 137 134 44 27 80 52 80 56 0 6
-117 43 -185 57 l-40 8 38 8 c22 4 51 20 71 41 41 41 130 164 124 171 -9 9
-188 -16 -226 -32 -44 -17 -73 -61 -93 -137 -13 -53 -34 -68 -134 -100 -60
-19 -254 -53 -350 -62 -38 -3 -87 -8 -108 -11 l-38 -6 18 39 c10 21 19 40 20
42 1 2 28 -4 59 -14 72 -23 105 -13 213 59 85 57 91 56 91 -5 0 -27 3 -30 23
-24 107 30 144 61 171 142 20 60 46 173 40 173 -2 0 -40 -18 -83 -39 -105 -53
-139 -83 -152 -136 l-11 -43 -46 13 c-81 23 -170 38 -196 31 -13 -3 -38 -18
-55 -32 l-31 -26 6 31 c4 17 4 31 0 31 -12 0 -131 -63 -172 -91 -47 -32 -64
-69 -64 -139 0 -44 -3 -49 -30 -60 -17 -7 -33 -10 -36 -8 -2 3 1 29 7 57 6 29
9 55 6 57 -3 3 -32 -8 -66 -25 l-60 -31 13 38 c34 92 59 148 106 232 47 82 72
115 56 73 -9 -23 11 -33 72 -33 71 0 100 17 166 97 l57 68 -76 3 c-41 2 -91
-1 -110 -7 -31 -8 -33 -8 -23 9 19 30 161 118 227 140 73 24 195 27 266 5 61
-18 70 -13 15 9 -52 20 -174 40 -206 32 -13 -4 -24 -4 -24 -2 0 2 36 25 80 51
44 26 80 49 80 51 0 2 -59 -25 -131 -62 -73 -36 -143 -70 -157 -75 -23 -9 -23
-8 8 27 68 78 236 227 272 241 21 8 49 28 62 43 21 26 72 137 91 199 7 22 5
23 -21 17 -55 -14 -159 -59 -190 -82 -22 -16 -35 -37 -43 -68 -14 -58 -14
-123 0 -128 7 -2 -33 -36 -87 -75 -54 -39 -136 -103 -182 -143 -46 -39 -86
-70 -88 -67 -2 2 16 57 41 122 25 65 44 119 42 122 -2 2 -33 -63 -68 -144 -53
-122 -75 -161 -128 -223 -35 -41 -82 -100 -104 -131 l-39 -57 -78 5 c-93 7
-118 -6 -170 -87 -29 -45 -31 -52 -17 -63 13 -10 10 -17 -28 -53 -41 -40 -45
-41 -60 -24 -8 9 -34 26 -56 36 -40 17 -45 17 -125 1 -46 -10 -91 -20 -101
-24 -36 -14 51 78 112 117 55 36 64 39 95 30 54 -15 112 -12 146 9 17 10 62
47 99 82 64 60 66 64 44 70 -13 4 -41 7 -61 8 -21 1 -38 4 -38 8 0 4 26 31 57
60 l57 53 22 -27 22 -28 32 30 c49 46 73 106 66 168 -7 59 -6 58 24 -40 12
-40 26 -73 30 -73 14 0 92 64 114 93 19 26 21 42 20 148 0 66 -4 122 -8 126
-3 4 -33 -20 -66 -52 l-60 -60 23 68 c25 74 65 132 105 150 38 17 110 97 121
133 9 31 -3 202 -15 213 -8 8 -109 -106 -128 -144 l-16 -30 0 36 c0 21 6 39
13 42 21 8 60 98 61 143 1 32 -11 65 -48 138 -27 53 -53 96 -57 96 -8 0 -54
-116 -69 -177 -9 -37 -17 -46 -69 -73 -104 -56 -121 -81 -121 -185 0 -60 1
-64 24 -67 l24 -3 -26 -44 c-25 -42 -26 -43 -34 -20 -5 13 -23 45 -40 71 -40
64 -45 118 -17 194 27 75 107 196 193 297 l67 77 43 -25 c23 -14 57 -25 75
-25 34 0 181 56 181 69 0 13 -141 74 -172 75 l-29 1 23 18 c13 9 41 32 63 49
22 18 34 25 26 15 -12 -15 -10 -18 15 -28 51 -21 137 -23 173 -5 32 17 174
146 168 153 -2 2 -51 8 -109 13 -121 12 -145 6 -190 -42 l-29 -32 7 112 c5 77
4 112 -4 112 -23 0 -156 -121 -178 -162 -8 -15 -14 -35 -14 -45 0 -13 -17 -25
-62 -41 -146 -54 -146 -54 -216 -191 -71 -141 -108 -251 -118 -345 l-7 -65
-41 33 c-41 33 -125 66 -167 66 -18 0 -20 4 -15 28 20 92 36 231 36 317 0 55
4 94 8 87 19 -29 92 85 92 144 0 54 -61 234 -80 234 -13 0 -100 -196 -100
-226 0 -16 13 -51 30 -77 29 -46 29 -48 20 -124 -15 -113 -21 -143 -30 -138
-5 3 -6 36 -3 73 7 83 -3 106 -89 198 -59 63 -61 67 -43 80 10 8 23 14 29 14
5 0 7 3 4 6 -3 3 -22 -2 -42 -10 -20 -8 -36 -11 -36 -5 0 5 33 42 74 82 89 86
94 103 76 249 l-13 103 -68 -74 c-107 -116 -117 -153 -66 -257 16 -34 18 -47
9 -56 -9 -9 -12 -9 -12 3 0 21 -55 133 -92 186 l-32 47 -17 -50 -17 -49 -1 51
c-1 37 4 56 16 65 37 31 44 72 27 161 -8 46 -19 87 -24 91 -4 5 -31 -26 -59
-68z m73 -619 c-14 -31 -27 -56 -30 -56 -2 0 -4 38 -4 84 l0 84 30 -28 30 -28
-26 -56z m120 -33 c-2 -102 -8 -154 -22 -198 l-19 -59 -23 44 c-12 25 -31 57
-42 72 -16 23 -17 33 -8 72 13 60 40 126 51 126 5 0 20 18 34 40 14 22 27 40
29 40 2 0 2 -62 0 -137z m866 -21 c0 -9 -46 -61 -103 -117 -127 -124 -209
-224 -258 -318 -22 -40 -39 -63 -39 -52 0 77 46 250 95 357 l25 53 -2 -47 c-3
-45 -2 -48 22 -48 95 0 163 57 206 171 l29 77 12 -30 c7 -17 13 -37 13 -46z
m-736 -173 c45 -26 52 -59 28 -129 -43 -124 -75 -171 -215 -320 l-87 -93 0
142 0 142 35 -27 c35 -26 36 -26 50 -8 8 10 22 36 31 57 9 20 20 37 23 37 3 0
23 -17 44 -37 43 -40 43 -40 77 32 27 56 25 115 -5 175 -14 28 -23 50 -21 50
3 0 21 -9 40 -21z m-626 -350 l20 -46 -38 -12 c-21 -6 -65 -31 -97 -55 -32
-24 -76 -49 -98 -56 -55 -18 -91 -47 -112 -89 l-17 -36 -6 30 c-4 17 -25 66
-47 108 -22 42 -39 77 -38 77 1 0 32 -16 69 -35 37 -19 79 -35 94 -35 32 0 97
32 137 67 l29 26 -44 38 -45 39 35 -10 c67 -19 70 -17 70 53 l0 62 35 -40 c18
-22 43 -61 53 -86z m1345 -14 c32 -28 33 -45 11 -176 -19 -115 -65 -255 -106
-328 l-32 -55 -15 46 c-9 26 -19 49 -22 53 -8 7 -82 -106 -109 -167 -15 -34
-27 -48 -40 -48 -25 0 -25 1 6 61 41 82 65 193 62 284 -3 72 0 85 25 128 18
30 42 54 67 67 53 27 86 65 102 117 7 24 15 43 18 43 3 0 17 -12 33 -25z
m-586 -69 c21 -11 59 -16 111 -16 l78 0 22 -47 c12 -27 31 -64 42 -84 27 -47
35 -122 20 -178 l-12 -44 -27 49 c-49 86 -66 114 -71 114 -7 0 -57 -153 -65
-202 -8 -44 14 -97 57 -133 33 -28 32 -51 -4 -64 -21 -8 -25 -3 -44 51 -26 71
-54 114 -128 195 -40 44 -56 69 -56 90 0 15 -3 38 -6 51 -6 22 -6 22 -43 -9
-20 -17 -57 -56 -83 -87 -43 -51 -48 -61 -48 -107 0 -31 9 -69 23 -98 l22 -48
42 28 c66 45 86 77 92 151 l6 66 42 -49 c52 -61 97 -144 114 -208 10 -41 9
-50 -4 -65 -28 -31 -61 -116 -47 -120 7 -3 -21 -38 -66 -83 -71 -72 -85 -81
-157 -105 -92 -31 -123 -54 -141 -109 -12 -34 -25 -45 -97 -87 -46 -26 -87
-48 -91 -48 -4 0 0 21 8 48 73 235 104 377 104 486 l1 61 19 -23 c24 -29 45
-20 86 39 25 37 29 51 28 108 -1 61 -38 211 -53 211 -3 0 -19 -20 -34 -45 -35
-54 -43 -58 -22 -9 18 43 39 74 125 184 37 47 80 105 95 130 16 25 38 55 49
68 l20 23 31 -35 c16 -19 44 -42 62 -50z m-1253 -73 c-48 -139 -46 -162 23
-235 l35 -36 -29 -16 c-23 -11 -39 -13 -64 -6 -19 5 -51 12 -71 15 l-38 6 35
52 c39 60 71 149 81 227 4 38 13 60 28 72 11 10 24 18 27 18 4 0 -9 -44 -27
-97z m522 69 c6 -4 29 -52 50 -107 32 -86 37 -110 35 -171 -2 -65 1 -75 26
-105 28 -32 28 -35 27 -163 -1 -128 -17 -228 -56 -338 l-13 -38 -35 83 -35 82
33 29 c56 49 66 78 58 179 -9 126 -13 130 -71 65 -60 -67 -85 -106 -85 -137 0
-23 -1 -23 -19 -7 -18 17 -18 19 16 84 28 55 34 74 30 107 -6 39 -93 225 -106
225 -8 0 -58 -133 -67 -178 -4 -18 -8 -32 -10 -32 -8 0 -104 65 -104 70 1 3
27 20 60 39 83 47 95 68 93 164 l-1 78 51 33 c65 42 101 53 123 38z m1376
-129 l25 -61 -40 -26 -40 -27 7 33 c4 18 9 59 13 91 3 31 7 56 8 55 2 -2 14
-31 27 -65z m-1940 -243 c11 0 15 -6 11 -18 -6 -26 85 -109 129 -117 19 -4 72
0 119 8 56 10 88 11 97 5 21 -17 13 -28 -12 -17 -19 9 -36 7 -76 -6 -60 -20
-61 -31 -1 -15 56 15 72 8 126 -52 38 -42 125 -196 125 -221 0 -5 -128 37
-135 45 -1 2 -15 27 -29 56 -28 55 -32 56 -72 20 -29 -26 -51 -14 -76 38 -11
25 -34 54 -52 66 -17 13 -68 57 -113 100 -45 42 -92 78 -105 80 -13 2 -24 11
-26 22 -4 17 0 18 34 13 22 -4 46 -7 56 -7z m-204 -36 c-9 -9 -22 -14 -30 -11
-8 3 -4 8 12 15 35 15 37 14 18 -4z m-38 -44 c0 -5 -2 -10 -4 -10 -3 0 -8 5
-11 10 -3 6 -1 10 4 10 6 0 11 -4 11 -10z m-79 -138 c-6 -42 -21 -112 -34
-156 l-24 -78 -20 28 c-12 16 -35 53 -52 83 -28 48 -31 57 -21 86 16 48 64
110 113 146 l42 31 3 -32 c2 -17 -1 -66 -7 -108z m333 -56 c19 -69 41 -96 95
-119 30 -13 32 -15 15 -21 -11 -3 -36 -23 -55 -44 -28 -31 -29 -33 -4 -10 48
43 163 75 140 38 -5 -9 10 -161 22 -208 l6 -23 29 28 c43 40 128 163 128 185
0 25 10 23 89 -16 l68 -35 11 -57 c19 -94 15 -168 -12 -222 -41 -83 -114 -437
-98 -479 8 -23 -15 -14 -32 12 -9 13 -16 45 -16 70 0 25 -6 58 -14 73 -21 40
-167 172 -191 172 -4 0 -5 -11 -3 -25 3 -14 4 -25 2 -25 -6 0 -320 275 -376
328 -45 44 -46 46 -33 73 27 51 29 102 6 154 -12 27 -19 50 -17 52 2 3 19 -3
36 -12 27 -14 34 -15 41 -3 14 22 28 103 22 126 -11 42 2 52 65 52 l59 0 17
-64z m1565 -43 c-33 -35 -168 -143 -180 -143 -18 0 34 59 60 68 14 5 51 35 81
66 30 31 56 52 58 46 2 -6 -6 -23 -19 -37z m-1339 -32 c0 -6 -4 -13 -10 -16
-5 -3 -10 1 -10 9 0 9 5 16 10 16 6 0 10 -4 10 -9z m-1359 -177 c41 -30 48
-39 37 -50 -10 -10 -26 -9 -82 5 l-69 18 32 19 c17 10 29 24 27 31 -8 19 -1
16 55 -23z m274 -35 c24 -46 25 -53 13 -87 -7 -20 -13 -38 -14 -40 -1 -1 -30
11 -65 28 -52 24 -65 35 -69 57 -5 25 0 31 50 59 30 18 56 32 57 33 2 0 14
-22 28 -50z m-58 -154 c40 -24 43 -29 43 -68 0 -50 23 -86 90 -143 37 -30 40
-36 20 -31 -14 4 -32 7 -40 7 -9 0 -22 15 -28 34 -7 19 -42 66 -77 104 -45 49
-65 78 -65 96 0 32 3 32 57 1z m3708 -18 c-11 -7 -41 -33 -68 -59 -49 -50 -74
-57 -137 -39 -22 6 -20 8 25 25 28 11 73 34 100 52 28 18 61 33 75 33 24 0 24
-1 5 -12z m-1296 -78 c-16 -44 -29 -100 -29 -124 0 -37 6 -50 44 -91 l43 -48
-36 -29 c-36 -29 -131 -81 -136 -75 -1 2 -7 11 -12 21 -9 17 -12 15 -31 -16
-11 -20 -30 -40 -41 -47 -28 -15 -26 -4 6 34 46 55 73 125 73 193 0 61 24 143
41 143 5 0 9 7 9 16 0 20 68 104 85 104 8 0 3 -25 -16 -81z m154 7 l-16 -68
-33 63 c-38 71 -39 73 -21 66 8 -3 29 -2 48 2 19 4 35 7 36 7 1 -1 -6 -32 -14
-70z m-2803 51 c0 -7 17 -39 37 -71 l36 -59 39 42 39 41 -3 -67 -3 -68 -59 -3
c-32 -2 -64 2 -69 7 -16 16 -25 13 -29 -6 -2 -11 -23 23 -51 81 -26 54 -47
100 -47 101 0 2 16 3 36 3 19 0 38 3 41 6 11 11 33 6 33 -7z m2324 -96 c43
-28 86 -51 95 -52 9 0 -8 -9 -38 -20 -30 -10 -63 -27 -74 -36 -21 -19 -91
-158 -102 -205 -9 -34 -3 -35 78 -4 154 58 178 84 181 195 1 61 8 80 29 81 13
0 -4 -142 -21 -175 -25 -51 -81 -113 -154 -172 -62 -50 -90 -64 -246 -121
-232 -84 -225 -83 -240 -35 -20 68 -25 150 -12 235 14 97 35 150 80 201 33 38
214 146 246 148 11 0 35 6 54 13 19 7 37 10 40 6 3 -4 40 -30 84 -59z m1538
-30 l55 -28 -79 -23 c-74 -21 -117 -51 -130 -90 -1 -5 -65 18 -140 52 -77 35
-132 65 -125 69 7 4 66 14 132 23 66 9 131 18 145 20 62 9 91 4 142 -23z m148
-35 c0 -2 -13 -20 -30 -41 -34 -43 -40 -36 -10 13 16 26 40 43 40 28z m-469
-69 c169 -57 160 -49 148 -132 -4 -30 -4 -30 46 -30 28 0 61 4 75 9 21 7 18 1
-19 -37 -50 -52 -97 -79 -243 -141 l-106 -44 -5 52 c-2 28 -7 58 -11 66 -4 11
5 21 30 35 20 11 65 53 101 95 l64 75 -99 3 c-120 3 -168 -10 -198 -56 -13
-18 -24 -38 -26 -44 -3 -8 -11 -7 -28 1 l-25 12 21 -18 c16 -13 20 -23 14 -38
-5 -11 -9 -23 -9 -27 -1 -9 67 -28 102 -28 35 0 51 -37 42 -98 -5 -33 -12 -45
-35 -57 -16 -8 -37 -15 -47 -15 -10 -1 -35 -7 -55 -14 -21 -8 -38 -12 -38 -10
0 3 14 32 31 65 17 34 28 63 25 66 -4 5 -153 -35 -200 -53 -17 -7 -17 -6 -1
26 15 29 55 136 55 147 0 2 -9 1 -21 -2 -19 -6 -18 -4 7 35 21 32 29 58 32
105 l4 63 72 22 c39 12 75 23 80 24 20 5 69 -8 217 -57z m-3396 19 c0 0 7 -14
17 -31 9 -16 45 -46 80 -68 l63 -38 12 28 c7 15 12 38 13 50 0 30 13 36 69 28
l48 -7 6 -48 c8 -66 26 -90 97 -131 55 -31 59 -37 60 -69 0 -19 12 -61 28 -93
l27 -58 42 31 c23 17 52 47 64 66 15 25 26 33 38 29 9 -4 51 -16 94 -27 l78
-21 -33 -21 c-148 -90 -178 -119 -178 -172 0 -45 -12 -44 -124 9 -121 58 -177
117 -231 244 -21 51 -40 91 -42 89 -2 -1 8 -36 22 -76 14 -40 25 -75 25 -77 0
-36 -280 215 -340 304 -22 33 -40 64 -40 68 0 4 24 4 53 0 28 -4 52 -8 52 -9z
m2865 -216 c16 -30 12 -38 -24 -50 -19 -6 -46 -22 -60 -35 l-26 -24 -1 47 c0
26 -3 64 -7 86 l-7 38 -82 -85 c-93 -97 -103 -123 -79 -202 8 -27 14 -50 13
-51 -1 -1 -44 -5 -95 -9 l-94 -8 16 31 c9 17 16 53 16 79 l0 48 153 102 c83
55 172 113 197 127 l44 25 13 -50 c7 -28 17 -59 23 -69z m-2340 63 c0 -5 -10
-19 -21 -33 -15 -18 -19 -20 -15 -7 3 10 6 25 6 33 0 8 7 14 15 14 8 0 15 -3
15 -7z m169 -49 c17 -4 31 -10 31 -14 0 -7 -65 -50 -76 -50 -2 0 -4 16 -4 35
0 38 1 38 49 29z m348 -99 c152 -58 231 -137 257 -258 9 -39 17 -92 18 -117 3
-52 9 -50 -102 -20 -50 14 -118 23 -205 26 -71 3 -158 10 -193 16 l-63 10 22
24 c23 25 54 122 64 207 6 49 10 55 34 60 15 3 42 21 61 41 19 19 36 35 37 35
2 1 33 -10 70 -24z m1736 -189 c23 4 56 12 73 19 30 12 31 12 26 -11 -4 -22
-9 -24 -57 -24 -29 0 -72 3 -97 6 l-44 6 25 27 26 26 3 -28 c3 -26 5 -27 45
-21z m-497 7 c22 -30 16 -43 -18 -43 -53 0 -64 14 -32 39 32 25 33 26 50 4z
m-1986 -165 c11 -9 20 -18 20 -20 0 -7 -143 11 -217 27 -77 17 -112 38 -40 24
89 -17 126 -12 160 24 l32 32 13 -35 c7 -19 21 -42 32 -52z m204 1 c20 -12 36
-23 36 -25 0 -2 -20 -4 -45 -4 -37 0 -45 3 -45 18 0 16 8 32 16 32 2 0 19 -9
38 -21z"/>
<path d="M9704 4561 c-80 -67 -114 -114 -114 -158 0 -25 26 -132 35 -141 8 -9
85 41 113 72 38 43 44 74 40 194 l-3 93 -71 -60z"/>
<path d="M9395 3867 c-17 -13 -40 -43 -52 -66 l-22 -42 25 -9 c14 -6 47 -10
74 -10 44 0 55 5 107 48 67 56 88 80 80 88 -3 4 -46 9 -94 11 -83 5 -90 4
-118 -20z"/>
<path d="M3332 6333 c-48 -62 -72 -106 -72 -136 0 -30 30 -96 53 -115 11 -10
12 -27 1 -114 -7 -57 -13 -110 -14 -118 0 -8 -17 3 -43 28 -23 23 -46 42 -50
42 -4 0 -7 -12 -7 -27 l0 -28 -20 31 -20 31 40 43 c50 55 63 99 50 171 -14 76
-41 169 -49 169 -9 -1 -85 -117 -111 -169 -15 -30 -20 -53 -16 -74 l6 -31 -27
25 -27 24 24 -34 c22 -32 22 -34 4 -27 -10 4 -58 21 -106 38 -49 17 -96 41
-109 54 l-23 25 -13 -53 c-7 -29 -12 -74 -13 -100 0 -43 3 -49 47 -87 l46 -41
-25 -28 c-14 -15 -32 -40 -41 -56 -13 -28 -15 -28 -24 -10 -6 10 -13 39 -17
64 -10 72 -38 105 -139 171 -71 46 -93 56 -95 44 -5 -25 27 -176 46 -215 10
-20 32 -43 52 -54 46 -24 90 -100 79 -136 -16 -56 -10 -112 16 -146 41 -54 92
-89 109 -75 12 10 16 5 26 -24 7 -21 8 -41 4 -45 -5 -5 -47 10 -94 34 -47 23
-100 48 -119 54 -33 12 -33 12 -18 36 9 13 21 44 27 68 10 37 8 52 -9 98 -26
68 -84 166 -97 162 -5 -1 -14 -17 -21 -35 l-11 -32 -1 35 c-2 38 -37 210 -46
218 -12 13 -135 -176 -135 -208 0 -20 -2 -22 -10 -10 -18 28 -10 64 20 95 18
18 33 47 37 68 5 36 -23 187 -35 187 -9 -1 -65 -77 -87 -119 -22 -44 -15 -100
18 -149 14 -20 27 -52 31 -70 l6 -33 -29 28 c-29 29 -169 109 -177 101 -7 -8
36 -162 55 -193 l18 -31 -54 -59 c-76 -85 -95 -128 -82 -185 6 -25 18 -59 28
-76 15 -25 16 -34 6 -47 -11 -15 -13 -12 -18 21 -6 36 -103 212 -117 212 -12
0 -60 -183 -60 -229 0 -37 6 -49 51 -96 l50 -53 -21 -41 c-23 -46 -33 -53 -24
-17 12 47 -14 102 -84 178 -67 71 -69 75 -80 148 -6 41 -19 100 -28 130 l-16
55 -27 -32 c-15 -18 -43 -60 -63 -93 l-35 -60 -5 48 c-4 38 -16 66 -57 124
-29 42 -60 83 -70 92 -17 16 -19 13 -35 -62 -23 -109 -24 -171 -1 -206 23 -34
117 -99 125 -86 3 6 5 -36 4 -93 -2 -72 -9 -118 -23 -158 -26 -71 -17 -108 41
-174 l42 -47 23 26 23 27 0 -46 c0 -59 18 -93 75 -139 44 -37 47 -37 60 -20
13 17 14 16 7 -16 -4 -19 -7 -95 -7 -167 0 -73 -1 -133 -2 -133 -1 0 -14 5
-28 12 -18 8 -24 16 -19 27 3 9 9 37 11 62 6 57 -9 88 -84 169 -68 74 -71 71
-72 -65 -1 -67 3 -96 15 -113 8 -12 13 -22 11 -22 -29 0 -386 123 -415 144
-53 36 -77 82 -68 129 8 43 9 44 65 48 l44 3 17 -64 c35 -137 67 -169 184
-184 l48 -6 -4 65 -4 64 32 -19 c17 -11 34 -20 37 -20 12 0 39 89 40 131 1 51
-21 96 -96 192 l-46 59 -10 -39 c-12 -48 -30 -148 -33 -189 l-3 -32 -52 30
-53 30 29 24 c24 20 121 187 121 208 0 11 -36 6 -111 -17 l-76 -24 -6 94 c-4
53 -2 104 3 119 17 43 12 126 -9 160 -10 17 -47 61 -82 99 l-63 67 -8 -28 c-5
-16 -9 -72 -11 -124 -2 -115 8 -135 88 -181 30 -17 57 -40 61 -51 10 -33 7
-149 -5 -161 -8 -8 -11 -2 -11 21 0 18 -6 48 -14 66 -17 42 -146 180 -157 169
-5 -5 -12 -54 -15 -109 -8 -120 5 -157 67 -195 71 -43 72 -44 66 -70 -4 -13
-17 -37 -30 -52 l-23 -29 -24 38 c-17 26 -45 49 -84 69 -53 27 -69 30 -147 30
-48 0 -91 -3 -95 -7 -9 -10 65 -105 122 -157 49 -46 78 -51 157 -27 l47 14 0
-29 c0 -26 -2 -28 -19 -19 -26 14 -101 12 -185 -4 -66 -13 -70 -12 -111 11
-48 27 -186 75 -193 68 -6 -6 24 -85 61 -160 28 -57 28 -59 6 -38 -13 12 -37
26 -52 32 -30 12 -172 13 -222 2 l-30 -6 71 -72 c112 -111 147 -121 259 -73
l47 20 -22 35 -21 35 35 -15 c19 -8 63 -15 97 -15 l62 0 -7 39 c-3 22 -9 48
-13 58 -5 16 -3 15 18 -3 13 -12 46 -36 73 -53 60 -37 104 -40 166 -8 l45 22
66 -38 c37 -20 149 -69 250 -108 275 -105 353 -143 367 -182 10 -27 10 -35 -5
-53 -10 -12 -36 -45 -58 -72 -22 -28 -42 -51 -45 -51 -4 -1 -12 15 -19 36 -7
20 -31 55 -52 78 -22 23 -39 48 -39 55 0 7 -3 10 -6 7 -4 -4 -19 3 -35 14 -15
11 -41 24 -57 30 -19 6 -32 21 -41 44 -16 45 -55 91 -95 112 -30 16 -246 33
-246 20 0 -3 23 -33 50 -66 l51 -61 -33 0 c-18 0 -43 -3 -55 -6 -18 -5 -25 0
-36 27 -26 61 -67 89 -167 115 -93 24 -130 29 -130 18 0 -10 61 -115 93 -161
16 -23 42 -47 58 -53 35 -15 157 -9 168 8 6 10 25 10 82 2 141 -19 144 -22 44
-41 -71 -13 -93 -14 -105 -5 -9 7 -37 11 -70 9 -70 -3 -210 -33 -210 -44 0 -5
34 -32 75 -61 41 -28 72 -55 70 -59 -3 -4 -21 -10 -41 -14 -20 -3 -34 -8 -32
-11 3 -2 29 0 58 6 54 10 90 6 90 -11 0 -5 -28 -23 -62 -41 l-63 -31 60 -28
c33 -16 76 -34 96 -40 l36 -11 -34 -81 c-50 -119 -56 -153 -34 -202 10 -22 36
-57 58 -78 l40 -38 21 33 22 33 0 -45 c0 -52 21 -89 71 -126 67 -50 68 -50 90
2 12 27 21 67 21 95 -1 42 -8 60 -51 124 l-51 75 55 0 c48 0 57 -3 64 -22 5
-13 18 -31 29 -41 17 -16 19 -23 10 -55 -14 -50 -18 -55 -34 -41 -8 7 -14 7
-14 1 0 -5 6 -15 14 -21 10 -9 11 -22 4 -61 -7 -40 -6 -58 6 -82 20 -39 20
-36 -6 -41 -20 -4 -19 -4 4 -6 16 0 50 -17 76 -36 l49 -35 13 25 c14 27 33 27
78 -1 26 -17 33 -80 8 -71 -74 29 -121 15 -214 -62 -74 -62 -92 -61 -92 4 0
25 -7 59 -15 74 -14 29 -131 141 -146 141 -5 0 -9 -34 -11 -76 l-3 -77 -45 38
c-25 21 -37 35 -27 32 9 -4 23 -9 30 -12 18 -8 42 67 41 127 -1 52 -20 86
-106 182 l-52 59 -8 -29 c-4 -16 -11 -63 -14 -103 -6 -63 -9 -71 -17 -50 -14
34 -12 244 2 304 8 34 9 51 2 53 -6 2 -11 13 -11 26 0 38 -129 216 -141 194
-11 -22 -39 -167 -39 -208 0 -45 29 -85 96 -130 35 -25 44 -28 51 -16 4 8 8
-46 8 -119 0 -74 -3 -127 -7 -117 -4 9 -7 30 -7 45 -2 48 -39 106 -88 138 -26
16 -52 29 -59 29 -7 0 -25 21 -42 48 -28 44 -30 52 -25 117 l5 70 -50 75 c-67
99 -88 125 -95 114 -11 -18 -37 -164 -37 -209 0 -38 6 -51 36 -84 19 -22 51
-49 69 -60 31 -18 35 -18 44 -4 7 14 10 13 21 -6 15 -29 9 -34 -25 -21 -27 10
-27 10 -21 -21 3 -17 21 -67 38 -112 35 -86 75 -127 124 -127 19 0 80 -58 70
-67 -1 -2 -31 7 -65 18 -34 12 -64 19 -67 16 -10 -10 70 -189 97 -216 30 -31
65 -41 140 -41 38 0 49 4 49 16 0 10 32 -14 81 -60 44 -42 85 -76 90 -76 5 0
9 -4 9 -8 0 -4 -37 -4 -82 1 -69 7 -87 13 -115 37 -42 37 -82 44 -217 37 -96
-5 -126 -2 -228 20 -112 25 -118 27 -128 56 -16 48 -14 48 57 6 87 -50 119
-51 200 -3 60 36 61 37 46 60 -8 13 -35 37 -61 54 -55 36 -91 38 -209 9 -85
-21 -85 -21 -132 -1 -62 25 -188 58 -196 50 -7 -6 49 -120 86 -176 l22 -33
-38 25 c-30 20 -50 26 -94 26 -58 0 -182 -17 -191 -26 -6 -7 81 -84 139 -124
57 -38 108 -40 179 -4 29 14 52 29 52 34 0 4 -10 20 -22 36 -21 26 -21 27 -3
19 11 -5 67 -10 125 -11 75 -1 125 -7 174 -22 72 -22 102 -39 51 -29 -67 14
-219 36 -223 33 -2 -3 8 -21 22 -42 36 -53 24 -64 -67 -58 -71 5 -73 4 -161
-44 -50 -27 -91 -53 -93 -59 -6 -16 202 -76 242 -70 18 3 36 3 38 -1 2 -4 2
-2 1 5 -2 6 8 18 21 27 13 9 36 32 52 52 l28 37 -23 15 c-12 8 -22 18 -22 23
0 20 23 6 73 -46 50 -52 56 -55 103 -55 27 0 66 5 87 11 43 12 43 20 1 98
l-24 44 52 -7 c44 -6 61 -14 98 -50 25 -24 54 -48 65 -54 18 -9 13 -14 -43
-40 -54 -26 -68 -29 -94 -20 -16 6 -52 8 -79 5 -58 -7 -189 -47 -189 -58 0 -9
134 -93 175 -110 36 -15 70 -12 110 8 51 26 96 64 89 75 -8 12 -9 13 78 -31
62 -32 69 -34 106 -23 21 7 58 25 81 42 36 26 40 33 31 51 -15 26 -88 79 -112
79 -10 0 -18 4 -18 9 0 24 315 24 380 -1 24 -9 24 -9 -15 -28 -22 -10 -73 -52
-114 -93 l-74 -76 36 -6 c20 -4 76 -5 126 -4 87 4 91 5 125 38 20 19 43 54 53
79 14 36 20 43 37 38 58 -16 288 -37 511 -46 263 -11 535 -45 561 -72 9 -9 10
-25 4 -58 -28 -155 -19 -498 23 -835 25 -206 25 -291 -1 -731 l-18 -291 -42
-64 c-22 -35 -67 -89 -99 -120 l-58 -56 -214 -22 c-130 -14 -235 -30 -270 -42
-135 -47 -229 -143 -274 -282 -15 -46 -27 -87 -27 -92 0 -4 24 17 52 49 69 75
102 83 378 96 256 12 325 22 405 60 33 15 70 31 83 35 21 6 21 4 -8 -42 -53
-85 -49 -151 10 -183 18 -10 19 -9 9 14 -7 14 -9 32 -6 40 8 19 69 50 131 65
70 17 145 57 192 102 l40 39 60 -29 c75 -37 143 -51 250 -51 61 0 110 -7 172
-25 94 -27 318 -69 422 -81 l65 -7 -80 67 c-44 36 -115 89 -157 118 -43 28
-77 53 -75 54 3 4 271 -43 352 -61 134 -31 250 -67 325 -101 l75 -35 -50 52
c-169 174 -487 331 -790 389 -203 39 -177 23 -197 120 -24 113 -55 359 -63
495 -4 72 0 190 11 335 13 185 15 298 10 640 -4 228 -9 438 -12 466 -6 50 -6
51 45 103 28 28 69 60 93 71 l42 19 46 -43 c51 -48 168 -121 177 -112 7 6 -13
144 -24 173 -4 9 3 13 23 12 22 0 36 -10 59 -42 17 -23 51 -53 77 -67 46 -24
48 -24 154 -12 59 6 109 14 112 17 3 3 -10 19 -29 35 -40 34 -33 36 71 20 116
-18 120 -20 117 -42 -4 -39 119 -61 184 -34 12 5 18 0 23 -18 9 -38 52 -82 96
-100 41 -16 202 -48 209 -41 2 2 -8 24 -22 49 l-26 46 21 11 c19 10 131 2 226
-17 22 -4 31 10 12 21 -23 14 -8 24 18 11 36 -19 169 -59 181 -54 6 1 -11 49
-38 105 -60 123 -76 136 -179 142 l-75 3 6 -41 5 -42 -39 36 c-21 19 -48 35
-60 35 -11 0 -49 18 -85 39 l-65 39 66 7 67 8 -37 37 c-25 25 -33 40 -25 45 6
4 12 5 14 4 1 -2 13 -21 25 -42 43 -72 77 -88 206 -100 63 -6 118 -8 121 -4 9
9 -115 158 -148 176 -32 18 -36 31 -10 31 19 0 180 55 190 64 3 4 -3 13 -14
21 -17 13 -11 14 65 15 46 0 82 3 78 6 -3 4 -52 9 -107 13 l-102 6 64 36 c48
28 71 35 96 32 59 -9 116 22 192 105 38 42 70 81 70 85 0 5 -52 7 -115 5 -63
-1 -115 -1 -115 2 0 3 17 31 39 63 30 45 55 68 119 108 45 27 82 52 82 54 0 5
-131 44 -180 53 l-45 9 41 11 c46 13 87 53 153 150 l42 62 -43 0 c-24 -1 -79
-7 -122 -15 -98 -17 -121 -37 -151 -132 -21 -67 -22 -68 -80 -97 -52 -25 -68
-28 -150 -27 -87 1 -95 0 -124 -25 -27 -22 -45 -27 -129 -35 -53 -4 -109 -8
-124 -9 l-28 0 17 38 c10 20 18 38 19 40 0 1 17 -5 37 -13 78 -32 148 -13 270
76 l42 31 9 -41 c10 -48 27 -52 91 -22 55 25 91 70 114 144 22 72 35 147 27
147 -13 0 -132 -63 -173 -92 -32 -21 -45 -39 -54 -71 -7 -23 -13 -43 -14 -45
-1 -1 -40 7 -86 18 -123 29 -160 27 -205 -12 l-37 -33 7 38 7 39 -90 -47 c-50
-26 -104 -62 -121 -81 -26 -30 -30 -42 -30 -94 0 -56 -2 -60 -30 -75 -45 -24
-49 -19 -34 38 21 80 20 81 -46 47 -33 -16 -62 -30 -65 -30 -17 0 83 217 110
240 9 7 23 26 31 42 14 27 16 27 74 21 39 -4 70 -1 90 7 30 12 150 135 150
153 0 5 -48 7 -106 5 l-107 -4 36 31 c19 16 50 39 68 49 32 19 32 19 25 0 -13
-34 -11 -38 24 -50 49 -18 115 -17 151 1 16 9 60 42 98 75 l69 60 46 -14 c58
-18 59 -13 1 13 -35 16 -150 39 -203 41 -4 0 11 11 32 25 l39 23 40 -26 c61
-41 120 -36 235 18 50 23 92 46 92 50 0 8 -163 75 -206 84 -17 4 -43 2 -58 -3
-31 -13 -128 -100 -121 -111 2 -4 -26 -21 -63 -37 -105 -48 -104 -48 -69 9 33
52 178 188 202 188 23 0 75 50 97 93 27 53 70 168 65 174 -6 5 -121 -39 -184
-70 -40 -21 -54 -34 -67 -67 -19 -48 -22 -150 -4 -150 6 0 3 -7 -8 -15 -24
-18 -35 -19 -28 -1 5 13 -2 13 -47 1 -29 -8 -55 -12 -57 -10 -2 2 1 18 7 36 6
18 10 34 8 36 -6 6 -146 -45 -188 -69 -23 -12 -48 -36 -56 -52 -19 -37 -30
-155 -15 -165 7 -4 3 -24 -12 -59 -31 -73 -44 -84 -52 -44 -8 37 -16 40 -35
12 -13 -19 -18 -20 -72 -9 -52 11 -57 14 -50 33 3 12 6 46 6 76 -1 47 0 50 7
22 14 -60 41 -122 53 -122 17 1 86 55 105 81 8 12 19 40 23 63 9 46 0 216 -11
216 -4 0 -33 -24 -64 -54 -31 -30 -56 -53 -56 -52 0 13 43 123 57 147 10 17
40 46 67 66 26 19 46 30 43 26 -7 -11 34 -98 61 -132 17 -21 21 -22 41 -10 12
8 34 32 49 53 22 33 27 50 27 100 -1 34 -11 93 -23 132 -20 66 -21 74 -7 102
20 38 57 187 53 207 -2 12 -20 6 -78 -28 -41 -23 -87 -51 -102 -61 l-28 -18 0
34 c0 30 -75 196 -99 221 -10 10 -65 -126 -76 -183 -6 -31 -14 -40 -69 -68
-71 -37 -98 -63 -114 -107 -9 -25 -11 -11 -11 77 l-1 107 60 78 c33 43 78 98
100 123 37 42 41 44 62 31 64 -41 80 -45 127 -32 25 7 73 24 105 39 l60 26
-70 33 c-38 18 -87 36 -109 39 l-39 7 24 16 c14 9 42 32 64 51 27 24 36 28 28
14 -10 -18 -8 -23 16 -34 15 -7 52 -14 82 -17 65 -5 91 8 195 101 83 73 78 77
-80 79 l-114 2 -35 -34 -35 -34 -3 111 -3 111 -67 -57 c-80 -68 -109 -104
-117 -145 -6 -26 -14 -33 -56 -47 -28 -10 -69 -27 -91 -38 -23 -12 -44 -19
-46 -16 -6 5 -32 -33 -66 -96 -13 -25 -27 -48 -31 -52 -4 -5 -21 17 -39 48
l-32 56 30 34 c17 20 33 51 36 74 4 22 8 40 10 40 2 0 24 -14 49 -31 25 -17
48 -30 49 -28 16 19 38 79 42 117 4 37 0 56 -18 89 -33 59 -117 165 -127 159
-4 -3 -14 -39 -21 -80 -13 -74 -13 -75 -76 -131 -36 -31 -72 -70 -80 -88 -19
-35 -14 -100 11 -160 15 -37 15 -37 45 -22 16 8 31 15 32 15 2 0 -12 -47 -31
-104 -30 -92 -37 -105 -66 -119 l-32 -15 4 46 c5 50 -11 199 -22 210 -4 4 -15
-3 -25 -15 -23 -29 -30 -29 -30 0 0 13 12 34 26 48 34 30 63 95 64 136 0 34
-52 188 -73 218 -11 14 -19 4 -60 -82 -48 -100 -56 -142 -35 -188 10 -22 9
-29 -10 -48 l-22 -22 -62 62 -61 61 39 21 c47 24 41 27 -11 5 -20 -8 -39 -13
-42 -10 -9 9 29 56 63 77 39 24 72 66 84 109 8 29 -6 229 -17 240 -7 7 -100
-96 -134 -149 -35 -55 -36 -90 -4 -159 18 -39 22 -58 15 -70 -9 -16 -9 -16
-10 -1 0 23 -74 167 -103 203 l-24 30 -13 -40 c-18 -58 -30 -64 -30 -16 0 31
8 53 30 84 22 30 30 52 30 82 0 40 -23 152 -33 162 -2 3 -18 -12 -35 -33z
m-345 -482 c15 -8 14 -16 -20 -88 -21 -44 -37 -94 -37 -114 0 -36 39 -108 77
-142 20 -17 21 -17 51 17 16 19 35 50 42 70 10 33 13 34 36 24 17 -8 23 -17
19 -27 -4 -9 -16 -52 -28 -96 -26 -102 -20 -126 49 -192 50 -47 54 -55 53 -95
0 -46 -16 -136 -18 -104 -1 23 -70 115 -117 156 -26 22 -34 37 -34 63 0 36
-47 122 -107 196 l-37 44 -12 -39 -12 -39 -1 53 c-1 37 -10 70 -31 112 -43 85
-37 142 18 188 19 15 66 16 95 1 21 -10 21 -10 3 5 -11 9 -32 16 -48 16 -31 0
-33 6 -18 46 l11 27 24 -36 c14 -20 33 -40 42 -46z m202 -111 c1 -20 10 -62
21 -94 26 -72 21 -92 -9 -42 -15 24 -26 33 -31 26 -10 -17 -60 9 -60 31 0 10
-11 49 -25 87 -14 38 -25 72 -25 75 0 3 24 7 53 9 50 3 53 2 64 -27 6 -16 12
-46 12 -65z m209 -26 l-11 -24 -12 32 c-7 18 -16 42 -20 53 -6 16 -2 14 23 -9
27 -25 29 -31 20 -52z m106 -60 c-2 -87 -8 -146 -20 -190 -11 -35 -21 -64 -24
-64 -3 0 -22 33 -44 73 -36 69 -38 74 -27 117 15 60 42 120 53 120 5 0 18 16
29 35 12 19 24 35 28 35 4 0 6 -57 5 -126z m-754 82 c0 -24 -18 -28 -30 -6 -9
17 -8 20 10 20 11 0 20 -6 20 -14z m-247 -97 c-16 -65 -16 -68 6 -104 12 -21
20 -39 18 -42 -10 -9 -114 97 -135 138 -20 38 -5 29 18 -10 7 -13 12 -12 34 2
14 10 36 33 48 52 13 18 24 33 25 32 1 -1 -6 -32 -14 -68z m1750 -144 c-66
-66 -136 -140 -156 -165 l-36 -45 16 49 c15 44 15 52 -1 101 -13 44 -14 58 -4
81 12 29 13 29 16 -19 l3 -48 37 7 c60 10 122 44 143 78 10 17 31 62 46 100
l28 69 13 -44 14 -44 -119 -120z m-1893 152 c0 -7 12 -30 26 -50 14 -21 24
-40 22 -43 -6 -5 -162 -22 -167 -17 -3 2 -8 26 -11 54 -6 47 -5 50 14 45 12
-2 38 -8 59 -11 35 -7 37 -6 37 19 0 16 4 25 10 21 6 -3 10 -12 10 -18z m-64
-275 c-45 -91 -59 -137 -51 -172 7 -32 79 -130 95 -130 16 0 69 80 80 121 9
33 7 51 -18 124 l-28 85 36 0 c20 0 58 11 85 24 33 17 52 22 64 15 9 -5 41
-20 72 -33 55 -23 56 -24 63 -74 11 -82 36 -153 63 -178 l26 -24 -29 5 c-16 3
-54 -1 -84 -9 -30 -8 -56 -14 -57 -13 -1 1 3 22 7 47 12 59 12 210 1 210 -4 0
-47 -37 -95 -82 -61 -59 -86 -90 -87 -108 -2 -51 4 -86 22 -134 17 -46 18 -54
4 -114 -17 -71 -70 -192 -86 -192 -14 0 -11 8 12 40 21 27 22 37 16 150 -3 67
-8 125 -12 128 -7 7 -53 -39 -110 -110 l-30 -36 0 72 c0 69 -2 75 -36 117 -20
24 -55 63 -78 87 l-41 43 20 38 c11 22 32 49 47 61 44 34 73 89 73 138 l0 43
45 -36 44 -37 -33 -66z m1321 78 c4 -16 8 -18 19 -9 8 6 14 10 15 8 15 -118
15 -122 -31 -217 -31 -65 -58 -103 -117 -163 -42 -43 -79 -76 -84 -74 -4 3
-10 19 -14 35 -8 35 -13 37 -31 13 -12 -16 -13 -8 -14 54 0 39 -3 80 -7 90 -5
13 5 8 34 -15 l42 -33 15 23 c8 13 22 40 32 60 l17 37 40 -35 c23 -19 44 -34
49 -34 16 0 58 104 58 143 0 21 -11 60 -25 87 -14 28 -20 50 -14 50 6 0 13 -9
16 -20z m-1993 -126 c8 -29 50 -99 66 -109 6 -4 26 9 45 28 l35 35 0 -88 c0
-81 2 -91 26 -120 15 -17 49 -42 75 -56 27 -13 49 -28 49 -33 0 -5 -10 -36
-23 -70 l-23 -61 -28 58 c-36 74 -86 152 -97 152 -5 0 -9 -8 -9 -17 0 -27 -16
-3 -33 53 -9 28 -26 73 -38 100 l-21 49 -19 -37 c-11 -21 -22 -38 -24 -38 -3
0 -5 41 -5 90 0 87 11 117 24 64z m2329 -69 c-3 -16 -9 -55 -12 -86 l-6 -57
-38 33 c-37 32 -38 34 -24 62 8 15 20 52 28 81 l13 52 23 -27 c17 -21 21 -35
16 -58z m-896 -7 c-3 -8 -6 -5 -6 6 -1 11 2 17 5 13 3 -3 4 -12 1 -19z m948 1
c4 -6 13 -8 20 -5 7 2 2 -14 -12 -40 -40 -72 -51 -67 -37 19 7 37 17 47 29 26z
m-998 -150 c21 -48 21 -49 2 -49 -27 0 -75 -26 -125 -66 -23 -18 -66 -43 -96
-54 -57 -21 -85 -45 -111 -95 -14 -26 -16 -27 -17 -8 0 11 -19 60 -43 107 -24
47 -42 86 -41 86 1 0 36 -16 78 -36 70 -33 78 -35 113 -24 21 7 60 29 87 48
l49 36 -44 39 c-42 38 -43 38 -14 32 86 -18 78 -24 73 51 l-4 67 36 -42 c20
-23 46 -64 57 -92z m-932 -36 c-2 -90 -9 -146 -22 -187 l-18 -59 -25 52 c-22
47 -23 56 -12 99 12 45 74 222 78 222 1 0 1 -57 -1 -127z m2274 30 c22 -20 31
-36 31 -59 0 -26 -8 -36 -55 -69 -87 -59 -115 -97 -115 -153 0 -64 17 -122 36
-122 8 0 24 5 36 11 11 6 22 8 24 6 6 -6 -48 -124 -68 -151 -14 -18 -16 -17
-30 26 -11 31 -14 66 -11 109 4 53 0 80 -25 156 -16 51 -27 91 -23 91 3 -1 27
7 52 19 52 23 81 58 99 121 7 23 14 42 16 42 1 0 16 -12 33 -27z m62 -67 c-19
-18 -21 -19 -21 -3 0 10 8 29 18 42 16 22 17 22 20 3 2 -12 -6 -30 -17 -42z
m-1901 -77 c-16 -46 -30 -101 -30 -121 0 -21 -9 -52 -20 -70 -11 -18 -20 -45
-20 -60 0 -31 -17 -37 -35 -12 -9 13 -5 29 21 83 19 38 41 105 51 158 14 72
22 94 38 101 11 5 21 9 22 8 2 -2 -11 -40 -27 -87z m467 43 c-15 -16 -32 -43
-37 -61 -10 -35 -2 -191 10 -191 10 0 92 88 115 124 15 23 20 25 27 12 22 -39
34 -103 26 -138 -8 -41 3 -81 31 -113 10 -11 21 -38 25 -60 7 -46 1 -40 -47
40 -15 25 -31 44 -35 41 -5 -3 -17 -31 -26 -63 -18 -57 -88 -154 -102 -140 -4
3 1 23 11 44 31 64 24 113 -29 219 -27 51 -52 94 -56 94 -4 0 -13 -15 -20 -32
-24 -62 -73 -158 -80 -158 -15 0 -60 42 -60 55 0 8 20 26 45 41 74 43 86 66
84 156 -2 87 1 91 86 137 54 29 64 26 32 -7z m1135 -63 c8 -5 6 -16 -6 -34
l-18 -27 -20 32 -19 33 23 44 23 44 3 -43 c2 -23 8 -46 14 -49z m-905 39 c-3
-7 -5 -2 -5 12 0 14 2 19 5 13 2 -7 2 -19 0 -25z m743 -80 c0 -6 7 -7 15 -4 8
3 21 8 28 11 23 10 51 -67 42 -112 -5 -21 -9 -57 -9 -80 -1 -48 -3 -47 -39 17
-23 41 -24 47 -12 70 8 14 14 29 15 34 0 17 -163 -28 -222 -62 -15 -9 -32 -29
-39 -44 -17 -42 -36 -19 -44 55 l-8 62 -82 -87 c-52 -54 -86 -98 -90 -117 -7
-33 15 -124 38 -155 14 -19 15 -19 51 3 60 38 89 84 94 152 3 33 8 56 14 53 5
-3 6 -29 2 -60 l-6 -54 49 0 50 0 27 -59 c33 -75 33 -102 -4 -175 -18 -35 -28
-67 -24 -78 4 -14 -13 -37 -69 -92 -64 -63 -83 -76 -142 -95 -100 -33 -124
-48 -142 -89 -8 -20 -18 -43 -22 -51 -7 -14 -172 -113 -178 -107 -2 2 7 36 20
77 l23 74 60 5 c75 6 103 25 134 86 14 27 40 75 60 108 l34 58 14 -41 c7 -22
19 -41 26 -41 25 0 106 60 123 92 13 25 18 63 21 152 l4 120 -49 -41 c-26 -23
-70 -64 -96 -92 -39 -42 -49 -48 -54 -33 -3 9 -18 49 -33 87 -16 39 -31 94
-35 124 -3 29 -17 87 -30 128 -13 41 -22 80 -20 87 25 70 27 72 36 49 8 -22 9
-22 45 -7 59 25 101 62 118 104 14 34 19 39 46 37 17 -1 30 -8 30 -15 0 -21
46 -106 69 -126 21 -19 22 -19 51 9 39 38 62 89 62 139 l0 41 24 -54 c13 -29
24 -58 24 -63z m-1750 -3 c25 -13 30 -22 30 -50 0 -19 11 -60 25 -90 21 -48
28 -55 45 -50 15 5 18 3 14 -8 -5 -13 -134 -69 -142 -62 -2 2 7 23 19 47 31
60 30 122 -3 181 -15 26 -24 47 -22 47 3 0 18 -7 34 -15z m2228 -41 c10 -18 8
-23 -14 -32 -23 -11 -24 -10 -18 16 7 29 14 45 19 40 1 -2 7 -12 13 -24z
m-2283 -234 c-2 -4 -34 -21 -70 -39 -35 -18 -78 -43 -94 -57 l-29 -24 -6 23
c-9 33 -7 97 2 97 5 0 17 -9 27 -20 10 -11 21 -20 26 -20 10 0 47 65 55 95 l6
24 44 -36 c23 -20 41 -39 39 -43z m324 -7 c16 -33 18 -43 7 -34 -13 11 -46 66
-46 78 0 1 4 3 8 3 4 0 18 -21 31 -47z m-206 -4 c-6 -6 -19 -9 -29 -6 -17 3
-16 5 6 14 28 12 39 8 23 -8z m1601 -42 c4 -15 24 -45 46 -67 35 -35 39 -43
30 -61 -19 -34 -51 -20 -65 28 -7 24 -23 59 -35 80 -21 36 -21 38 -3 50 10 8
19 10 20 6 0 -4 4 -20 7 -36z m-1634 7 c0 -8 -4 -12 -10 -9 -5 3 -10 10 -10
16 0 5 5 9 10 9 6 0 10 -7 10 -16z m1888 -10 c6 3 -6 -25 -26 -64 -24 -48 -41
-70 -54 -70 -17 0 -17 2 -2 38 9 20 24 56 33 80 14 36 18 40 28 26 6 -9 16
-13 21 -10z m-1964 -81 c-4 -54 -10 -104 -14 -112 -5 -9 -17 16 -35 68 -26 80
-27 83 -9 96 11 7 28 20 39 29 11 8 21 16 23 16 1 0 -1 -44 -4 -97z m382 76
c3 -6 23 -19 43 -28 20 -9 55 -29 79 -45 39 -27 43 -28 60 -12 24 21 29 20 36
-7 3 -12 20 -44 39 -70 l34 -48 31 29 c17 16 34 27 37 24 3 -3 5 -39 5 -80 0
-63 -2 -73 -16 -68 -9 3 -20 6 -24 6 -5 0 -18 19 -29 43 -34 73 -35 74 -73 45
-42 -32 -62 -24 -84 33 -10 22 -34 52 -58 71 -64 49 -116 100 -110 110 7 11
22 10 30 -3z m1984 -122 c0 -8 -9 -22 -20 -32 -22 -20 -27 -7 -10 26 12 22 30
25 30 6z m-2139 -17 l28 -21 13 21 c7 11 20 20 28 20 12 0 15 -17 15 -99 0
-95 1 -101 28 -129 15 -15 24 -32 20 -37 -5 -4 -3 -5 3 -2 7 4 33 -4 58 -18
l47 -25 10 28 c6 15 13 39 16 55 10 51 19 27 31 -85 7 -61 17 -118 22 -127 5
-9 10 -11 10 -6 0 6 18 -26 39 -71 43 -92 65 -111 134 -120 l48 -7 -33 -19
c-18 -11 -57 -43 -85 -71 l-52 -51 -45 32 c-24 18 -47 32 -50 32 -3 0 -6 -12
-6 -27 0 -17 -4 -23 -9 -17 -14 13 -15 132 -2 174 15 49 14 96 -4 134 -15 30
-129 167 -145 174 -11 4 -33 -193 -26 -232 7 -37 51 -82 109 -113 l32 -17 -38
-8 c-38 -8 -41 -7 -133 73 -52 44 -94 83 -94 86 0 2 15 -5 34 -16 18 -12 36
-21 39 -21 12 0 37 85 37 128 0 53 -25 101 -98 185 -37 42 -40 50 -31 75 6 14
10 49 9 77 -2 77 -4 76 41 45z m1033 -31 c9 7 7 -8 -8 -48 l-20 -59 26 -51 27
-51 -32 0 c-18 0 -42 -3 -54 -6 -20 -6 -21 -4 -12 33 4 21 11 78 15 127 7 89
7 89 26 66 14 -17 21 -20 32 -11z m610 -71 c-57 -57 -136 -118 -155 -118 -20
0 32 50 67 65 17 7 53 38 80 69 27 31 50 52 52 46 3 -7 -18 -34 -44 -62z
m-1319 -7 c3 -5 1 -12 -5 -16 -5 -3 -10 1 -10 9 0 18 6 21 15 7z m423 -10 c27
-23 27 -27 2 -112 -33 -108 -51 -89 -45 46 2 44 4 81 4 83 2 7 18 -1 39 -17z
m1178 -13 c-66 -91 -77 -114 -73 -149 7 -53 0 -58 -67 -48 -33 4 -72 5 -87 2
-30 -6 -86 -60 -115 -111 -16 -29 -17 -34 -4 -42 12 -8 7 -17 -27 -51 l-41
-42 -32 26 c-17 15 -43 30 -57 33 -32 8 -114 -1 -183 -22 l-54 -16 34 -29 c19
-16 63 -43 97 -61 56 -30 65 -32 101 -22 l40 11 -9 -31 c-5 -17 -9 -48 -9 -69
0 -55 -25 -101 -93 -174 -50 -53 -145 -133 -158 -133 -3 0 -2 25 1 57 l5 56
68 27 c122 50 142 73 150 179 l5 63 -52 -4 c-80 -7 -122 -38 -162 -121 -25
-54 -51 -86 -113 -144 -79 -73 -93 -96 -95 -156 -1 -21 -7 -32 -23 -38 -18 -7
-23 -4 -28 20 -3 15 -30 59 -59 98 l-54 72 39 25 c41 28 62 60 74 114 6 31 9
33 37 27 56 -13 95 3 163 67 36 33 62 64 59 69 -10 16 -187 11 -212 -7 -30
-21 -28 1 3 30 30 28 86 52 140 61 30 5 51 18 85 54 25 26 71 65 102 85 l56
38 56 -13 c80 -17 114 -4 218 85 47 41 108 86 135 100 26 14 71 43 98 65 59
46 63 48 41 19z m-2010 -53 c-3 -11 -6 -33 -7 -50 l0 -30 -11 25 c-5 14 -18
44 -29 67 l-18 42 35 -16 c28 -14 34 -22 30 -38z m-200 -22 c-10 -10 -19 5
-10 18 6 11 8 11 12 0 2 -7 1 -15 -2 -18z m849 -25 c63 -31 85 -58 47 -58 -19
0 -98 -47 -145 -86 -24 -20 -31 -22 -55 -12 -15 7 -29 13 -30 14 -2 1 15 27
37 57 22 29 46 68 52 85 6 18 15 32 20 32 5 0 38 -14 74 -32z m-1561 -99 c-1
-5 -2 -13 -2 -18 -3 -14 -70 10 -78 28 -3 9 -8 28 -10 43 l-4 28 48 -37 c26
-19 47 -40 46 -44z m910 -89 c5 -8 -5 -1 -22 15 l-31 30 17 52 17 51 5 -66 c3
-37 9 -74 14 -82z m-671 93 c20 -39 22 -54 15 -78 -5 -16 -11 -36 -13 -43 -3
-8 -23 -3 -69 20 -53 26 -65 37 -70 61 -3 17 -5 31 -4 31 2 1 26 13 53 27 28
15 53 27 57 28 4 0 18 -20 31 -46z m382 -54 l26 -36 -36 -74 c-19 -41 -38 -91
-41 -111 -4 -21 -9 -38 -13 -38 -3 1 -28 21 -56 45 l-49 45 41 35 c53 45 78
107 69 173 l-6 47 20 -25 c11 -14 31 -41 45 -61z m-436 -103 c36 -23 40 -29
35 -55 -8 -39 15 -79 77 -135 l51 -46 -34 0 c-30 0 -36 4 -46 34 -7 19 -43 67
-80 107 -48 52 -67 80 -68 101 -2 33 3 33 65 -6z m1471 2 c0 -17 -43 -98 -52
-98 -4 0 -8 10 -8 23 0 12 -7 35 -15 51 -8 15 -15 29 -15 30 0 1 20 3 45 4 28
1 45 -3 45 -10z m937 -95 c-46 -142 -45 -152 20 -224 l37 -41 -29 -24 c-17
-13 -55 -37 -86 -54 l-56 -30 -10 23 c-10 21 -11 21 -32 -14 -11 -20 -33 -41
-47 -48 l-26 -12 31 40 c53 66 81 138 81 208 0 61 24 143 41 143 5 0 9 7 9 15
0 17 80 108 87 101 3 -3 -6 -40 -20 -83z m1288 72 c-16 -9 -49 -37 -72 -63
-22 -26 -45 -43 -49 -39 -5 5 -1 13 9 18 22 13 22 27 0 31 -26 5 76 66 112 67
l30 1 -30 -15z m-3921 -47 c14 -29 33 -62 41 -72 15 -19 16 -19 56 20 l42 39
-7 -40 c-3 -22 -6 -52 -6 -66 0 -25 -3 -27 -57 -32 -43 -3 -62 -1 -75 11 -16
14 -18 13 -18 -1 0 -35 -16 -14 -55 70 -22 47 -42 91 -44 96 -2 6 10 7 31 3
26 -5 39 -2 48 9 7 8 14 15 15 15 1 0 14 -24 29 -52z m2790 0 c-8 -29 -14 -62
-14 -73 0 -12 -14 6 -35 45 -19 35 -35 65 -35 66 0 2 17 5 38 7 20 2 42 4 48
5 8 1 7 -14 -2 -50z m-1975 -10 l50 -53 -32 -12 c-45 -16 -47 -16 -47 11 0 13
-7 42 -15 65 -8 22 -12 41 -10 41 2 0 26 -24 54 -52z m3036 -85 l48 -27 -59
-16 c-83 -24 -121 -46 -139 -79 l-15 -29 -76 36 -77 37 54 5 c45 4 66 13 119
52 36 26 72 47 81 48 9 0 38 -12 64 -27z m-391 -27 c-3 -8 -13 -12 -25 -9 -27
7 -24 23 6 23 17 0 23 -4 19 -14z m505 -45 c-18 -23 -34 -41 -36 -41 -9 0 38
79 49 83 23 8 20 -1 -13 -42z m-359 -58 c36 -13 68 -27 72 -31 3 -4 3 -28 -1
-54 -7 -44 -6 -48 13 -50 32 -2 38 -2 81 5 l39 6 -30 -29 -30 -30 -62 25 c-99
40 -138 34 -212 -34 l-45 -41 27 -24 c23 -21 25 -26 13 -36 -8 -7 -12 -17 -9
-22 4 -6 0 -14 -7 -19 -24 -15 -36 -10 -32 15 3 12 0 41 -6 62 -10 33 -9 40 5
49 33 20 84 67 135 127 l52 60 -126 -4 c-123 -3 -126 -4 -156 -32 -17 -16 -33
-38 -37 -48 -3 -10 -11 -18 -17 -18 -7 0 -13 -17 -13 -39 -2 -44 9 -51 78 -51
28 0 40 -5 49 -22 17 -31 14 -107 -4 -125 -14 -14 -148 -56 -155 -48 -2 1 11
31 28 65 l32 63 -42 -7 c-23 -4 -73 -17 -111 -31 -38 -13 -69 -22 -69 -19 0 3
8 21 19 42 10 20 26 61 35 90 15 44 21 52 42 52 68 0 123 49 184 163 l34 64
80 -25 c45 -13 110 -35 146 -49z m-3209 12 c35 -7 37 -8 42 -60 4 -39 -1 -72
-18 -126 l-23 -74 -20 48 c-32 71 -35 57 -6 -23 15 -38 23 -77 20 -86 -5 -13
-10 -12 -35 8 -22 18 -30 34 -33 69 -3 28 -17 67 -36 98 -37 60 -38 64 -13 56
16 -5 22 1 30 32 6 21 11 46 11 57 0 14 5 17 23 13 12 -3 38 -9 58 -12z m629
-5 c0 -5 -7 -7 -15 -4 -8 4 -15 8 -15 10 0 2 7 4 15 4 8 0 15 -4 15 -10z m554
-122 c-7 -40 -13 -91 -14 -113 l0 -40 -19 24 c-12 15 -20 47 -23 83 -3 39 -11
68 -26 88 l-22 29 53 3 c28 2 55 2 58 1 3 -1 0 -35 -7 -75z m1386 35 c0 -16 9
-48 20 -72 20 -44 19 -61 -4 -61 -7 0 -31 -13 -54 -29 l-40 -30 -7 80 c-4 43
-10 79 -13 79 -4 0 -28 -21 -55 -47 -42 -41 -48 -44 -42 -23 4 14 13 28 19 33
31 21 162 96 169 96 4 1 7 -11 7 -26z m-2310 -31 c0 -5 -10 -17 -22 -28 -20
-18 -21 -18 -15 -1 4 10 7 23 7 28 0 5 7 9 15 9 8 0 15 -4 15 -8z m170 -46
c44 -13 44 -13 20 -26 -14 -7 -35 -20 -47 -28 -23 -14 -23 -13 -23 27 0 22 1
41 3 41 1 0 22 -6 47 -14z m2290 0 c0 -2 -7 -7 -16 -10 -8 -3 -12 -2 -9 4 6
10 25 14 25 6z m-2550 -31 c25 -13 30 -22 30 -53 0 -40 43 -142 60 -142 13 0
106 91 112 110 4 12 16 11 79 -8 41 -11 85 -22 98 -24 19 -2 5 -15 -74 -66
-97 -64 -125 -98 -125 -152 0 -11 -2 -20 -4 -20 -11 0 -191 81 -199 89 -6 6
-1 27 12 53 28 59 27 117 -4 178 -14 28 -23 50 -20 50 3 0 19 -7 35 -15z
m1274 -57 c-16 -76 -18 -133 -4 -159 6 -11 7 -19 1 -19 -15 0 -32 61 -38 143
-6 82 -1 96 38 97 15 0 15 -6 3 -62z m-609 -38 c44 -21 89 -47 99 -59 17 -19
17 -22 1 -71 -32 -96 -23 -131 51 -202 40 -40 54 -46 54 -25 0 8 3 8 9 -2 20
-31 2 -38 -57 -20 -31 10 -68 20 -82 23 -24 5 -25 8 -22 61 2 31 -1 69 -8 85
-6 15 -48 63 -93 107 l-81 78 -11 -74 -10 -73 -44 52 c-39 46 -45 50 -54 34
-6 -10 -11 -69 -11 -131 l-1 -114 -40 7 c-22 3 -42 8 -44 9 -1 2 7 14 18 27
24 25 44 88 61 189 11 63 13 67 49 82 21 9 48 28 61 42 30 31 43 29 155 -25z
m1379 -100 c6 0 28 8 48 18 l35 18 16 -50 c9 -27 15 -51 14 -52 -8 -6 -187
-12 -187 -6 1 4 7 18 15 32 8 14 15 48 15 75 l2 50 15 -42 c8 -24 20 -43 27
-43z m285 -60 c16 0 47 7 70 15 38 13 41 13 41 -4 0 -25 -52 -34 -137 -25
l-64 6 28 30 28 30 3 -26 c3 -21 9 -26 31 -26z m684 43 c-7 -2 -19 -2 -25 0
-7 3 -2 5 12 5 14 0 19 -2 13 -5z m-1167 -40 c21 -28 17 -33 -31 -33 -50 0
-57 11 -23 34 29 20 38 20 54 -1z m-1984 -165 l23 -18 -36 0 c-53 0 -205 28
-242 45 l-32 15 32 -6 c18 -3 58 -6 88 -7 50 -1 59 2 87 31 l32 31 12 -37 c7
-20 23 -44 36 -54z m2907 13 c88 -31 121 -51 84 -51 -12 0 -28 -6 -35 -13 -17
-17 -100 -57 -118 -57 -8 0 5 20 29 44 41 42 42 44 19 49 -44 11 -186 20 -214
13 -16 -4 -45 -25 -65 -47 l-37 -40 -103 28 -104 28 103 12 c119 14 262 39
295 53 36 14 57 11 146 -19z m-2670 -27 c2 -2 -17 -4 -42 -4 -44 0 -47 2 -47
25 l0 25 43 -21 c23 -12 44 -23 46 -25z"/>
<path d="M10056 6133 c-9 -40 -16 -77 -16 -83 0 -6 -31 -40 -69 -75 -92 -87
-100 -107 -76 -201 10 -41 23 -74 28 -74 22 0 97 52 117 81 12 16 24 48 27 69
3 22 7 40 9 40 2 0 23 -13 46 -30 22 -16 45 -30 50 -30 5 0 18 21 30 46 38 87
12 165 -95 289 l-34 40 -17 -72z"/>
<path d="M8314 5477 c-57 -119 -60 -156 -16 -218 66 -92 60 -89 93 -49 16 19
36 54 46 78 14 38 15 50 3 94 -14 58 -57 169 -71 182 -5 5 -28 -31 -55 -87z"/>
<path d="M10867 5451 c-48 -16 -99 -36 -112 -45 -35 -23 -54 -66 -62 -137 l-6
-62 49 5 c27 3 58 9 69 13 12 5 -1 -14 -31 -46 -82 -87 -94 -107 -94 -156 0
-43 35 -143 50 -143 17 0 92 63 111 93 17 28 19 47 18 153 -2 108 0 125 18
150 22 32 62 108 86 167 19 45 19 45 -96 8z"/>
<path d="M1324 5364 c18 -122 38 -188 67 -215 27 -25 85 -46 139 -52 25 -2 25
-1 24 66 0 51 -6 74 -21 95 -24 33 -95 87 -164 126 l-52 29 7 -49z"/>
<path d="M4864 5341 c-155 -46 -183 -74 -192 -190 l-5 -64 44 7 c24 4 54 9 67
13 17 4 7 -10 -37 -57 -81 -85 -96 -118 -81 -178 6 -26 19 -62 29 -80 l17 -33
45 30 c25 17 55 49 68 72 22 39 23 49 18 160 -4 97 -2 120 10 131 15 12 85
145 97 186 9 27 3 27 -80 3z"/>
<path d="M814 5183 c3 -10 10 -38 16 -63 23 -86 42 -135 63 -158 22 -24 102
-52 149 -52 26 0 28 3 28 38 0 59 -20 114 -51 143 -29 27 -178 109 -199 109
-6 0 -9 -8 -6 -17z"/>
<path d="M6644 4863 c13 -53 91 -198 116 -215 17 -12 49 -19 99 -22 l73 -4 -4
42 c-7 61 -36 115 -77 141 -20 13 -76 37 -125 54 l-88 31 6 -27z"/>
<path d="M6463 4723 c-29 -2 -53 -7 -53 -11 0 -9 100 -106 148 -145 23 -19 45
-27 72 -27 40 0 150 37 150 51 0 17 -67 94 -98 112 -35 21 -119 28 -219 20z"/>
<path d="M6720 4506 c-19 -7 -64 -28 -100 -46 l-65 -33 60 -28 c158 -74 205
-74 285 -2 48 43 50 47 34 64 -46 51 -142 71 -214 45z"/>
<path d="M10975 4491 c-16 -10 -46 -35 -65 -55 l-35 -37 30 -24 30 -24 -46 -1
c-32 0 -55 -7 -74 -22 -29 -23 -85 -95 -85 -110 0 -17 85 -48 132 -48 39 0 57
7 120 50 112 76 136 100 103 100 -33 0 -9 17 88 64 l102 48 -45 20 c-138 60
-205 70 -255 39z"/>
<path d="M695 4386 c-33 -12 -82 -34 -110 -48 l-50 -26 75 -36 c113 -52 160
-62 202 -42 19 9 52 34 73 56 34 35 37 41 24 56 -18 22 -107 64 -134 63 -11 0
-47 -10 -80 -23z"/>
<path d="M4965 4381 c-39 -17 -105 -81 -105 -102 0 -5 11 -15 25 -21 35 -16
31 -25 -9 -20 -19 2 -47 -3 -65 -12 -30 -16 -100 -100 -101 -122 0 -15 65 -44
114 -50 48 -7 102 19 199 93 55 43 59 47 39 56 -18 8 -7 16 79 58 54 27 99 51
99 54 0 10 -104 53 -168 70 -72 18 -59 18 -107 -4z"/>
<path d="M6400 3908 c0 -3 11 -36 24 -74 29 -86 58 -144 83 -166 19 -17 101
-38 151 -38 23 0 24 2 20 49 -10 100 -55 147 -193 200 -27 11 -58 22 -67 26
-10 4 -18 5 -18 3z"/>
<path d="M380 3786 c0 -18 67 -187 83 -210 26 -37 74 -56 142 -56 49 0 55 2
55 21 0 49 -25 113 -55 144 -37 37 -225 121 -225 101z"/>
<path d="M11495 3624 c-16 -9 -49 -34 -72 -55 l-43 -39 42 -30 c87 -63 128
-62 278 7 87 40 87 42 -34 92 -95 39 -134 45 -171 25z"/>
<path d="M6423 3612 c-9 -6 6 -28 50 -74 69 -72 120 -108 154 -108 27 0 153
40 153 49 0 3 -17 29 -38 56 -54 72 -86 85 -207 85 -55 0 -106 -4 -112 -8z"/>
<path d="M5450 3492 c-25 -16 -55 -41 -68 -55 l-24 -25 49 -33 c42 -30 55 -34
113 -34 54 0 78 7 148 39 45 21 82 42 82 46 0 12 -172 81 -215 86 -33 5 -48 0
-85 -24z"/>
<path d="M390 3492 c0 -5 38 -45 84 -90 79 -78 86 -82 128 -82 46 0 134 25
143 41 14 21 -51 101 -102 128 -25 13 -253 15 -253 3z"/>
<path d="M6120 3288 c-41 -5 -79 -13 -83 -17 -10 -10 121 -123 170 -146 42
-20 74 -15 150 21 l54 25 -20 27 c-33 47 -76 82 -112 92 -38 11 -54 11 -159
-2z"/>
<path d="M804 2656 c-144 -72 -143 -68 -33 -104 152 -50 175 -48 245 23 31 31
52 60 48 66 -11 19 -107 59 -140 59 -18 0 -71 -20 -120 -44z"/>
<path d="M10158 883 c-16 -2 -28 -7 -28 -10 0 -21 65 -134 85 -147 43 -28 245
-71 245 -52 0 29 -109 185 -140 201 -27 14 -99 17 -162 8z"/>
<path d="M10924 812 c-17 -9 -46 -29 -65 -44 l-33 -27 24 -26 c35 -37 93 -65
135 -65 48 0 227 60 222 74 -2 6 -45 32 -95 58 -100 52 -138 58 -188 30z"/>
<path d="M7025 699 c-44 -11 -83 -23 -87 -27 -9 -9 84 -77 149 -111 23 -11 55
-21 70 -21 l28 0 -3 -83 c-3 -72 -1 -86 18 -110 19 -24 114 -87 131 -87 4 0
15 29 24 65 17 60 17 68 2 107 -9 24 -35 65 -57 92 -42 51 -42 68 1 81 17 6
18 8 3 30 -9 14 -36 38 -62 55 -55 36 -99 38 -217 9z"/>
<path d="M10535 681 c-16 -10 -46 -35 -65 -55 -34 -37 -35 -38 -15 -53 37 -28
100 -53 136 -53 23 0 72 18 140 51 l104 51 -45 20 c-138 61 -204 71 -255 39z"/>
<path d="M7447 533 c-65 -135 -62 -166 21 -263 l30 -35 21 25 c43 52 64 109
58 159 -6 47 -66 211 -78 211 -3 0 -27 -44 -52 -97z"/>
<path d="M11210 520 c-46 -7 -60 -14 -87 -45 -31 -36 -68 -123 -58 -134 13
-12 137 -13 166 -1 42 18 183 171 167 182 -16 9 -113 8 -188 -2z"/>
<path d="M6773 380 c-43 -23 -89 -49 -102 -59 l-25 -19 97 -31 c54 -17 114
-31 133 -31 45 0 94 29 134 79 34 44 32 47 -41 80 -66 31 -106 27 -196 -19z"/>
<path d="M9310 392 c-25 -16 -54 -39 -64 -50 -18 -21 -18 -23 -1 -42 25 -28
96 -60 132 -60 46 0 233 72 233 90 0 14 -166 83 -210 87 -37 4 -53 -1 -90 -25z"/>
<path d="M10091 324 c-17 -14 -44 -46 -61 -70 l-30 -45 43 -19 c23 -11 64 -20
93 -20 45 0 58 5 120 50 86 61 130 98 124 103 -12 9 -143 27 -198 27 -50 0
-66 -4 -91 -26z"/>
<path d="M9083 264 c-34 -17 -163 -147 -163 -164 0 -6 46 -10 113 -10 94 0
117 3 144 20 38 23 101 136 84 153 -18 18 -143 19 -178 1z"/>
<path d="M7134 231 c-85 -40 -148 -81 -138 -91 9 -8 148 -54 196 -64 16 -4 42
0 60 8 43 18 123 100 113 116 -12 19 -107 60 -140 60 -16 0 -57 -13 -91 -29z"/>
</g>
</svg>
