<svg version="1.0" xmlns="http://www.w3.org/2000/svg" width="836" height="909.3" viewBox="0 0 627 682"><path d="M360 12a578 578 0 00-7 47l-13-24c-5-8-12-17-13-16l4 9c8 12 16 34 16 43 0 2 0 2-5-1l-8-3c-3 0-7 4-7 7 0 1 1 1 3-2l3-3 4 2c6 2 10 7 11 14 1 6 1 23-1 44l-2 11-4-9-12-21c-16-26-18-30-22-45l-2-8 2-4c3-6 6-9 10-7l5 1c4 0 1-2-4-3l-5-3-1-1-1 1-4 6-4 6v8l2 11-2-1c-14-19-21-28-21-25l8 13 21 40 1 3-6-4-17-8-15-6c-12-6-20-19-23-37-2-9-3-11-2-3 1 15 6 29 12 36l3 3-4-1h-3l13 6c26 11 38 18 47 29 5 6 9 13 8 14l-4 1c-5 2-20 13-20 14l-3 6-4 6 9-8c10-9 17-14 21-14 2 0 3 1 6 7 4 9 10 28 11 39l1 17c-1 9-5 32-7 33l-4-6c-5-11-12-22-19-29s-11-8-17-5c-6 2-7 4-2 3 7-2 9-1 13 2 4 4 12 17 14 22 1 3 1 3-2 3-4-1-24-10-32-15-7-4-8-4-8-3l9 7 8 6-4 1c-6 0-14 3-18 7-5 4-4 5 2 1 11-7 28-6 44 2 5 3 7 6 8 16 1 7 1 8-4 23-4 10-9 32-9 38 0 7-1 8-5 1-6-7-24-25-44-43-26-23-40-37-46-48-4-7-5-10-2-15s12-14 17-15c7-2 14 2 19 11l2 1-3-6c-2-4-4-6-7-8l-4-2 5-2c7-3 19-3 27 0 7 3 9 3 4 0a48 48 0 00-21-6l4-7c4-7 7-15 8-26 2-16 1-16-2 0-5 18-12 30-22 34-7 2-28 13-31 15l-3 2-1-3a167 167 0 0119-80l9-18-16 21c-7 11-14 24-18 37l-4 9-1-4-12-13c-13-14-13-15-14-29l-1-11c-3 0-2 22 1 29l1 3-3-2-3-1 9 8c9 7 14 13 17 21 2 4 3 6 3 25v21l-6-3-29-10c-25-7-30-10-33-15-4-7-1-16 11-28l7-8-5 2-4 3 1-3c2-5 1-14-1-20-1-8-4-11-2-4l1 13c0 8-1 9-4 16-5 9-9 14-10 12-3-8-19-15-33-14-7 1-5 1 6 3 9 1 15 4 19 8s5 6 6 16c1 7 1 8 5 11 5 4 22 12 45 22 29 11 28 10 34 21 9 15 18 27 39 48l11 11h-4c-12-2-29-6-31-8-5-2-17-12-22-18-3-3-5-6-5-8 0-4-2-12-6-18-4-10-7-12-32-24l-23-10c0 1-1 1 9 7l9 5h-19c-20 1-26 2-26 3l15 1c18 1 29 3 38 7 10 5 12 7 16 14 3 7 5 15 4 16l-10-4c-12-6-23-9-34-12-11-1-14-3-15-6-1-2-1-2-2-1l1 5 2 2-5 1-6 2c-1 1 1 1 8 1h17c13 3 41 16 44 22l4 10 4 7-19-1c-18 0-31 1-31 3h11c21 0 41 3 53 10 10 5 16 7 46 16 13 3 26 7 29 9 13 5 20 12 23 23l3 19h-2c-6-2-18-4-33-5-24-2-33-4-57-16-11-5-13-7-20-23-7-17-8-15-2 3l2 6-14-13-15-13c-2-1 0 2 9 12l9 10h-12c-13 0-12 1 1 2l12 3c2 0 8 6 14 12l16 13 5 4-3 1c-7 1-37-2-47-6-20-7-48-28-51-38s-3-22 0-40c1-8-1-5-4 4l-1 20v13l-4-4-15-20c-16-23-16-19 1 11 13 25 22 36 38 51l8 8h-3a572 572 0 01-92-17l17 7 16 5-6 2c-8 2-13 4-17 8-3 4-3 5-3 10l-1 7 1 1 1-6c1-7 5-11 12-14 5-2 7-2 19-2a180 180 0 0143 6l-5 1c-12 3-24 10-30 18-3 3-7 10-7 12 0 1 2 0 4-4 3-5 11-12 19-16 10-5 17-6 37-6 16 1 19 1 28 4 13 4 29 6 54 7 31 1 50 3 66 7l7 1v6c-3 26-2 56 2 92 2 21 3 37 1 71-3 43-2 39-9 48l-11 12-4 5-23 2c-24 3-31 5-38 9s-15 11-18 18c-4 7-7 19-6 20l5-5c3-3 7-7 9-7 5-2 18-4 43-5 20-1 26-2 35-6 8-4 8-4 6 1-4 6-4 10-3 15 1 3 4 5 5 5l1-3c0-5 2-6 13-10s16-6 22-11l4-4 4 2c7 4 13 5 28 7 8 0 20 2 26 4 25 5 46 8 46 6a189 189 0 00-30-24 434 434 0 0177 20c2-1-11-13-22-20-22-15-52-26-81-30-6-1-6-1-9-19-4-24-4-25-4-63V376l3-5c5-5 16-10 25-12 11-2 32-1 63 4 40 6 42 5 13-2l-17-6 13-1 21-4c13-3 19-2 42 12l15 8c3 0-22-19-31-23l-6-4 18-10c22-12 28-14 42-15 11 0 15-2 6-2l-11-1h-5l17-10 16-11-19 6-7 3 3-5c7-8 21-30 21-31 0-2-2 0-14 15l-20 22c-7 6-9 7-21 13l-14 6-1-3c-1-9-4-15-12-19-7-3-8-2-2 2 8 5 10 9 10 16 0 4-1 5-4 7l-11 5c-8 2-10 2-36 3a1210 1210 0 00-62 2l63-42c13-7 26-12 36-15 7-2 7-2 14 0a294 294 0 0132 10l-14-8-14-7 6-1 34-4c6 0 4-2-3-2l-5-1 7-3c8-4 14-9 17-14 5-7 3-7-3-1-10 10-22 14-51 18-24 2-33 4-43 8-12 4-15 4-16 1-1-6 9-28 20-45 8-13 15-20 26-25 12-5 21-7 33-4l9 1c1-1-7-4-16-6l-9-1 7-5c10-6 7-6-5 0l-15 7-5 2 2-3a717 717 0 0134-31c-2-2-27 15-45 30-6 5-10 8-10 6 6-14 9-23 8-23l-7 13c-7 17-9 19-17 29a168 168 0 00-19 28l-2-3c-2-4-2-2-1 4v9l-3 13c-1 11-5 18-11 23-5 4-24 15-25 14l2-4c5-6 6-10 7-19 1-11 4-17 11-25 5-6 6-8 4-8a99 99 0 00-18 20l-2 7c0 11-3 16-13 26-10 9-15 12-37 20-19 7-19 7-21 2v-32c4-12 7-16 35-32 32-20 48-31 63-46 12-12 18-21 24-33 10-20 10-21 14-24l4-3c0-2-3-1-6 1l-4 3 2-7v-18l-2 7c-1 10-5 24-10 34-5 11-11 20-20 29-10 10-29 25-21 17l16-26c5-10 7-18 8-31 0-10 1-12 3-16l3-6c0-2-2-1-4 4l-4 4-4-8c-4-6-4-8-4-13 1-12 13-30 38-56 10-9 17-17 17-18a314 314 0 00-54 55l-5 8v-6c1-8 6-24 12-37 5-10 6-14 2-8l-16 34c-5 17-4 29 4 45 3 7 3 8 3 16 0 6 0 10-2 16l-12 25-1-5c-1-6-4-12-10-19l-17-17 5 7c6 7 12 15 15 22 3 6 3 16 1 21a199 199 0 01-62 50c-1-1 0-6 2-13 7-23 8-29 9-53v-22l4-8 14-20c19-26 21-28 26-26l7 5 5 3c1-1-4-10-7-13-3-2-5-3-8-3-4 0-4 0-2-10 3-15 4-50 1-50l-1 10-4 22-3-3-10-10 4 6c8 12 8 16 3 28-3 9-6 14-18 26-10 11-10 11-10 8-2-7-2-40-1-48 1-12 5-25 7-30 3-5 9-11 14-13 4-2 4-3 0-3l-4 1 4-7 4-11c0-3 0-3-2 2-3 6-7 12-16 22l-6 10-2 4v-7l-1-29-1-20z"/></svg>