<?xml version="1.0" encoding="iso-8859-1"?>
<!-- Generator: Adobe Illustrator 23.0.3, SVG Export Plug-In . SVG Version: 6.00 Build 0)  -->
<svg version="1.1" xmlns="http://www.w3.org/2000/svg" xmlns:xlink="http://www.w3.org/1999/xlink" x="0px" y="0px"
	 viewBox="0 0 432 162.957" style="enable-background:new 0 0 432 162.957;" xml:space="preserve">
<g id="realistic-cloud-silhouette-clip-art-5">
	<path style="stroke:#000000;stroke-width:2;stroke-miterlimit:10;" d="M378.177,126.856c-4.981,5.813-22.121,9.376-29.36,4.988
		c-2.688,3.406-1.696,11.733-11.972,11.574c-9.716-0.15-12.292,11.071-22.334,8.205c-10.381,5.246-55.237,1.484-59.83,2.461
		c-5.77,6.201-28.042,2.539-31.06,2.869c-15.049-9.13-24.802,2.083-39.485,4.747c-6.551,1.189-10.487-2.084-16.359-2.962
		c-3.368-0.503-5.501,0.451-9.097-1.23c-4.69-2.193-5.313-4.915-9.777-7.381c-6.073,0.206-12.686-3.281-18.775-5.806
		c-5.683,2.184-11.196-3.107-14.599-2.812c-4.64,3.95-9.024-0.248-13.733,1.369c-7.008,2.406-12.511-2.052-18.636-3.998
		c-4.427-1.406-27.256,1.14-21.551-10.021c2.345-4.587,11.183-3.767,15.349-3.491c4.77,0.317,7.346-0.137,11.566-0.895
		c3.812-0.685,6.89,0.675,10.516,0.642c3.546-0.032,4.001-1.046,7.146-2.452c6.73-3.008,12.817-1.662,19.916-0.845
		c5.777,0.664,10.367-1.635,15.975-1.784c3.356-0.089,15.302,5.103,18.284,2.325c6.09-5.674-11.826-6.479-14.278-6.516
		c-7.963-0.119-12.145-0.777-18.462-5.285c-12.891-2.439-11.45-8.053-18.235-9.626c-8.178,1.75-9.445-3.465-14.901-4.754
		c-10.143-2.396-9.531-10.983-11.365-12.129c-8.154,2.936-35.028,2.639-42.815-2.875c-11.538,3.917-15.73-3.7-20.886-5.609
		c-7.886,1.157-13.343-0.982-15.847-3.307C-7.268,62.194,19.41,60.173,23.718,59.914c7.45-0.448,4.974-3.621,9.636-7.532
		c6.381-5.355,35.519-0.679,37.571-10.446c0.961-4.575,1.167-3.741,3.931-7.079c1.641-1.982-20.426,1.276-20.593-6.924
		c-4.333-3.303-7.136-8.191,0.439-9.829c6.103-1.32,12.898-0.925,18.85-1.375c6.837-0.517,8.783-6.292,15.019-7.968
		c5.924-1.592,36.859,2.703,42.976,2.533c6.608-0.183,8.767-3.478,14.322-6.063c4.723-2.198,12.098-2.545,17.142-1.063
		c2.52,0.74,4.083,3.059,6.379,3.784c4.144,1.307,4.97-0.331,8.638-1.767c4.257-1.665,7.76-0.751,12.352-1.576
		c7.267-1.306,12.978-1.506,20.472-1.049c5.973,0.364,13.347,1.291,19.23,0.355c5.349-0.851,8.729-3.282,14.53-1.768
		c8.526-4.018,11.393,3.91,17.989,2.763c5.104-0.888,9.078-2.784,14.484-2.862c6.915-0.1,12.192,0.624,18.114,3.951
		c6.592-2.885,7.769,3.44,13.197,2.256c5.679-1.239,9.882-3.296,15.836-1.277c5.784,1.963,10.262,6.156,14.785,9.882
		c2.421,1.995,4.596,3.632,7.513,4.71c1.761,0.651,6.122,0.647,7.415,1.801c5.854,5.224-2.293,10.377-7.079,11.253
		c-4.676,0.856-11.25-1.445-14.492,1.725c-1.533,1.499,0.758,3.12-1.678,4.738c-2.596,1.723-11.126-0.379-13.974-1.347
		c-7.139-2.428-30.636-12.5-33.299-1.063c-0.789,3.39,2.571,4.082-1.776,6.707c-2.602,1.571-8.068,0.645-11.058,0.632
		c-5.042-0.022-13.567,0.126-7.345,6.056c4.196,4,10.332,2.967,15.519,3.228c6.091,0.306,7.959,3.055,13.192,4.951
		c7.97-2.425,10.878,4.52,16.134,6.24c1.053,0.345,5.057-1.776,4.954,0.842c-0.102,2.6-7.479,1.719-8.907,1.857
		c-3.146,0.306-10.94,2.49-7.332,7.837c1.386,2.054,5.068,0.97,7.077,1.582c3.857,1.176,7.858,3.942,10.361,6.901
		c16.334,9.818,7.079,23.885,18.446,22.155c5.393-0.821,8.403-6.128,13.81-7.101c5.539-0.997,10.07,1.606,15.113,2.854
		c4.918,1.217,9.717-0.465,14.787,0.491c1.99,0.375,4.874,2.221,6.656,1.607c2.836-0.978,45.352-3.134,47.941,10.974
		C431.665,120.154,387.307,132.217,378.177,126.856z"/>
</g>
<g id="Layer_1">
</g>
</svg>
