<?xml version="1.0" encoding="iso-8859-1"?>
<!-- Generator: Adobe Illustrator 23.0.3, SVG Export Plug-In . SVG Version: 6.00 Build 0)  -->
<svg version="1.1" xmlns="http://www.w3.org/2000/svg" xmlns:xlink="http://www.w3.org/1999/xlink" x="0px" y="0px"
	 viewBox="0 0 432 141.469" style="enable-background:new 0 0 432 141.469;" xml:space="preserve">
<g id="realistic-cloud-silhouette-clip-art-4">
	<path style="stroke:#000000;stroke-width:2;stroke-miterlimit:10;" d="M1.439,110.071c2.228-6.518,31.06-7.662,37.149-8.894
		c0.281-5.519-16.288-15.97-0.446-29.316c-1.037-7.268,1.702-14.146,9.932-17.662c7.128-3.045,18.351,3.043,23.616,5.599
		c0,0,5.705-20.878,26.811-19.118c1.619-1.443,0.966-5.646,2.524-7.781c3.331-4.567,9.501-5.639,14.567-7.168
		c5.285-1.595,11.098-1.094,15.489-2.91c3.799-1.571,4.218-6.95,13.401-5.451c2.717,0.444,7.936,6.88,7.936,6.88
		c8.93-3.319,9.19,3.991,12.554,2.92c4.58-1.459,3.209-5.054,5.966-7.495c4.217-3.733,7.652-3.57,12.775-4.417
		c2.604-0.43,3.738,0.465,6.158-0.336c2.911-0.963,5.084-4.387,7.731-5.533c5.278-2.284,13.438-3.376,17.784,1.202
		c9.97-9.926,23.441-6.011,35.341-4.17c13.784,2.133,28.508-10.364,43.196-3.157c3.968,1.947,6.903,6.986,10.831,8.272
		c5.625,1.842,11.982-2.623,18.57-0.83c6.078,1.654,10.652,6.072,15.869,9.046c9.055,5.162,17.338,2.332,27.829,2.231
		c11.934-0.115,19.169,0.231,28.687,7.716c5.075,3.991,8.072,6.151,13.95,9.092c14.278,7.145,18.455,17.249,20.667,32.684
		c3.69,25.745-7.728,48.655-35.813,50.22c-4.479,0.25-10.156-1.119-14.441-0.167c-6.157,1.368-4.123,3.69-8.888,8.615
		c-11.008,11.379-24.568,2.733-36.658,2.198c-6.979-0.309-14.308,3.809-21.51,4.527c-9.741,0.971-14.454-1.137-22.88-4.718
		c-12.662-5.381-28.32,7.751-42.352,8.301c-7.438,0.292-11.02-3.542-17.354-4.713c-5.829-1.078-11.385,3.018-17.279,3.23
		c-12.091,0.435-17.741-12.633-29.215-13.523c-11.013-0.855-21.988,7.367-33.768,7.493c-6.982,0.075-12.625-0.037-18.926-2.977
		c-4.87-2.273-8.259-5.953-13.434-6.762c-4.787-0.748-9.447,1.789-14.302,1.491c-7.987-0.49-10.059,0.379-18.554,3.057
		c-9.183,2.895-19.966,3.351-29.079,0.669c-5.825-1.714-9.801-6.1-15.144-8.052C35.907,118.603-3.575,124.737,1.439,110.071z"/>
</g>
<g id="Layer_1">
</g>
</svg>
