<?xml version="1.0" encoding="iso-8859-1"?>
<!-- Generator: Adobe Illustrator 23.0.3, SVG Export Plug-In . SVG Version: 6.00 Build 0)  -->
<svg version="1.1" xmlns="http://www.w3.org/2000/svg" xmlns:xlink="http://www.w3.org/1999/xlink" x="0px" y="0px"
	 viewBox="0 0 432 88.164" style="enable-background:new 0 0 432 88.164;" xml:space="preserve">
<g id="realistic-cloud-silhouette-clip-art-10">
	<path style="stroke:#000000;stroke-width:2;stroke-miterlimit:10;" d="M5.966,46.165c5.817-2.471,13.345,1.2,19.052,0.245
		c2.966-0.497,5.025-2.233,8-2.733c3.11-0.523,6.504,0.45,9.586,0.161c3.944-0.37,6.81-2.848,10.668-3.408
		c3.864-0.561,6.773,1.184,10.872,0.351c3.664-0.744,4.816-2.303,7.74-4.055c3.277-1.964,7.929-3.524,11.024-5.679
		c7.521-5.237,7.949-9.296,18.093-9.691c2.078-0.081,5.396,0.7,7.338,0.064c4.572-1.497,6.535-6.286,11.217-8.043
		c4.277-1.605,8.252-0.7,12.37,0.707c6.449,2.202,5.275,3.193,10.94,0c5.27-2.97,9.589-5.97,15.995-6.793
		c4.155-0.534,7.866,1.471,11.6,1.283c9.87-0.498,17.762-9.039,28.354-5.516c5.896,1.961,7.972,3.78,7.972,3.78
		c5.576-4.296,14.487-2.007,19.959-1.713c5.016,0.269,9.83,1.662,14.877,1.35c4.468-0.276,8.275-2.167,12.702-2.727
		c4.258-0.539,7.731,1.376,11.447,1.56c6.754,0.334,12.333-3.237,19.186-4.104c5.179-0.655,9.686,0.445,14.645,0.959
		c7.632,0.792,14.807-1.422,22.533-1.094c5.601,0.238,9.654,2.346,15.295,2.701c5.65,0.355,17.911-0.544,22.768,3.181
		c0,0,7.609-4.227,10.652,0.507c5.241-1.691,13.865-4.396,15.555,1.86c1.718,0.877,8.304,0.819,10.483,2.367
		c2.565,1.823,1.379,6.769,4.903,7.609c24.855,5.918-9.589,8.927-15.698,9.753c0.448,4.332,6.981,5.984,11.103,6.529
		c5.67,0.749,8.863,1.788,13.359,3.344c3.912,1.353,27.041,2.397,18.601,10.904c-2.313,2.331-8.724,1.033-11.502,2.613
		c-5.333,3.033-6.49,7.535-13.592,9.141c-2.561,0.579-6.686,0.136-8.963,1.034c-3.257,1.286-2.257,1.574-5.201,4.346
		c-4.222,3.975-6.45,5.246-12.888,5.798c-10.137,0.869-20.752,0.069-30.665,1.639c2.511,2.965,8.394,1.691,10.487,5.837
		c-8.678,6.745-21.47,1.435-31.446,3.299c-5.913,1.104-10.5,3.256-16.959,3.43c-5.651,0.152-11.141-2.471-16.577-1.985
		c-3.886,0.348-6.596,2.195-10.783,1.952c-5.563-0.323-10.026-1.056-15.875-0.478c-12.341,1.22-25.064,0.51-37.511,0.51
		c-10.759,0-21.518-0.005-32.277,0c-9.027,0.004-17.6,0.344-26.282,0c-17.279-0.685-34.227-3.382-51.757-3.382
		c-3.825,0-26.057,0.935-24.382-5.078c0.332-1.192,12.113-4.317,13.867-5.04c3.276-1.35,8.548-3.484,12.037-4.05
		c-5.484-4.416-16.51-1.634-22.989-1.387c-4.242,0.161-6.947-0.39-10.642-1.525c-6.09-1.871-4.234-1.915-10.721-0.487
		c-7.366,1.621-11.498-2.091-18.902-2.722c-7.845-0.669-14.764-2.456-22.445-2.03c-7.504,0.416-14.349-1.428-21.463-2.688
		C5.039,57.383-5.211,50.912,5.966,46.165z"/>
</g>
<g id="Layer_1">
</g>
</svg>
