<?xml version="1.0" encoding="iso-8859-1"?>
<!-- Generator: Adobe Illustrator 23.0.3, SVG Export Plug-In . SVG Version: 6.00 Build 0)  -->
<svg version="1.1" xmlns="http://www.w3.org/2000/svg" xmlns:xlink="http://www.w3.org/1999/xlink" x="0px" y="0px"
	 viewBox="0 0 432 141.943" style="enable-background:new 0 0 432 141.943;" xml:space="preserve">
<g id="realistic-cloud-silhouette-clip-art-8">
	<path style="stroke:#000000;stroke-width:2;stroke-miterlimit:10;" d="M1.05,97.119c-0.58-4.932,3.995-10.638,7.673-12.427
		c4.462-2.17,9.475-1.411,13.755-4.182c3.792-2.456,7.75-3.871,12.117-6.208c6.091-3.259,12.112-18.255,15.748-23.638
		c3.272-4.846,9.161-3.773,12.796-8.084c3.18-3.77,5.472-11.339,10.134-13.294c1.415-0.593,3.621,0.392,5.136,0.02
		c2.677-0.659,3.979-2.64,6.687-3.363c2.678-0.715,5.576,0.378,8.591-0.444c3.006-0.819,5.536-2.027,8.596-2.399
		c5.625-0.684,9.266-1.586,14.722-3.473c5.164-1.786,9.72-2.972,15.003-3.107c3.776-0.097,3.45,0.993,5.624-3.329
		c1.076-2.14,1.251-5.036,2.964-6.828c5.987-6.268,19.087-0.524,26.62-2.448c5.35-1.366,8.879-3.471,14.936-2.78
		c5.335,0.609,12.878,2.913,14.73,8.048c1.166,3.231-1.222,4.498,2.809,6.497c3.23,1.601,6.565-0.722,9.478-1.559
		c2.862-0.822,4.6-0.223,7.353-0.643c3.955-0.604,6.322-2.926,10.757-2.245c3.689,0.567,6.616,3.362,10.253,3.797
		c4.138,0.495,8.461-1.699,12.798-0.906c5.361,0.981,11.463,8.499,7.165,16.617c0,0,4.298,0.836,4.298,6.208
		c7.638,2.483,10.943,4.801,17.191,5.73c7.468,1.11,8.459-0.88,15.828,0.98c4.659,1.175,9.115,2.906,13.779,4.165
		c6.39,1.726,12.028-0.933,18.525,2.018c6.426-1.194,5.388,3.572,8.601,3.843c3.078-1.575,5.946-2.016,9.273-1.38
		c3.795,0.726,5.681,4.219,8.274,6.633c3.328,3.099,4.373,2.035,8.357,3.429c6.403,2.241,7.14,9.799,5.588,12.067
		c2.004,0.739,4.823-0.03,7.437,1.234c3.819,1.848,4.309,4.68,5.554,7.842c2.171,0.236,2.391,1.947,2.895,4.149
		c0.501,2.188,12.169,0.742,16.23,6.45c6.684-0.336,9.31,1.694,14.322,9.348c5.897,1.081,12.949,1.781,16.235,7.498
		c2.411,4.194,0.888,4.451-4.17,4.329c-5.704-0.138-11.23-2.104-16.878-2.665c-5.763-0.573-10.641,1.442-16.174,1.209
		c-5.778-0.244-9.839-4.988-15.748-4.677c-3.729,0.197-24.497,2.564-28.197,3.149c-4.517,0.714-8.485-0.339-12.554-1.826
		c-6.109-2.233-7.689,1.581-14.197,0.968c-7.226-0.681-7.002-0.687-13.842,0.964c-5.138,1.24-8.992,8.936-13.485,6.689
		c-4.509-2.256-3.867-1.948-8.493-0.014c-6.154,2.572-20.284-3.383-25.783,0.015c-6.277,3.879-4.18,8.582-12.413,6.17
		c1.572,4.797,9.006,8.288,2.288,13.428c-5.619,4.299-10.993,1.537-16.164-0.892c-4.804-2.257-8.069,0.11-13.373,0.381
		c-2.67,0.136-5.002-0.915-7.498-0.977c-2.976-0.074-4.878,1.316-7.662,1.836c-3.71,0.693-7.825,0.462-11.533,1.038
		c-6.944,1.079-9.695-1.538-13.839-5.62c-3.377,1.455-5.873,1.154-8.394-2.485c-1.901-2.745,1.112-3.857-3.092-5.657
		c-2.002-0.857-4.735,0.711-6.719-0.4c-1.593-0.892-19.699,7.055-22,7.023c-2.862-0.041-5.504-0.702-7.614-2.85
		c-0.524-0.533-0.541-2.617-0.89-2.887c-1.139-0.877-2.798-0.703-3.826-1.389c-5.347-3.567-4.967-6.222-11.29-3.408
		c-4.045,1.8-3.84,0.309-7.861,0.826c-2.698,0.347-4.234,2.21-7.122,2.553c-4.298,0.511-10.643-8-14.344-5.747
		c-4.877,2.969-4.511,3.545-11.461,2.865c-6.261-0.613-7.919-0.587-10.495-4.777c-4.459-7.252-10.325,0.75-15.771,3.274
		c-6.321,2.929-11.642,2.913-18.599,1.043c-3.585-0.963-6.002-1.251-5.204-5.866c0.336-1.941,4.613-5.394,3.814-7.519
		c-0.796-2.118-5.458-1.625-7.373-2.463c-2.994-1.311-4.386-4.602-8.436-2.944C10.407,104.914,1.626,102.013,1.05,97.119z"/>
</g>
<g id="Layer_1">
</g>
</svg>
