<?xml version="1.0" encoding="iso-8859-1"?>
<!-- Generator: Adobe Illustrator 23.0.3, SVG Export Plug-In . SVG Version: 6.00 Build 0)  -->
<svg version="1.1" xmlns="http://www.w3.org/2000/svg" xmlns:xlink="http://www.w3.org/1999/xlink" x="0px" y="0px"
	 viewBox="0 0 432 72.073" style="enable-background:new 0 0 432 72.073;" xml:space="preserve">
<g id="realistic-cloud-silhouette-clip-art-2">
	<path style="stroke:#000000;stroke-width:2;stroke-miterlimit:10;" d="M2.018,22.348c1.006-1.183,1.458-1.294,0.497-2.551
		c0.291-4.59,16.814-4.131,21.919-3.958c3.973,0.135,8.094,0.79,12.13,0.682c6.841-0.184,13.23-1.962,20.077-2.381
		c8.412-0.514,16.435-1.483,24.991,2.504c10.133-6.378,21.821-2.93,26.414-1.999c2.421,0.491,9.017,3.333,9.732,3.861
		c2.528,1.866,12.522,0.933,17.364,0.926c6.176-0.009,9.185,0.922,13.11,2.781c2.388,1.131,4.007,3.445,6.707,4.32
		c3.627,1.175,8.34,0.225,11.319,1.952c1.465,0.85,2.301,1.832,3.385,2.758c0,0,3.652-5.859,13.543-7.099
		c2.454-0.308,9.905-0.165,10.843-0.877c0.706-0.536-0.908-1.927-1.041-2.516c-0.205-0.909-0.065-1.806,0.844-2.643
		c2.185-2.013,7.59-3.064,12.708-3.592c1.959-0.202,4.945-0.11,6.711-0.421c2.433-0.429,1.738-0.537,2.117-1.572
		c0.735-2.002,3.361-3.545,6.332-5.166c2.09-1.141,4.551-2.356,8.267-2.661c1.551-0.127,3.318,0.13,4.872,0
		c2.588-0.217,5.052-1.045,7.23-1.586c11.622-2.888,26.231-3.099,35.909,1.206c1.811,0.805,3.557,1.778,4.742,2.748
		c0.71,0.581,0.933,1.45,2.376,1.771c2.577,0.573,10.13-0.547,12.818-0.672c2.879-0.135,6.094-0.273,8.994-0.133
		c2.565,0.124,4.944,0.44,7.038,1.022c0.942,0.262,2.746,1.355,3.694,1.442c1.771,0.163,4.132-0.963,5.695-1.319
		c2.332-0.53,4.794-0.867,7.49-0.896c8.73-0.092,15.481,2.897,20.343,5.348c3.084,1.555,6.291,3.08,8.389,4.878
		c0.733,0.628,1.139,2.789,2.048,3.195c1.523,0.679,7.328,0.298,9.624,0.518c2.997,0.287,5.356,0.743,7.273,1.737
		c2.424,1.257,4.234,3.092,5.118,4.614c0.626,1.078-0.3,2.595,0.64,3.584c1.55,1.629,11.202,2.337,15.089,3.46
		c5.34,1.543,7.278,3.022,8.264,5.45c0.474,1.168,0.025,1.036,3.237,1.603c3.704,0.654,7.967,0.982,11.507,1.789
		c3.91,0.891,5.982,2.274,5.573,4.044c-0.233,1.009-1.028,1.899-2.461,2.755c-0.921,0.55-3.256,1.114-2.593,1.723
		c0.686,0.63,4.994,0.802,6.332,1.324c1.599,0.625,1.665,1.102,1.761,1.994c0.328,3.034-5.809,4.599-12.385,5.742
		c-13.154,2.285-27.227,2.183-41.106,1.447c-5.94-0.315-7.069,0.626-12.062,1.864c-7.679,1.905-17.828,2.374-26.336,0.995
		c-1.886-0.306-2.636-0.642-4.493-0.447c-2.104,0.221-5.296,1.677-7.509,2.106c-8.156,1.579-20.861,2.228-29.483,0.852
		c-1.294-0.207-2.404-0.785-3.78-0.857c-3.148-0.164-6.375,1.035-9.134,1.502c-10.298,1.743-21.133,1.589-32.116,1.559
		c-8.611-0.024-13.248-1.477-20.618-2.925c-6.174-1.213-8.782-1.35-15.246-0.362c-10.345,1.582-22.399,2.596-33.535,2.6
		c-3.395,0.001-9.107-0.104-12.056-0.938c-1.218-0.344-1.642-1.086-2.712-1.423c-3.628-1.143-11.741,0.855-16.863,0.923
		c-6.724,0.09-11.655-1.026-18.037-1.364c-6.628-0.351-13.421,0.16-20.09,0.168c-11.772,0.013-23.684-1.358-34.391-3.188
		c-3.844-0.657-16.521-1.721-15.185-4.225c-3.497-0.657-9.059,0.372-13.023,0.095c-4.274-0.299-7.44-1.61-9.466-3.028
		c-1.508-1.055-2.89-2.401-3.479-3.589c-0.359-0.724,0.407-1.873-0.394-2.53c-1.215-0.998-5.432-1.459-7.223-2.405
		c-2.1-1.109-2.813-2.732-3.132-4.08c-0.312-1.316,0.321-2.573,1.159-3.834c0.944-1.418,1.065-1.365-2.128-2.504
		c-6.517-2.326-15.814-4.009-20.677-6.96C1.574,29.112-0.312,25.088,2.018,22.348z"/>
</g>
<g id="Layer_1">
</g>
</svg>
