<?xml version="1.0" encoding="iso-8859-1"?>
<!-- Generator: Adobe Illustrator 23.0.3, SVG Export Plug-In . SVG Version: 6.00 Build 0)  -->
<svg version="1.1" xmlns="http://www.w3.org/2000/svg" xmlns:xlink="http://www.w3.org/1999/xlink" x="0px" y="0px"
	 viewBox="0 0 432.107 132.055" style="enable-background:new 0 0 432.107 132.055;" xml:space="preserve">
<g id="realistic-cloud-silhouette-clip-art-9">
	<path style="stroke:#000000;stroke-width:2;stroke-miterlimit:10;" d="M428.726,116.376c-1.465-4.735-0.84-5.918-6.59-7.666
		c-4.721-1.435-5.821-5.826-9.691-3.965c-4.531-2.531-2.706-2.393-8.287-3.706c-8.559-2.014-17.015-3.429-25.373-6.894
		c-8.671-3.595-15.1-7.788-25.1-6.909c-2.723,0.239-6.927,2.184-9.335,1.894c-4.039-0.486-9.382-4.405-13.191-5.783
		c-6.181-2.236-6.582,0.094-8.556-6.462c-0.662-2.201,0.292-6.212-0.717-8.03c-2.771-4.994-5.972-3.594-11.091-5.396
		c-4.723-1.663-7.58-3.853-12.091-6.172c-3.728-1.916-8.569-6.454-12.322-3.552c-3.701-2.14-6.057-7.25-9.336-10.245
		c-5.704-5.209-11.174-15.278-17.943-13.713c-7.904-5.662-5.636-13.058-18.752-16.156c-8.41-9.307-15.922-6.071-23.734-8.435
		c-9.228-2.792-15.655,1.763-24.395,0.797c-7.703-0.852-12.372-6.318-21.233-4.674c-6.56,1.218-13.649,5.203-19.659,7.48
		c-3.482,1.319-6.705,4.393-10.438,4.884c-4.09,0.538-7.608-2.138-11.649-2.219c-7.765-0.155-12.659,4.383-18.699,7.76
		c-4.781,2.673-12.322,1.883-15.606,9.545c-7.518,4.421-15.871,4.013-20.468,12.118c-6.95,1.622-15.574-1.674-21.997,1.523
		c-11.097,5.524-8.475,14.715-22.52,14.93c-5.22,0.08-10.472-0.457-15.187,1.942C9.111,62.144,1.107,73.432,1.107,73.432
		c2.03,6.232,12.009,3.759,17.588,4.564c15.8,2.281,31.864,1.921,47.763,3.122c8.239,0.622,17.615,2.052,25.73,1.534
		c4.191-0.268,8.104-1.747,12.195-1.78c3.626-0.029,7.378,1.328,11.329,1.013c8.23-0.657,11.043-0.034,18.772,1.363
		c6.746,1.219,12.773-2.765,19.346-1.418c8.323,1.706,11.851,6.147,21.441,6.172c1.889,0.005,8.598-0.944,9.993-0.052
		c3.982,2.545,1.359,7.834-2.938,10.018c-5.993,3.046-15.158-0.695-19.705,6.524c-5.226,8.296,5.809,10.901,13.231,12.267
		c8.282,1.524,18.255,4.491,26.718,4.491c10.655,0,14.294-2.82,23.427,1.341c9.441,4.301,13.723,0.432,22.881-0.693
		c6.049,6.831,13.228,6.505,22.886,6.789c7.834,0.23,14.201,1.471,22.107,2.258c7.341,0.731,13.901-2.431,21.148-1.549
		c10.075,1.227,17.445,2.837,28.326,0.367c10.094,2.068,12.241-2.473,21.053-0.924c9.86,1.733,18.612,3.272,28.464,0.614
		c9.13-2.463,18.034-2.758,27.238-4.623C426.195,123.594,435.531,122.587,428.726,116.376z M237.306,93.875
		c-2.831,1.548-8.369-0.03-10.708-1.432c-1.31-0.785-2.168-2.162-3.583-2.714c-1.325-0.518-2.844,0.159-4.183-0.251
		c-1.635-0.5-2.897-2.089-4.553-2.466c-1.085-0.247-2.691,0.372-3.987,0.223c-2.551-0.294-4.306,0.116-6.403-0.766
		c3.394-3.067,3.973-2.24,5.723-2.689c2.863-0.734,3.831-3.54,6.4-4.234c3.347-0.903,5.971,2.79,9.12,3.519
		c2.456,0.568,5.753-0.808,8.26-0.051C236.511,83.956,240.844,91.941,237.306,93.875z"/>
</g>
<g id="Layer_1">
</g>
</svg>
