<?xml version="1.0" encoding="iso-8859-1"?>
<!-- Generator: Adobe Illustrator 23.0.3, SVG Export Plug-In . SVG Version: 6.00 Build 0)  -->
<svg version="1.1" xmlns="http://www.w3.org/2000/svg" xmlns:xlink="http://www.w3.org/1999/xlink" x="0px" y="0px"
	 viewBox="0 0 432.16 174.632" style="enable-background:new 0 0 432.16 174.632;" xml:space="preserve">
<g id="realistic-cloud-silhouette-clip-art-7">
	<path style="stroke:#000000;stroke-width:2;stroke-miterlimit:10;" d="M8.852,67.774c2.702-1.843,5.887-5.562,11.224-4.353
		c5.202-3.237,3.321-4.183,5.268-8.231c2.217-4.61,17.981-8.026,15.492-12.554c-2.129-3.873-16.188-0.691-20.285-5.09
		c-6.087-6.535,2.872-11.692,12.85-10.957c4.51,0.332,9.617-2.366,14.154-2.425c5.415-0.07,7.612-3.644,13.255-3.629
		c7.284,0.019,16.455,3.534,22.964,1.701c3.531-0.994,6.333-6.15,10.347-7.62c5.226-1.913,11.033-0.234,15.968-1.471
		c4.087-1.025,7.213,0.373,11.092-1.177c6.282-2.509,11.878-2.194,18.991-2.192c9.048,0.003,17.706-0.162,26.573,1.097
		c8.201,1.164,19.31-0.669,26.295,2.177c7.684,3.13,11.157,11.335,21.394,6.577c7.12-3.309,4.77-13.661,12.779-15.375
		c5.857-1.253,4.867,2.885,10.4,4.33c5.116-5.013,8.742-0.528,11.501-3.336c3.273-3.331,15.654-4.413,18.355-4.229
		c11.547,0.785,13.207,9.026,22.856,12.061c3.38,1.063,6.741,1.183,10.242,2.704c4.56,1.982,7.44,4.26,12.575,4.465
		c7.525,0.3,11.382-2.245,16.91,3.76l2.268,4.379c18.239,2.069,12.69,11.81,25.894,12.559c9.771,0.554,15.501,2.694,22.397,7.938
		c3.896,2.963,10.812,4.064,13.325,7.371c2.661,3.501,6.965,10.344,6.426,14.157c11.718,8.098,2.191,15.621,8.13,22.684
		c1.467,1.744,4.089,2.98,5.514,4.656c1.512,1.778,1.766,4.346,3.711,5.772c4.055,2.974,12.102,2.063,13.28,6.857
		c-7.926,4.072-23.004,0.914-30.673,6.217c-3.93,2.717-2.081,5.873-7.692,7.739c-3.223,1.072-7.086-0.366-10.248,0.773
		c-4.519,1.628-3.733,3.938-5.484,6.688c-2.922,4.587-3.371,2.774-8.314,5.369c-3.634,1.908-5.158,5.083-9.222,6.74
		c-3.784,1.543-8.184,0.862-12.114,2.165c-11.486,3.808-2.306,11.969-16.464,12.588c-10.941,0.478-22.258-1.729-33.279-0.135
		c-2.972,0.43-8.579,1.202-10.936,2.32c-4.388,2.082-3.726,5.236-6.992,8.241c-5.698,5.243-19.06,5.294-27.232,3.406
		c-10.136-2.342-20.111-4.601-30.392-6.703c-4.496-0.919-9.041-2.978-13.815-3.172c-5.686-0.232-9.531,2.464-15.01,2.677
		c-6.664,0.258-12.267-2.459-16.633-5.661c-5.554-4.072-4.252-4.715-13.531-3.147c-8.516,1.439-15.958,1.347-24.628,1.628
		c-10.193,0.329-22.074-1.53-31.486-0.559c-16.059,1.656-34.987,4.732-41.428-5.583c-11.326-0.27-20.398-6.318-23.425-14.834
		c-3.163,0.625-6.168-3.351-8.125-4.478c-3.048,0.071-10.206-4.678-7.088-8.647c-5.387-3.119-6.877-11.808-5.135-13.986
		c3.91-4.89,18.045-1.138,24.15-2.244c4.262-0.772,5.377-3.618,8.561-4.325c5.653-1.254,10.996,1.437,15.612,3.203
		c2.675,1.024,7.81,4.85,10.211,1.458c2.548-3.601-5.634-5.715-8.852-6.262c-11.148-1.895-21.806-0.45-30.841-7.213
		c-3.33-2.493-3.278-4.94-5.295-7.824c-9.545,3.172-14.223-4.199-14.223-4.199c-4.854-0.033-15.444-1.391-18.21-4.678
		C0.019,74.68-0.57,66.181,8.852,67.774z"/>
</g>
<g id="Layer_1">
</g>
</svg>
