<?xml version="1.0" encoding="iso-8859-1"?>
<!-- Generator: Adobe Illustrator 23.0.3, SVG Export Plug-In . SVG Version: 6.00 Build 0)  -->
<svg version="1.1" xmlns="http://www.w3.org/2000/svg" xmlns:xlink="http://www.w3.org/1999/xlink" x="0px" y="0px"
	 viewBox="0 0 432 110.687" style="enable-background:new 0 0 432 110.687;" xml:space="preserve">
<g id="realistic-cloud-silhouette-clip-art-6">
	<path style="stroke:#000000;stroke-width:2;stroke-miterlimit:10;" d="M135.904,3.433c9.508,2.11,18.226,3.369,28.101,2.875
		c10.526-0.527,19.546-5.63,30.279-3.479c8.237,1.651,14.455,8.533,22.665,9.484c10.274-2.656,15.248-1.407,22.616-1.354
		c16.063,0.115,31.291,7.171,47.274,6.738c11.048-0.299,17.923,0.268,28.292,4.02c5.876,2.126,10.52,0.987,16.535,2.082
		c5.373,0.978,10.322,6.396,15.577,6.501c3.036,0.06,6.571-2.843,9.306-3.768c5.533-1.873,12.886-3.518,18.787-2.897
		c12.871,1.355,15.748,13.864,29.172,13.936c6.204,0.034,27.762,1.957,26.433,10.77c-1.057,7.006-10.066,5.089-15.535,5.533
		c-2.527,0.205-6.532-0.406-8.659,1.445c-4.042,3.517-0.549,3.484-0.798,7.106c-0.433,6.303-1.655,7.163-9.239,7.578
		c-7.992,0.437-11.823,0.568-17.954,5.854c-5.883,5.072-9.61,9.55-17.602,11.411c-8.608,2.004-11.295,9.524-24.041,6.98
		c-47.778-1.27-28.666,15.441-82.742,10.788c-6.989-0.601-12.414-5.15-19.269-2.912c-6.547,2.138-9.148,5.42-16.764,4.74
		c-6.061-0.541-10.97-3.428-16.796-4.72c-6.675,5.896-9.989,0.859-15.544,1.221c-7.075,0.46-9.543-3.617-15.458-5.934
		c-8.531,3.385-12.969-1.959-18.809-1.324c-5.573,0.606-8.182,3.133-13.228,4.891c-5.853,2.039-7.956-1.267-13.167-1.421
		c-7.514-0.223-15.953,6.747-23.648,7.81c-10.115,1.396-22.664,4.327-31.437,0.136c-5.142,2.168-22.023-1.689-22.241-9.22
		c-0.126-4.347,9.113-5.232,10.555-9.619c-4.031-1.167-9.403,1.23-13.855,1.346c-5.216,0.136-4.818-1.797-8.419-3.187
		c-8.608,3.496-34.107,1.194-35.208-6.497c-0.562-3.928,1.922-7.076,2.333-11.256C1.556,65.35,8.88,53.911,13.978,52.532
		c0,0,5.155-21.249,18.728-25.527c4.196-7.229,9.358-4.525,14.785-7.894c7.329-4.55,8.308-10.898,18.792-12.221
		c7.919-0.999,16.597-0.251,21.459,2.651c5.407,0.231,13.504-6.764,19.85-7.804C117.268,0.152,126.331,1.308,135.904,3.433z"/>
</g>
<g id="Layer_1">
</g>
</svg>
