<?xml version="1.0" encoding="iso-8859-1"?>
<!-- Generator: Adobe Illustrator 23.0.3, SVG Export Plug-In . SVG Version: 6.00 Build 0)  -->
<svg version="1.1" xmlns="http://www.w3.org/2000/svg" xmlns:xlink="http://www.w3.org/1999/xlink" x="0px" y="0px"
	 viewBox="0 0 432 179.114" style="enable-background:new 0 0 432 179.114;" xml:space="preserve">
<g id="realistic-cloud-silhouette-clip-art-3">
	<path style="stroke:#000000;stroke-width:2;stroke-miterlimit:10;" d="M8.275,114.82c-6.752-12.986,0.611-15.816,3.249-25.907
		c3.158-12.081,2.088-7.115-5.12-16.604c-4.766-6.274-6.281-7.374-4.931-13.663c0.431-2.006,1.683-11.335,7.714-12.552
		c-2.477-2.097-3.879-7.252-3.142-10.937c4.894-24.475,31.011-10.026,48.674-13.037c10.951-1.867,13.758-8.526,22.694-13.119
		c9.686-4.979,18.306-3.383,28.641-3.297c7.674,0.064,15.211-0.594,22.783-1.063c3.303-0.204,9.102,1.928,11.862,0.351
		c6.981-3.987,23.115-6.74,33.856,0.548c31.526-13.337,44.743,7.517,64.764,4.143c9.531-1.606,19.579-6.164,29.601-5.348
		c12.846,1.047,22.328,10.149,35.323,11.961c10.604,1.479,15.465-1.299,23.701,6.286c4.651,4.283,5,12.861,9.406,17.539
		c17.23-1.879,16.09,10.692,22.382,11.721c2.065,0.337,8.671-3.391,14.016-2.304c4.332,0.88,12.568,7.495,16.367,10.007
		c9.386,6.208,40.452,7.604,40.874,20.202c0.731,21.817-36.384,17.256-46.862,15.443c-8.498-1.47-15.134,0.001-22.953,0.756
		c-9.332,0.902-1.358,12.401-19.312,14.145c-14.962,17.788-22.443,15.695-36.774,15.562c-8.879-0.083-16.251-0.758-24.279,3.602
		c-8.129,4.414-10.689,12.473-20.344,15.542c-6.529,2.076-12.717-2.031-18.897,2.605c-8.868,6.653,6.493,9.577,0.421,17.272
		c-15.872,20.115-50.489,2.624-70.977,7.586c-4.208,8.632-13.562,5.88-26.263,3.253c-11.31-2.339-20.268-10.068-30.714-14.062
		c-32.796,9.501-50.295-11.332-73.446-8.499c-25.029,3.062-39.056-8.06-35.733-31.93L8.275,114.82z"/>
</g>
<g id="Layer_1">
</g>
</svg>
