<?xml version="1.0" encoding="iso-8859-1"?>
<!-- Generator: Adobe Illustrator 23.0.3, SVG Export Plug-In . SVG Version: 6.00 Build 0)  -->
<svg version="1.1" xmlns="http://www.w3.org/2000/svg" xmlns:xlink="http://www.w3.org/1999/xlink" x="0px" y="0px"
	 viewBox="0 0 432 124.048" style="enable-background:new 0 0 432 124.048;" xml:space="preserve">
<g id="realistic-cloud-silhouette-clip-art-1">
	<path style="stroke:#000000;stroke-width:2;stroke-miterlimit:10;" d="M17.504,71.688c-2.746-3.529-4.502-8.668-3.169-14.14
		c0.827-3.394,4.337-7.265,8.008-6.288c0,0,10.902-8.975,15.595-8.875c3.737-6.882,5.355-9.364,13.71-9.925
		c4.103-4.189,7.13-6.684,13.166-6.93c6.141-4.644,10.91-2.39,16.729-2.598c2.252-0.08,5.106,0.722,7.11,0.259
		c4.418-1.022,8.829-5.18,13.127-6.94c6.316-2.586,10.748-0.882,16.665-1.005c6.421-0.133,9.748-8.327,17.354-6.445
		c1.287,0.319,3.192,2.011,4.059,2.133c3.689-4.184,9.57-3.223,11.992-4.17c6.92-2.705,10.639-7.123,18.798-5.36
		c4.409,0.953,7.252,2.595,12.003,2.736c5.104,0.152,7.65,1.486,11.786,2.61c4.158,1.13,4.073-0.296,8.482-1.574
		c2.598-0.753,4.622-0.585,7.186,0.33c3.46,1.235,4.175,2.218,7.637,2.145c3.507-0.074,14.883,3.807,17.628,4.878
		c3.63,1.416,6.614-1.264,10.604-2.133c2.062-0.449,4.442-0.859,6.607-0.524c3.51,0.544,19.096,0.086,25.091,4.706
		c2.853-0.505,5.324-2.848,8.718-3.14c2.963-0.255,5.99,0.114,8.874,0.393c7.233,0.7,12.529-3.001,19.963-2.99
		c3.311,0.005,11.542-0.546,10.439,7.307l2.61-1.566c2.936-1.215,6.014-0.167,8.336,1.771c1.368,1.142,1.699,3.675,3.239,4.556
		c1.906,1.091,4.64,0.197,6.719,0.576c5.912,1.078,4.192,3.057,6.85,6.524c3.296,4.299,8.642,1.902,12.222,5.599
		c3.054,3.154,0.758,5.372,4.38,7.734c3.844,2.506,8.191,0.766,7.198,7.164c-0.571,3.676-2.842,4.522-2.517,8.469
		c0.281,3.413,4.067,7.338-1.03,9.536c4.173,4.214,7.743,0.297,11.885-1.168c7.178-2.54,9.563,1.083,9.287,5.282
		c6.366-1.415,8.575,3.679,10.627,5.962c1.779,1.979,7.231,6.337,9.602,7.677c3.177,1.795,2.422,4.747,4.156,6.427
		c2.331,2.258,4.486,0.331,6.886,1.74c2.093,1.229,3.802,6.038,4.374,8.263c1.892,7.36-1.677,7.604-7.15,10.849
		c-5.048,2.993-7.303-1.378-13.779-0.317c-2.001,4.958-19.69,3.77-24.212,3.556c-6.06,4.447-14.517,1.08-16.401,1.377
		c-4.873,0.769-8.253,4.792-13.938,4.923c-3.921,0.09-8.259,0.482-12.526,0.497c-9.778,4.478-25.413-2.725-31.586-2.399
		c-7.743,0.409-62.006,2.049-66.026-5.573c-14.958-0.631-7.718-10.097,0.913-10.097c12.877-1.462-0.953-12.414-11.739-9.283
		c-6.022,1.748-7.233,5.81-14.389,4.108c-3.232-0.769-5.53-3.175-8.676-3.178c-7.034,4.638-20.509,4.627-27.911-0.582
		c-7.307,4.175-11.681-2.104-14.507-1.371c-2.568,0.666-31.03,2.456-35.911,2.268c-3.774-0.145-7.394,1.289-11.22,1.054
		c-5.713-0.351-29.668,0.4-32.931,0.167c-3.523-0.252-14.878-1.301-18.306-1.564c-3.816-0.293-4.792-2.369-7.934-3.589
		c-7.024-2.727-14.781,0.816-21.907-3.213c-5.112-2.89-6.631-3.641-12.969-3.637c-2.88,0.002-5.817,0.166-8.693,0
		C12.452,84.329,5.26,84.964,1,80.424C1,68.028,16.601,72.356,17.504,71.688z"/>
</g>
<g id="Layer_1">
</g>
</svg>
