<?xml version="1.0" standalone="no"?>
<!DOCTYPE svg PUBLIC "-//W3C//DTD SVG 20010904//EN"
 "http://www.w3.org/TR/2001/REC-SVG-20010904/DTD/svg10.dtd">
<svg version="1.0" xmlns="http://www.w3.org/2000/svg"
 width="1280.000000pt" height="640.000000pt" viewBox="0 0 1280.000000 640.000000"
 preserveAspectRatio="xMidYMid meet">
<metadata>
Created by potrace 1.15, written by Peter Selinger 2001-2017
</metadata>
<g transform="translate(0.000000,640.000000) scale(0.100000,-0.100000)"
fill="#000000" stroke="none">
<path d="M6353 5738 c-18 -6 -33 -15 -33 -20 0 -5 -4 -7 -9 -4 -11 7 -101 -23
-101 -35 0 -4 -6 -6 -14 -3 -7 3 -20 -1 -27 -9 -8 -7 -19 -12 -25 -10 -7 2
-18 -2 -25 -9 -8 -7 -20 -13 -26 -14 -30 -2 -34 -5 -28 -14 3 -6 -1 -7 -9 -4
-9 3 -16 1 -16 -6 0 -6 -4 -8 -10 -5 -5 3 -10 1 -10 -5 0 -6 -4 -9 -9 -6 -13
8 -42 -4 -35 -15 3 -5 -2 -6 -10 -3 -9 3 -16 1 -16 -6 0 -6 -4 -8 -10 -5 -5 3
-10 1 -10 -5 0 -6 -4 -8 -10 -5 -5 3 -10 1 -10 -5 0 -6 -4 -8 -10 -5 -5 3 -10
1 -10 -5 0 -6 -4 -9 -9 -5 -12 7 -62 -15 -56 -25 7 -11 -24 -22 -37 -13 -6 3
-8 1 -5 -4 8 -12 -20 -26 -34 -17 -5 3 -9 0 -9 -6 0 -6 -4 -8 -10 -5 -5 3 -10
1 -10 -5 0 -6 -4 -8 -10 -5 -5 3 -10 1 -10 -5 0 -6 -4 -8 -10 -5 -5 3 -10 1
-10 -6 0 -7 -3 -10 -6 -7 -3 4 -15 -3 -26 -14 -11 -11 -26 -17 -34 -14 -10 4
-12 2 -8 -6 5 -8 2 -9 -10 -5 -11 5 -15 3 -10 -5 5 -8 2 -9 -10 -5 -11 5 -15
3 -10 -5 5 -8 2 -9 -10 -5 -11 5 -15 3 -10 -5 5 -8 2 -9 -10 -5 -11 5 -15 3
-10 -5 5 -8 2 -9 -10 -5 -11 5 -15 3 -10 -5 5 -8 2 -9 -10 -5 -9 4 -15 3 -12
-2 6 -9 -73 -48 -87 -43 -5 1 -5 -3 -1 -9 5 -9 2 -10 -10 -6 -11 5 -15 3 -10
-5 5 -8 2 -9 -10 -5 -11 5 -15 3 -10 -5 5 -8 1 -9 -12 -4 -10 4 -15 4 -12 0 4
-4 -70 -50 -165 -104 -417 -235 -548 -329 -1142 -826 -506 -422 -819 -660
-1240 -941 -377 -252 -832 -509 -1960 -1108 -319 -170 -609 -322 -645 -338
-36 -16 -89 -46 -118 -66 l-53 -35 38 -14 c157 -54 551 -146 811 -188 106 -17
181 -35 231 -55 233 -96 619 -185 1101 -254 102 -14 196 -29 210 -31 24 -6 24
-6 -10 -20 -85 -36 -235 -84 -263 -84 -31 -1 -31 -1 -12 -16 41 -32 194 -103
308 -143 206 -72 426 -121 712 -158 102 -13 224 -17 565 -19 l435 -2 145 -40
c80 -23 261 -73 403 -112 l258 -71 222 46 c246 52 155 45 1032 75 562 19 613
15 805 -59 116 -46 151 -54 211 -54 64 1 129 30 196 88 l43 36 147 4 c165 3
280 26 364 71 l47 26 158 -12 c415 -34 1293 26 1923 131 314 52 492 105 507
151 17 54 -157 174 -500 342 -140 68 -280 141 -312 161 -74 48 -85 51 -244 86
-99 22 -182 33 -310 40 -96 5 -198 16 -225 24 -52 15 -433 195 -495 234 l-35
22 120 -6 c66 -4 464 -10 885 -15 421 -5 819 -14 885 -20 269 -23 486 -57 680
-106 145 -37 234 -24 579 85 158 50 283 74 446 85 470 32 609 49 677 85 l34
17 -23 21 c-13 11 -85 59 -161 107 -76 47 -160 104 -185 126 -65 54 -133 82
-345 140 -227 62 -315 104 -422 201 -149 134 -312 228 -667 385 -212 93 -303
139 -436 216 -112 65 -99 63 -384 84 l-78 6 -77 80 c-223 232 -430 407 -893
758 -118 89 -214 167 -212 172 1 5 -1 7 -6 4 -12 -7 -73 39 -64 49 4 5 1 5 -6
1 -16 -9 -353 125 -345 137 3 6 1 7 -4 4 -13 -8 -115 37 -108 47 3 3 2 4 -1 2
-10 -8 -64 16 -58 25 3 5 -3 6 -12 2 -12 -4 -15 -3 -10 5 5 8 1 10 -10 5 -12
-4 -15 -3 -10 5 5 8 1 10 -10 5 -12 -4 -15 -3 -10 6 4 6 4 10 -1 9 -14 -5 -73
24 -67 33 3 5 -2 6 -10 3 -9 -4 -18 1 -22 10 -3 9 -10 13 -15 10 -5 -3 -21 8
-36 23 -14 15 -23 22 -18 14 5 -10 -2 -8 -23 4 -17 10 -28 23 -25 28 4 6 1 7
-7 2 -9 -5 -22 2 -38 21 -13 16 -21 22 -17 14 4 -8 -3 -4 -15 10 -12 14 -18
18 -14 10 7 -13 5 -13 -12 -1 -10 8 -30 26 -43 40 -13 14 -20 19 -15 11 7 -13
5 -13 -12 -1 -10 8 -30 26 -44 41 -14 14 -21 19 -16 10 5 -8 -6 1 -25 21 -19
19 -29 28 -24 19 6 -9 -5 0 -24 19 -19 20 -30 29 -25 21 5 -9 -2 -4 -16 10
-14 14 -23 21 -20 15 3 -6 -6 1 -20 15 -14 14 -23 21 -20 15 3 -6 -6 1 -20 15
-14 14 -23 21 -20 15 3 -6 -6 1 -19 15 -13 14 -20 18 -16 10 4 -8 -3 -4 -15
10 -12 14 -19 18 -15 10 4 -8 -3 -4 -15 10 -12 14 -18 18 -14 10 4 -8 -4 -3
-19 13 -27 28 -43 36 -32 15 4 -7 -2 -2 -13 11 -12 15 -24 21 -32 16 -9 -5
-11 -4 -6 3 6 11 -6 16 -26 13 -5 0 -8 4 -8 10 0 5 -4 7 -10 4 -5 -3 -10 -1
-10 5 0 6 -4 8 -10 5 -5 -3 -10 -1 -10 5 0 6 -4 8 -10 5 -5 -3 -10 -1 -10 5 0
6 -4 8 -10 5 -5 -3 -10 -1 -10 5 0 7 -7 9 -16 6 -8 -3 -13 -2 -10 3 7 11 -22
23 -35 15 -5 -3 -9 -1 -9 4 0 14 -87 45 -101 36 -8 -4 -9 -3 -5 4 7 11 -7 16
-41 15 -7 -1 -10 4 -6 10 4 6 0 8 -10 4 -9 -3 -17 -3 -19 1 -6 15 -80 52 -90
46 -6 -4 -8 -2 -5 3 8 13 -20 26 -36 16 -7 -3 -9 -3 -5 2 10 11 -50 47 -64 39
-6 -4 -8 -3 -5 3 7 11 -185 106 -248 122 -50 13 -169 12 -212 -1z"/>
</g>
</svg>
