<svg version="1.0" xmlns="http://www.w3.org/2000/svg" width="1706.7" height="853.3" viewBox="0 0 1280 640"><path d="M598 168l-16 7c-12 5-12 5-25 18-7 8-22 21-27 23-3 2-6 4-9 10-8 11-18 20-30 26-4 2-8 6-12 11l-10 10-38 19c-4 1-29 13-43 21-5 2-6 2-13 2l-19-1c-12-2-12-2-26 1l-27 8c-12 5-21 7-33 9-10 1-13 2-21 6-13 6-16 7-29 8a87 87 0 00-46 14c-11 7-14 8-22 6-12-2-19-1-29 2-18 8-33 13-39 14a608 608 0 00-55 20L7 415l-7 2 27-1h33c7 0 19 3 29 6 23 7 29 9 35 9a329 329 0 0071-11c12-1 16-3 19-8s7-6 23-6c13 0 14 0 23-3l17-5c8-2 36-2 38 0l-2 5-4 6 8 5c7 3 10 3 21 4a622 622 0 0194 13 158 158 0 0073 6c5-1 12-6 16-12 5-7 11-10 26-15l14-5 3-3c5-4 14-1 25 6l10 5 21 11c22 10 32 13 70 21l58 13c17 5 27 7 52 8 23 1 27 1 39-3 8-4 15-6 42-13 11-3 12-3 32-4h35c23-2 44-1 51 1 13 3 31 9 46 15 26 11 35 13 37 9l-1-8v-6c1-2 7-2 14-1l22 3c18 1 30 3 41 7 8 3 9 3 17 3 9-1 19-4 37-11 17-7 24-8 52-7h15c2-1 0-4-5-6-14-6-24-11-31-16-10-7-13-9-30-15a251 251 0 01-40-17l-14-6c-4-2-11-4-19-5l-20-5c-10-3-24-5-42-7-13-1-13-1-20-5a223 223 0 00-66-27c-6-1-15-1-24 1l-19 3c-14 1-18-1-30-13l-23-19c-14-11-17-12-31-14-9-1-10-2-21-12s-16-13-24-13c-13 0-30-6-39-13a247 247 0 00-26-19l-8-5-12-12c-5-7-5-7-17-13a494 494 0 00-34-16l-15-7-11-7-5-3-9-4c-5-3-5-3-12-2-7 0-8 0-15-3-8-4-11-5-19-3z"/></svg>