<?xml version="1.0" standalone="no"?>
<!DOCTYPE svg PUBLIC "-//W3C//DTD SVG 20010904//EN"
 "http://www.w3.org/TR/2001/REC-SVG-20010904/DTD/svg10.dtd">
<svg version="1.0" xmlns="http://www.w3.org/2000/svg"
 width="1280.000000pt" height="1077.000000pt" viewBox="0 0 1280.000000 1077.000000"
 preserveAspectRatio="xMidYMid meet">
<metadata>
Created by potrace 1.15, written by Peter Selinger 2001-2017
</metadata>
<g transform="translate(0.000000,1077.000000) scale(0.100000,-0.100000)"
fill="#000000" stroke="none">
<path d="M5720 10763 c-112 -19 -143 -45 -300 -257 -57 -76 -159 -197 -226
-267 -141 -148 -196 -227 -296 -424 -39 -77 -99 -180 -133 -230 -69 -100 -156
-245 -181 -303 -11 -25 -18 -71 -19 -137 -5 -232 -27 -575 -41 -635 -16 -75
-64 -172 -193 -395 -156 -267 -230 -372 -421 -600 -173 -206 -271 -330 -370
-469 -47 -65 -94 -124 -105 -131 -11 -7 -56 -21 -100 -30 -220 -47 -543 -156
-685 -231 -91 -47 -116 -76 -136 -154 -9 -36 -24 -81 -34 -100 -10 -19 -70
-169 -135 -334 -87 -220 -138 -336 -197 -439 -159 -283 -217 -349 -314 -361
-30 -3 -70 -13 -89 -20 -51 -22 -113 -83 -120 -119 -4 -18 -37 -81 -75 -142
-73 -119 -188 -322 -239 -423 -65 -129 -393 -644 -494 -775 -47 -63 -58 -71
-117 -91 -104 -36 -301 -138 -310 -161 -4 -11 -15 -94 -24 -185 -31 -307 -78
-441 -281 -794 -68 -118 -88 -178 -83 -242 l3 -39 60 2 c74 2 197 45 304 106
169 98 273 148 356 172 118 34 174 33 239 -5 109 -62 250 -76 386 -39 51 13
129 23 240 28 213 11 238 21 390 147 63 53 131 104 150 114 161 83 514 102
714 40 66 -21 75 -28 196 -148 69 -70 182 -192 250 -272 210 -245 325 -347
456 -407 33 -14 77 -38 99 -53 109 -74 135 -81 334 -95 218 -15 267 -29 409
-114 170 -101 268 -192 600 -551 165 -179 374 -374 427 -399 62 -29 300 -110
395 -135 118 -31 268 -113 345 -191 34 -33 120 -126 193 -207 72 -80 146 -158
165 -172 74 -57 239 -76 644 -76 164 0 355 -5 425 -11 115 -11 132 -10 173 6
61 23 128 91 227 231 90 129 115 148 243 188 64 20 138 31 363 51 293 27 705
87 887 130 213 50 291 96 594 350 257 215 428 326 603 393 41 16 103 49 139
72 75 51 259 227 259 247 0 8 -34 62 -75 122 -89 129 -125 198 -125 240 0 17
1 31 3 31 1 0 56 7 122 15 65 8 165 15 220 15 176 0 529 71 649 131 82 41 117
74 162 156 20 35 44 68 54 73 10 5 67 14 128 20 322 30 462 167 351 342 -18
29 -113 134 -210 233 -96 99 -202 214 -234 255 -33 41 -98 116 -145 165 -47
50 -136 163 -198 252 -62 88 -167 221 -234 294 -579 640 -906 1092 -1344 1857
-74 128 -157 285 -184 349 -82 187 -195 346 -320 450 -66 55 -171 120 -285
178 -63 31 -124 33 -151 4 -29 -32 -47 -39 -136 -50 -116 -14 -172 -32 -327
-104 -138 -64 -237 -105 -257 -105 -6 0 -20 18 -32 39 -97 172 -313 460 -467
622 -194 204 -221 242 -373 524 -159 296 -256 469 -283 504 -11 13 -19 32 -19
42 0 29 -57 86 -113 113 -29 14 -90 32 -136 39 l-85 13 -113 259 c-126 290
-327 700 -428 875 -86 150 -238 379 -333 505 -136 179 -339 429 -386 475 -44
42 -46 46 -46 102 l0 58 -87 -1 c-49 -1 -99 -4 -113 -6z"/>
</g>
</svg>
