<?xml version="1.0" standalone="no"?>
<!DOCTYPE svg PUBLIC "-//W3C//DTD SVG 20010904//EN"
 "http://www.w3.org/TR/2001/REC-SVG-20010904/DTD/svg10.dtd">
<svg version="1.0" xmlns="http://www.w3.org/2000/svg"
 width="1280.000000pt" height="640.000000pt" viewBox="0 0 1280.000000 640.000000"
 preserveAspectRatio="xMidYMid meet">
<metadata>
Created by potrace 1.15, written by Peter Selinger 2001-2017
</metadata>
<g transform="translate(0.000000,640.000000) scale(0.100000,-0.100000)"
fill="#000000" stroke="none">
<path d="M5669 6134 c-8 -8 -72 -43 -144 -78 l-130 -64 -260 -233 c-301 -270
-334 -302 -438 -426 -94 -112 -183 -180 -301 -230 -51 -21 -118 -59 -156 -89
-36 -29 -77 -54 -91 -56 -24 -3 -24 -4 -29 -133 -6 -158 9 -131 -251 -438
l-186 -218 -179 -120 c-98 -65 -187 -119 -197 -119 -16 0 -17 -7 -11 -64 6
-55 3 -71 -19 -120 -14 -30 -40 -77 -58 -103 -33 -48 -182 -219 -301 -345
l-63 -67 -122 32 -122 32 -51 -22 c-64 -27 -281 -184 -276 -199 3 -7 -8 -24
-24 -39 l-28 -27 -24 22 c-87 82 -479 200 -667 200 -91 0 -191 -37 -306 -115
-49 -34 -143 -95 -208 -135 -91 -57 -123 -83 -137 -111 -24 -47 -89 -268 -101
-344 -14 -94 -61 -178 -127 -231 -62 -49 -186 -126 -272 -169 -65 -33 -377
-326 -387 -363 -3 -14 0 -29 8 -37 12 -12 195 -114 764 -431 145 -81 170 -99
270 -196 107 -104 112 -107 165 -113 62 -7 454 10 575 25 209 26 380 40 482
40 147 0 219 -19 795 -210 562 -185 496 -176 1124 -161 362 8 481 15 614 33
193 26 497 30 620 10 137 -24 284 -53 340 -69 135 -37 739 -231 974 -313 l259
-90 121 11 c66 5 202 21 301 34 237 32 445 51 750 69 229 14 355 27 424 42
157 36 611 194 1051 367 652 255 817 312 1260 439 l255 72 185 3 c102 2 329 0
505 -4 387 -10 819 -1 889 19 98 27 82 66 -67 153 -150 89 -201 127 -281 209
-99 101 -147 174 -266 404 -95 185 -148 262 -178 262 -10 0 -22 10 -27 23 -11
25 -52 26 -71 1 -9 -11 -13 -9 -23 14 -20 43 -93 142 -261 352 -234 293 -331
425 -325 442 4 10 -64 83 -210 225 l-215 211 -187 85 c-147 66 -190 82 -198
72 -5 -7 -30 -15 -55 -19 -80 -11 -313 -67 -390 -93 -90 -31 -162 -66 -179
-87 -8 -10 -29 -16 -51 -16 -36 0 -42 5 -108 88 -108 135 -192 256 -188 268
13 36 -274 134 -448 153 -94 11 -158 -1 -304 -58 -167 -64 -134 -71 -375 80
-395 248 -383 239 -435 326 -26 43 -64 100 -85 127 -20 27 -37 56 -37 64 0 27
-79 120 -123 146 -65 39 -157 59 -235 52 -37 -3 -81 -6 -98 -7 -80 -2 -267
109 -475 281 -68 57 -320 300 -559 540 -521 523 -576 571 -611 534z"/>
</g>
</svg>
